<?xml version="1.0" encoding="UTF-8"?>
<svg id="Capa_1" data-name="Capa 1" xmlns="http://www.w3.org/2000/svg" xmlns:xlink="http://www.w3.org/1999/xlink" viewBox="0 0 5674.48 1267.2">
  <defs>
    <style>
      .cls-1 {
        fill: none;
      }

      .cls-2 {
        fill: url(#linear-gradient-8);
      }

      .cls-3 {
        fill: url(#linear-gradient-7);
      }

      .cls-4 {
        fill: url(#linear-gradient-5);
      }

      .cls-5 {
        fill: url(#linear-gradient-6);
      }

      .cls-6 {
        fill: url(#linear-gradient-9);
      }

      .cls-7 {
        fill: url(#linear-gradient-4);
      }

      .cls-8 {
        fill: url(#linear-gradient-3);
      }

      .cls-9 {
        fill: #121811;
      }

      .cls-10 {
        fill: url(#linear-gradient);
      }

      .cls-11 {
        fill: #1f140f;
      }

      .cls-12 {
        fill: #c6c6c6;
      }

      .cls-13 {
        fill: url(#linear-gradient-10);
      }

      .cls-14 {
        fill: url(#linear-gradient-11);
      }

      .cls-15 {
        fill: url(#linear-gradient-12);
      }

      .cls-16 {
        fill: url(#linear-gradient-13);
      }

      .cls-17 {
        fill: url(#linear-gradient-19);
      }

      .cls-18 {
        fill: url(#linear-gradient-14);
      }

      .cls-19 {
        fill: url(#linear-gradient-20);
      }

      .cls-20 {
        fill: url(#linear-gradient-15);
      }

      .cls-21 {
        fill: url(#linear-gradient-16);
      }

      .cls-22 {
        fill: url(#linear-gradient-17);
      }

      .cls-23 {
        fill: url(#linear-gradient-18);
      }

      .cls-24 {
        fill: url(#Degradado_sin_nombre_4-2);
      }

      .cls-25 {
        fill: url(#Degradado_sin_nombre_4);
        fill-rule: evenodd;
      }

      .cls-26 {
        fill: url(#Degradado_sin_nombre_3);
      }

      .cls-27 {
        fill: url(#Degradado_sin_nombre_2);
      }

      .cls-28 {
        fill: url(#linear-gradient-2);
      }

      .cls-28, .cls-29 {
        stroke: #cd8326;
        stroke-miterlimit: 10;
        stroke-width: .66px;
      }

      .cls-29 {
        fill: url(#Degradado_sin_nombre_65);
      }
    </style>
    <linearGradient id="linear-gradient" x1="13341.72" y1="-2146.91" x2="13507.46" y2="-2187.44" gradientTransform="translate(13885.9 2417.93) rotate(176.83) scale(.96 -1.2) skewX(-.09)" gradientUnits="userSpaceOnUse">
      <stop offset="0" stop-color="#b4681f"/>
      <stop offset=".08" stop-color="#ce8c32"/>
      <stop offset=".18" stop-color="#ce8c32"/>
      <stop offset=".27" stop-color="#dfb259"/>
      <stop offset=".34" stop-color="#fdef9c"/>
      <stop offset=".41" stop-color="#ffffbf"/>
      <stop offset=".48" stop-color="#fdef9c"/>
      <stop offset=".59" stop-color="#dfb259"/>
      <stop offset=".67" stop-color="#ce8c32"/>
      <stop offset=".77" stop-color="#c27c27"/>
      <stop offset=".83" stop-color="#cd8326"/>
      <stop offset=".88" stop-color="#e4a23b"/>
      <stop offset=".93" stop-color="#f0b44a"/>
      <stop offset="1" stop-color="#b6691f"/>
    </linearGradient>
    <linearGradient id="linear-gradient-2" x1="563.65" y1="258" x2="1022.91" y2="258" gradientTransform="matrix(1,0,0,1,0,0)" xlink:href="#linear-gradient"/>
    <linearGradient id="Degradado_sin_nombre_65" data-name="Degradado sin nombre 65" x1="439.46" y1="510.3" x2="1611.39" y2="510.3" gradientUnits="userSpaceOnUse">
      <stop offset="0" stop-color="#b4681f"/>
      <stop offset=".1" stop-color="#ce8c32"/>
      <stop offset=".19" stop-color="#e4a23b"/>
      <stop offset=".28" stop-color="#ce8c32"/>
      <stop offset=".34" stop-color="#dfb259"/>
      <stop offset=".43" stop-color="#fdef9c"/>
      <stop offset=".49" stop-color="#dfb259"/>
      <stop offset=".55" stop-color="#ce8c32"/>
      <stop offset=".63" stop-color="#c27c27"/>
      <stop offset=".72" stop-color="#df9c38"/>
      <stop offset=".81" stop-color="#cd8326"/>
      <stop offset=".93" stop-color="#f0b44a"/>
      <stop offset="1" stop-color="#b6691f"/>
    </linearGradient>
    <linearGradient id="linear-gradient-3" x1="16036.59" y1="-2040.95" x2="16379.37" y2="-2040.95" gradientTransform="translate(10693.64 2589.54) rotate(176.77) scale(.54 -1.2) skewX(-.02)" xlink:href="#linear-gradient"/>
    <linearGradient id="linear-gradient-4" x1="12073.65" y1="-2304.67" x2="12241.01" y2="-2285.81" gradientTransform="translate(14185.51 1217.74) rotate(171.48) scale(1 -1)" xlink:href="#linear-gradient"/>
    <linearGradient id="linear-gradient-5" x1="12055.73" y1="-2503.29" x2="12231.53" y2="-2483.35" gradientTransform="translate(14185.51 1217.74) rotate(171.48) scale(1 -1)" xlink:href="#linear-gradient"/>
    <linearGradient id="linear-gradient-6" x1="13003.96" y1="-2562.03" x2="13164.78" y2="-2562.03" gradientTransform="translate(13084.25 1654.18) rotate(169.46) scale(.85 -1.18) skewX(4.81)" xlink:href="#linear-gradient"/>
    <linearGradient id="linear-gradient-7" x1="12350.19" y1="-2081.6" x2="13561.45" y2="-2081.6" xlink:href="#linear-gradient"/>
    <linearGradient id="linear-gradient-8" x1="12691.25" y1="-2455.22" x2="12690.23" y2="-2334.34" gradientTransform="translate(14185.51 1217.74) rotate(171.48) scale(1 -1)" xlink:href="#linear-gradient"/>
    <linearGradient id="linear-gradient-9" x1="12158.24" y1="-2630.63" x2="13177.78" y2="-2607.62" gradientTransform="translate(14185.51 1217.74) rotate(171.48) scale(1 -1)" xlink:href="#linear-gradient"/>
    <linearGradient id="Degradado_sin_nombre_4" data-name="Degradado sin nombre 4" x1="2070.11" y1="781.96" x2="5604.7" y2="781.96" gradientUnits="userSpaceOnUse">
      <stop offset="0" stop-color="#008142"/>
      <stop offset=".45" stop-color="#188e45"/>
      <stop offset="1" stop-color="#0c6a3a"/>
    </linearGradient>
    <linearGradient id="Degradado_sin_nombre_4-2" data-name="Degradado sin nombre 4" x1="2070.11" y1="438.15" x2="2355.08" y2="438.15" xlink:href="#Degradado_sin_nombre_4"/>
    <linearGradient id="Degradado_sin_nombre_2" data-name="Degradado sin nombre 2" x1="2260.47" y1="530.65" x2="2485.37" y2="530.65" gradientUnits="userSpaceOnUse">
      <stop offset="0" stop-color="#757575"/>
      <stop offset=".36" stop-color="#959493"/>
      <stop offset=".54" stop-color="#a7a5a4"/>
      <stop offset=".77" stop-color="#838382"/>
      <stop offset=".97" stop-color="#696b6a"/>
      <stop offset="1" stop-color="#696b6a"/>
    </linearGradient>
    <linearGradient id="Degradado_sin_nombre_3" data-name="Degradado sin nombre 3" x1="2363.04" y1="572.96" x2="2587.7" y2="572.96" gradientUnits="userSpaceOnUse">
      <stop offset="0" stop-color="#d3883a"/>
      <stop offset=".02" stop-color="#d3883a"/>
      <stop offset=".56" stop-color="#f4ac40"/>
      <stop offset="1" stop-color="#d3883a"/>
    </linearGradient>
    <linearGradient id="linear-gradient-10" x1="147.48" y1="1002.62" x2="687.58" y2="1002.62" gradientUnits="userSpaceOnUse">
      <stop offset="0" stop-color="#d39727"/>
      <stop offset="0" stop-color="#d39727"/>
      <stop offset=".23" stop-color="#e4b241"/>
      <stop offset=".5" stop-color="#e3ae3c"/>
      <stop offset=".77" stop-color="#d08d25"/>
      <stop offset="1" stop-color="#b57627"/>
    </linearGradient>
    <linearGradient id="linear-gradient-11" x1="597.59" y1="1063.6" x2="783.77" y2="1063.6" xlink:href="#linear-gradient-10"/>
    <linearGradient id="linear-gradient-12" x1="767.84" y1="1042.98" x2="863.59" y2="1042.98" xlink:href="#linear-gradient-10"/>
    <linearGradient id="linear-gradient-13" x1="843.86" y1="1063.6" x2="1009.74" y2="1063.6" xlink:href="#linear-gradient-10"/>
    <linearGradient id="linear-gradient-14" x1="997.39" y1="1063.6" x2="1129.53" y2="1063.6" xlink:href="#linear-gradient-10"/>
    <linearGradient id="linear-gradient-15" x1="1120.19" y1="1050" x2="1257.23" y2="1050" xlink:href="#linear-gradient-10"/>
    <linearGradient id="linear-gradient-16" x1="1238.05" y1="1049.27" x2="1370.94" y2="1049.27" xlink:href="#linear-gradient-10"/>
    <linearGradient id="linear-gradient-17" x1="1355.9" y1="1063.6" x2="1530.03" y2="1063.6" xlink:href="#linear-gradient-10"/>
    <linearGradient id="linear-gradient-18" x1="1520.52" y1="1050" x2="1657.56" y2="1050" xlink:href="#linear-gradient-10"/>
    <linearGradient id="linear-gradient-19" x1="1641.89" y1="1042.98" x2="1737.65" y2="1042.98" xlink:href="#linear-gradient-10"/>
    <linearGradient id="linear-gradient-20" x1="1722.31" y1="1063.6" x2="1889.15" y2="1063.6" xlink:href="#linear-gradient-10"/>
  </defs>
  <g>
    <g>
      <path class="cls-10" d="M805.51,629.41l-44.31-115.12c7.82,3.43,117.29-.93,94.61-42.18,22.41,4.22,19.23,111.17,7.39,134.18l-57.69,23.12Z"/>
      <path class="cls-28" d="M847.87,390.22c-24.29-13.27-51.21-22.35-79.81-26.28l-58.25-8.01,41.6-41.51,130.47-130.18h-318.23v-58.44h459.26l-49.98,49.87-143.47,143.16c14.16,4.79,27.84,10.62,40.91,17.41-8.82,17.27-16.38,35.31-22.5,53.98Z"/>
      <path class="cls-1" d="M921.14,823.9c-1.78,1.48-3.6,2.92-5.41,4.36"/>
      <path class="cls-29" d="M1500.41,240.52c-68.57-68.57-163.31-110.99-267.92-110.99s-199.35,42.42-267.92,110.99c-68.57,68.57-110.98,163.31-110.98,267.91,0,83.84,27.25,161.32,73.36,224.08-3.85,5.46-7.93,10.76-12.22,15.87l-.21.24-.21.25-.04.05-.17.19-.2.24-.21.25-.21.24-.21.25-.22.24-.2.24-.21.24-.21.25v.02s-.21.23-.21.23l-.21.24-.22.24-.21.24-.22.24-.2.24-.22.24-.21.24-.19.21-.03.03-.22.24-.21.24-.22.24-.22.23-.21.24-.22.24-.22.24-.21.24-.15.16-.07.07-.22.25-.22.23-.22.24-.22.23-.21.23-.44.47-.21.23-.11.12-.1.11-.22.24-.22.24-.22.23-.21.23-.23.23-.21.24-.23.24-.21.23-.08.08-.15.15-.22.23-.23.23-.21.22-.22.23-.22.23-.22.23-.23.22-.22.23-.04.04-.19.2-.22.22-.23.24-.22.22-.22.24-.23.22-.22.22-.23.23-.22.22-1.6,1.58-.41.42-1.19,1.14-.86.82-.77.73-1.28,1.21-.36.33-1.65,1.52-.07.07-1.6,1.43-.51.46-1.17,1.04-.96.82-.74.64-1.41,1.21-.29.25-1.72,1.44-.16.13-1.58,1.3-.62.49-1.13.91-1.08.86-.69.54-1.55,1.2-.23.17-1.79,1.36-.24.18-1.57,1.16-.71.53-1.1.8-1.2.86-.63.45-1.69,1.18-.16.11-1.85,1.26-.33.23-1.54,1.03-.83.54-1.06.69-1.9,1.22-1.83,1.16-.08.05-1.91,1.18-.44.26-1.5.9-.94.56-1.01.59-1.46.85-.5.29-1.96,1.11h-.01s-1.97,1.1-1.97,1.1l-.53.29-1.47.78-1.05.56-.95.5-1.59.82-.42.21-2.03,1.02-.1.05-1.93.95-.64.31-1.41.67-1.17.56-.88.41-1.72.78-.35.16-2.08.93-.2.09-1.9.81-.75.32-1.35.57-1.3.53-.82.33-1.86.76-.26.09-2.13.83-.29.11-1.85.69-.86.32-1.3.46-1.42.51-.74.26-1.99.69-.17.05-2.18.73-1.77.57-.42.14-.97.3-1.23.38-.16.04-4.18,1.24-.09.02-2.22.62-.5.14-1.74.46-1.08.28-1.15.29-.24.06-2.01.49-2.26.54h-.02s-2.25.51-2.25.51l-2.28.49-1.21.26-1.08.22-1.81.35-.48.08-2.29.42-.12.02-2.19.38c-12.88,2.18-26.1,3.31-39.6,3.31-65.19,0-124.22-26.43-166.91-69.13-42.71-42.71-69.13-101.73-69.13-166.92h-58.43c0,81.31,32.98,154.94,86.26,208.22,53.28,53.3,126.9,86.27,208.21,86.27,15.54,0,30.82-1.21,45.72-3.53l2.77-.44.27-.06,3.04-.51.32-.06,2.7-.5,2.8-.54.21-.04,1.51-.3,1.49-.31,2.1-.45.9-.2.24-.06,2.73-.62,2.97-.71c3.94-.96,7.87-2,11.75-3.12l2.58-.75.33-.11,2.89-.88,2.71-.85.18-.05.81-.26,2.06-.68,1.37-.46,1.48-.51,1.93-.67.91-.33,2.48-.88.35-.13,2.81-1.05.22-.08,2.59-1,2.78-1.11,1.31-.53,1.47-.6.43-.18c2.57-1.07,5.11-2.18,7.64-3.31l.16-.07.18-.08,2.54-1.17,2.7-1.27,1.23-.59,1.45-.71,1.76-.86.91-.46,2.27-1.14.39-.2,2.64-1.38.14-.07,2.48-1.33.66-.35,1.95-1.07,1.17-.65,1.43-.8,1.66-.95.92-.53,2.15-1.26.4-.24,2.54-1.53.11-.06,2.41-1.48.61-.38,1.9-1.2,1.1-.7,1.4-.9,1.58-1.03.9-.6,2.05-1.38.4-.27,2.44-1.67.08-.05,2.35-1.65.55-.39,1.85-1.33,1.02-.74,1.36-1,1.48-1.1.89-.67,1.93-1.47.42-.31,2.34-1.82.04-.03c1.82-1.43,3.62-2.88,5.41-4.36l.1-.08,1.32-1.1,1.39-1.16.11-.09,2.13-1.82.46-.4.42-.36,2.21-1.94.03-.03,2.17-1.95.46-.42,1.72-1.56.88-.82,1.28-1.2,1.3-1.23.84-.8,1.7-1.65.41-.41,2.1-2.08.21-.21.21-.21.21-.21.21-.21.22-.22.21-.2.22-.22.21-.22.22-.22.2-.21.22-.22.15-.15.05-.06.2-.22.21-.21.21-.22.21-.23.21-.21.2-.22.22-.22.2-.22.21-.21.2-.22.21-.21.1-.11.11-.11.21-.22.2-.22.21-.22.21-.23.21-.21.2-.22.2-.22.21-.22.21-.22.21-.22.2-.22.06-.06.15-.16.21-.23.2-.22.2-.23.21-.21.2-.23.2-.22.2-.21.21-.23.2-.23.21-.22.2-.22h0l.2-.22.2-.23.2-.22.21-.22.2-.22.2-.23.2-.22.2-.23.2-.22.2-.23.2-.22.16-.18.04-.05.2-.23.2-.23.2-.23.2-.22.2-.22c12.93-14.74,24.39-30.75,34.22-47.84l1.16-2.03.46-.83.66-1.2,1.06-1.92.06-.12,1.1-2.05.51-.97.58-1.1,1.06-2.05v-.02s1.06-2.09,1.06-2.09l1.04-2.1,1.03-2.1.05-.09.96-2.02.57-1.21.42-.91.97-2.14.09-.21.86-1.92.6-1.35.35-.82.92-2.16.14-.33.77-1.83.61-1.48.28-.7.88-2.18.18-.45.69-1.75.62-1.6.22-.59.82-2.21.21-.57.6-1.65.62-1.74.16-.48.77-2.23.24-.7.52-1.55.62-1.87.11-.37.72-2.26.26-.82.44-1.44.61-2.03.07-.25.17-.58.77-2.65.38-1.34.6-2.16.03-.13.61-2.31.29-1.08.31-1.22.58-2.32h0s.55-2.34.55-2.34l.29-1.21.26-1.11.51-2.34.03-.12.48-2.23.28-1.35.21-1,.46-2.36.05-.24.4-2.12.28-1.49.15-.89.4-2.38.06-.37.58-3.64.12-.76.35-2.4.08-.5.26-1.91.23-1.77.08-.64.29-2.42.07-.63.2-1.79.21-1.92.05-.52.24-2.43.07-.77.14-1.67.17-2.06.03-.39.17-2.45.06-.91.09-1.55.12-2.2v-.27s.13-2.47.13-2.47l.04-1.04.05-1.43.07-2.35v-.13l.05-2.49.02-1.18.02-1.31v-2.49c0-73.55-27.05-140.88-71.85-192.43-6.15-7.07-12.62-13.86-19.42-20.31,16.22-38.42,39.71-73,68.74-102.03,57.97-57.98,138.11-93.85,226.61-93.85s168.64,35.87,226.61,93.85c57.98,57.98,93.85,138.11,93.85,226.61s-35.88,168.63-93.85,226.62c-57.98,57.98-138.11,93.86-226.61,93.86-83.59,0-159.69-31.99-216.74-84.4-9.19,17.53-20.09,34.04-32.5,49.29,66.62,58.23,153.82,93.54,249.24,93.54,104.61,0,199.35-42.42,267.92-110.99,68.56-68.57,110.98-163.3,110.98-267.91s-42.42-199.34-110.98-267.91ZM969.97,595.72v.88s0,1.26,0,1.26l-.02,1.25v1.24s-.03,1.25-.03,1.25l-.03,1.1v.14l-.08,2.49-.02.4-.04.84-.05,1.23-.05.95v.3s-.15,2.46-.15,2.46l-.02.26-.06.97-.09,1.23-.06.8-.04.42-.09,1.24-.1,1.22v.1s-.11,1.12-.11,1.12l-.12,1.22-.06.65-.06.57-.13,1.21-.13,1.19v.03s-.15,1.21-.15,1.21l-.15,1.21-.06.51-.09.72-.16,1.21-.14,1.03-.02.17-.18,1.21-.18,1.2-.05.36-.13.84-.2,1.2-.14.89-.05.31-.2,1.19-.21,1.19-.04.22-.18.97-.21,1.19-.15.74-.09.45-.23,1.19-.24,1.18-.02.07-.23,1.1-.25,1.19-.12.59-.13.57-.27,1.17-.25,1.11-.02.07-.27,1.17-.29,1.16-.1.46-.18.71-.28,1.17-.25.96-.06.2-.3,1.15-.31,1.15-.09.31-.23.85-.31,1.15-.24.82-.09.33-.33,1.15-.34,1.14-.05.18-.29.97-.34,1.14-.21.67-.15.46-.36,1.14-.36,1.13v.03s-.36,1.08-.36,1.08l-.38,1.13-.18.53-.2.59c-28.8-48.08-45.35-104.32-45.35-164.46,0-20.52,1.93-40.59,5.62-60.05,32.57,40.18,52.13,91.45,52.34,147.33Z"/>
      <g>
        <path class="cls-8" d="M1719.07,565.04c-.42-2.78.13-5.43.35-7.63.64-5.64,1.49-9.02,3-9.78,59.41-6.2,116.18-57.99,177.7-26.63l-5.6,16.8-2.28,7.38-25.24,83.47,36.13,100.25,3.53,10.02,6.21,17.06c-58.76-23.8-113.75,20.02-170.49,30.55-3.98.21-7.38-2.85-7.59-6.84,0-.18-.01-.36,0-.55-6.94-79.73-17.07-175.35-15.71-214.11Z"/>
        <path class="cls-7" d="M1742.82,773.21h0c18.35-4.23,36.31-10,53.7-17.25,19.71-8.43,40.27-14.68,61.33-18.66,3.89-.79,7.82-1.38,11.78-1.76,12.45-1.18,25.01-.03,37.03,3.38l-3.53-10.02c-11.12-2.32-22.53-2.99-33.85-1.96-3.95.39-7.88.98-11.78,1.76-21.24,3.99-41.98,10.27-61.86,18.74-17.38,6.87-35.31,12.27-53.59,16.15-1.19.18-1.8,2.43-1.58,4.84.22,2.4.65,4.37,2.24,4.13l.1.66Z"/>
        <path class="cls-4" d="M1892.02,545.48l2.28-7.38c-11.98-8.48-26.2-13.22-40.87-13.63-3.51.32-7,.84-10.45,1.57-19.45,3.73-38.45,9.52-56.67,17.28-15.91,6.22-32.38,10.86-49.2,13.87-5.73,1-11.58,1.19-17.37.57l-.79.12c-.98,1.07-1.41,2.53-1.16,3.96-.17,1.26.02,2.55.56,3.7.25.54.7.96,1.26,1.16,5.92.54,11.89.29,17.74-.76,17.01-2.95,33.67-7.62,49.73-13.94,18.1-7.7,36.97-13.43,56.29-17.09,3.44-.52,6.88-1.03,10.32-1.55,13.67.31,26.98,4.51,38.34,12.11Z"/>
        <path class="cls-5" d="M1803.57,616.1l53.36,96.99s-105.99,20.35-117.97,46.09c-11.97,25.74,7.35,22.85,7.35,22.85,0,0-16.03,19.45-20.88-26.5-4.86-45.95,4.65-149.51,4.65-149.51l73.49,10.09Z"/>
        <path class="cls-3" d="M699.94,783.49l3.93-17.09c.64-2.94,1.42-5.89,2.08-8.7,4.11-18.61,7.98-37.05,12.58-56,.95-4.47,1.93-8.81,3.03-13.17l1.95-8.68,33.39-145.57c.64-2.94,1.17-5.72,1.97-8.55.79-2.82,1.69-7.69,2.61-11.48,33.38,21.91,70.05,38.33,108.62,48.66,307.74,80.11,589.6-308.73,904.22-105.05l4.36,12.87,4.36,12.87c7.55,21.46,15.09,42.93,23.14,64.18.44,2.91,2.06,5.64,3.03,8.48l43.41,124.46c1.39,3.85,2.8,7.83,4.05,11.7,3.22,8.85,6.18,17.74,9.4,26.6-404.92-261.86-761.91,326.16-1166.13,64.47Z"/>
        <path class="cls-2" d="M994.93,833.59c95.67-14.33,191.07-55.69,283.39-95.09,92.32-39.4,190.69-81.74,288.2-96.35,15.48-2.32,30.96-4.64,46.63-4.82,84.23-1.8,167.62,17.11,242.84,55.07-1.26-3.87-2.66-7.85-4.05-11.7-74.3-35.98-156.07-53.82-238.6-52.05-15.83.88-31.54,2.56-47.16,4.9-98.44,14.75-195.44,56.34-289.77,96.72-92.41,39.69-187.63,80.47-282.5,94.69-14.82,2.22-29.61,3.76-44.36,4.62-86.72,2.35-171.97-22.75-243.58-71.73-.66,2.8-1.44,5.76-2.08,8.7,72.55,48.94,158.62,73.89,246.09,71.36,15.02-.9,29.94-2.46,44.89-4.7l.06.4Z"/>
        <path class="cls-6" d="M1782.96,483.09l-4.36-12.87c-68.4-38.46-156.89-61.99-221.56-58.39-13.41.79-25.93,2.13-38.89,4.07-82.96,12.43-165.98,48-246.58,82.54-80.6,34.53-165.23,71.03-250.84,83.85-13.23,1.98-26.46,3.97-39.97,4.1-68.43,3.76-148.85-18.28-220.84-60.8h0c-.79,2.82-1.32,5.61-1.97,8.55,72.9,43.19,154.39,65.21,223.73,61.18,13.41-.79,26.74-2.11,41.16-4.27,85.87-12.87,170.28-49.05,252.26-84.34,81.97-35.28,162.84-69.86,244.74-82.13,13.23-1.98,25.54-3.83,38.37-3.99,65.88-3.65,156.92,21.54,225.71,61.69l-.96.82Z"/>
      </g>
      <g>
        <path d="M897.85,775.17c4.32-6.39,9.38-13.72,15.17-22.02,5.79-8.29,11.76-16.72,17.93-25.28,6.17-8.56,11.88-16.38,17.16-23.48,5.27-7.09,9.46-12.54,12.57-16.35-2.46,1.77-5.1,3.57-7.93,5.41-2.83,1.84-5.28,3.47-7.36,4.87-2.63,1.57-5.52,2.8-8.67,3.68-3.15.88-5.82,1.41-8.02,1.59-2.2.18-3.28-.02-3.25-.58,6.53-3.08,13.44-7.07,20.7-12,7.27-4.92,14.59-10.03,21.96-15.33l7.07-4.74c2.83-1.93,5.18-3.28,7.04-4.04,1.86-.76,3.52-1.19,4.99-1.31,1.82.09,1.99,1.28.51,3.56-1.48,2.29-3.48,4.97-6,8.05-9.56,12.73-18.18,24.75-25.84,36.06-7.67,11.32-14.96,22.36-21.87,33.14l-7.1,10.96c-4.52,6.56-8.7,11.03-12.56,13.38-3.86,2.36-9,3.85-15.41,4.48l-1.09-.05Z"/>
        <path d="M974.51,776.91c-3.25.45-6.1.46-8.55.04-2.45-.42-3.97-1.44-4.56-3.07,1.11.04,2.16-.01,3.15-.15,1-.14,1.94-.27,2.84-.39,8.3-1.15,15.66-4.21,22.06-9.19,6.39-4.97,12.2-11.19,17.43-18.66,5.22-7.47,10-15.5,14.33-24.08-3.07,3.09-5.9,5.19-8.51,6.31-2.6,1.12-4.9,1.82-6.89,2.09-5.42.75-9.81-.35-13.16-3.31-3.36-2.96-5.4-7.04-6.12-12.26-.78-5.59-.26-11.51,1.54-17.74,1.8-6.23,4.56-12.22,8.28-17.96,3.71-5.74,8.01-10.56,12.9-14.47,4.88-3.91,10.04-6.24,15.46-6.99,10.47-1.45,17.06,2.96,19.77,13.22,1.09,5.17,1.11,11.3.06,18.38-1.05,7.08-2.84,14.36-5.39,21.84-2.55,7.48-5.61,14.32-9.16,20.51-4.82,9.03-10.46,16.84-16.9,23.44-6.45,6.59-13.05,11.78-19.79,15.57-6.74,3.78-13.01,6.08-18.78,6.88ZM1006.54,725.15c4.15-.58,7.84-2.18,11.07-4.81,3.23-2.63,5.95-5.91,8.16-9.83,3.38-6.17,5.67-13.18,6.89-21.05,1.21-7.86,1.36-15.06.46-21.58-.88-6.34-3.4-9.22-7.55-8.65-3.25.45-6.6,2.82-10.06,7.09-3.46,4.28-6.6,9.47-9.44,15.56-2.84,6.09-4.99,12.14-6.46,18.14-1.47,6-1.91,11.14-1.31,15.43.42,2.99,1.3,5.43,2.67,7.33,1.37,1.9,3.22,2.69,5.57,2.36Z"/>
        <path d="M1063.06,763.18c-3.14.95-5.95,1.4-8.44,1.37-2.49-.04-4.15-.81-4.99-2.33,1.1-.13,2.14-.35,3.09-.64.96-.29,1.88-.57,2.75-.83,8.02-2.42,14.81-6.59,20.36-12.5,5.55-5.9,10.32-12.95,14.32-21.14,4-8.18,7.48-16.86,10.42-26.01-2.55,3.53-5.03,6.05-7.43,7.56-2.4,1.51-4.56,2.56-6.48,3.14-5.24,1.58-9.74,1.17-13.51-1.23-3.78-2.4-6.42-6.12-7.94-11.17-1.64-5.41-2.05-11.33-1.23-17.77.82-6.44,2.61-12.78,5.39-19.03,2.78-6.25,6.28-11.68,10.5-16.3,4.22-4.62,8.95-7.72,14.19-9.3,10.12-3.06,17.32.27,21.59,9.99,1.87,4.94,2.84,10.99,2.91,18.15.07,7.16-.58,14.63-1.94,22.41s-3.32,15.01-5.87,21.68c-3.36,9.67-7.72,18.26-13.06,25.78-5.35,7.52-11.06,13.67-17.13,18.45-6.08,4.79-11.91,8.02-17.49,9.71ZM1086.67,707.08c4.01-1.21,7.41-3.37,10.19-6.47,2.78-3.1,4.96-6.76,6.54-10.97,2.38-6.62,3.56-13.91,3.54-21.86-.03-7.96-.99-15.09-2.9-21.39-1.85-6.12-4.78-8.58-8.8-7.37-3.14.95-6.09,3.81-8.84,8.57-2.75,4.77-5.06,10.38-6.91,16.84-1.86,6.46-3.05,12.77-3.57,18.92-.52,6.16-.15,11.31,1.1,15.45.87,2.88,2.13,5.16,3.78,6.82,1.65,1.67,3.6,2.16,5.87,1.47Z"/>
        <path d="M1153.35,731.52c-8.48,3.35-14.86-.4-19.15-11.26-2.01-5.08-3.18-11.39-3.52-18.95-.34-7.56,0-15.48,1.04-23.79,1.03-8.3,2.54-15.88,4.54-22.74,3.09-10.53,7.18-19.53,12.27-27.01,5.08-7.47,10.52-13.56,16.3-18.28,5.78-4.71,11.3-8.11,16.56-10.18,2.54-1.01,4.84-1.51,6.9-1.51,2.06,0,3.45.66,4.17,2-.92.16-1.84.43-2.77.79-.93.37-1.82.72-2.67,1.05-7.97,3.15-14.61,8.05-19.92,14.7-5.31,6.65-9.63,14.33-12.96,23.03-3.32,8.7-5.96,17.79-7.9,27.26-.98,5.45-1.64,11.73-1.97,18.84-.33,7.11-.32,13.84.03,20.18.35,6.34,1.04,11.33,2.09,14.96.9,2.28,1.92,4,3.07,5.16,1.15,1.17,2.57,1.41,4.26.74,3.32-1.51,6.2-4.77,8.63-9.78,2.43-5.01,4.44-10.45,6.04-16.35,1.59-5.89,2.75-10.9,3.47-15.03,1.18-6.94,1.72-12.77,1.62-17.49-.1-4.71-.7-8.47-1.81-11.28-1.93-4.9-4.86-6.58-8.75-5.04-2.54,1.01-4.94,2.76-7.18,5.27-2.24,2.51-3.77,4.73-4.57,6.66-.67,1.28-1.47,1.49-2.39.64l-.1-.26c-.35-.87-.05-2.1.9-3.69,1.1-2.66,3.05-5.3,5.84-7.92,2.79-2.62,5.54-4.46,8.25-5.54,1.19-.47,2.07-.71,2.65-.74,3.53-.99,6.81-.51,9.83,1.43,3.02,1.95,5.33,4.93,6.92,8.96,1.18,2.98,1.89,6.54,2.16,10.68.26,4.15-.2,8.68-1.39,13.6-1.55,7.49-3.86,14.78-6.95,21.87-3.08,7.09-6.67,13.26-10.77,18.52-4.09,5.26-8.35,8.76-12.75,10.5Z"/>
        <path d="M1207.12,644.23l1.78-7.55,46.87-20.44-1.78,7.55-46.87,20.45Z"/>
        <path d="M1320.3,659.87c-2.35,1.01-4.7,1.76-7.06,2.27-2.37.51-4.83,1-7.4,1.49-2.74.56-5.54,1.21-8.4,1.93-2.86.72-5.8,1.73-8.82,3.03-1.85.79-3.76,1.77-5.73,2.93-1.99,1.16-3.91,2.56-5.79,4.18l.25-.11c-.26.32-.64.58-1.14.8-1.34.58-2.27.26-2.79-.95-.67-1.56.16-3.55,2.48-5.99.19-.49.41-.89.67-1.21.26-.31.52-.63.78-.95l6.56-8.97,11.83-16.78c2.73-4.25,5.67-9.31,8.81-15.16,3.13-5.86,5.86-11.64,8.16-17.35l-.25.11c1.41-4.09,3.02-9.34,4.83-15.76,1.8-6.41,3.04-12.88,3.7-19.42.66-6.53.03-12.05-1.91-16.54-.97-2.25-2.36-3.85-4.16-4.82-1.8-.96-3.96-.91-6.47.17-4.02,1.73-7.57,4.44-10.65,8.12-3.08,3.68-5.51,7.6-7.29,11.75-1.78,4.15-2.88,8.06-3.29,11.72l-.17.99c-.47,1.23-1.2,2.05-2.21,2.49-1.51.65-2.48.45-2.93-.58.5-7.59,2.25-14.24,5.26-19.94,3-5.7,6.62-10.43,10.86-14.2,4.23-3.77,8.27-6.48,12.13-8.14,5.18-2.23,9.8-3.04,13.84-2.42,4.03.62,7.1,3.35,9.18,8.19,2.23,5.19,2.84,11.07,1.8,17.67-1.03,6.59-2.75,12.97-5.16,19.13-2.41,6.16-4.49,11.36-6.24,15.6l-1.9,3.89c-4.91,10.72-10.65,21.14-17.22,31.24-6.57,10.1-13.15,19.24-19.76,27.41,2.2-1.35,4.49-2.6,6.88-3.73,2.39-1.13,4.93-2.27,7.61-3.43,6.28-2.91,12.32-6.18,18.11-9.8,5.78-3.62,10.07-9.1,12.86-16.45l.56-1.47c.39-1.4.8-2.75,1.23-4.06.43-1.31.9-2.07,1.4-2.29.67-.29,1.33.56,1.98,2.53,1.06,3.85,1.37,7.92.94,12.2-.44,4.29-2.23,8.54-5.37,12.76-1.4,1.83-3,3.4-4.83,4.69-1.83,1.29-3.74,2.38-5.75,3.24Z"/>
        <path d="M1371.71,638.08c-8.86,3.38-15.13.23-18.82-9.45-.53-1.41-1.04-2.98-1.5-4.71-.47-1.73-.87-3.55-1.19-5.44-1.88-9.55-2.07-19.76-.54-30.61,1.52-10.85,3.75-20.87,6.69-30.05,3.61-12.05,8.39-22.03,14.35-29.94,5.96-7.91,11.41-12.81,16.35-14.69,4.25-1.62,8-1.79,11.22-.5,3.22,1.29,5.81,4.49,7.75,9.59,2.21,5.8,3.34,13.13,3.4,21.97.05,8.85-.81,18.24-2.58,28.18-1.77,9.94-4.34,19.48-7.68,28.61-3.35,9.13-7.36,17.06-12.02,23.76-4.66,6.71-9.8,11.14-15.42,13.28ZM1371.39,633.38c3.16-.4,6.25-4.34,9.24-11.83,3-7.49,6.44-18.92,10.34-34.31.93-3.17,1.9-8.07,2.88-14.7.99-6.62,1.72-13.54,2.19-20.77.47-7.23.51-13.38.13-18.48-.29-2.3-.56-4.42-.81-6.34-.25-1.92-.6-3.5-1.07-4.73-1.54-4.05-3.59-5.58-6.15-4.61-2.22.84-4.5,3.83-6.83,8.95-2.34,5.12-4.57,11.31-6.68,18.56-2.11,7.25-4.11,14.56-5.99,21.92-1.88,8.37-3.16,17.57-3.83,27.59-.67,10.03-.82,18.59-.45,25.7.35,3.49.9,6.2,1.64,8.14,1.54,4.05,3.33,5.68,5.38,4.9Z"/>
        <path d="M1466.83,605.26c-2.45.7-4.89,1.15-7.29,1.36-2.41.2-4.92.38-7.52.54-2.78.21-5.65.5-8.57.84-2.93.36-5.98.98-9.14,1.89-1.93.55-3.95,1.28-6.06,2.18-2.11.9-4.2,2.04-6.27,3.42l.26-.08c-.3.28-.71.5-1.24.65-1.4.4-2.29-.03-2.65-1.3-.47-1.63.61-3.5,3.22-5.62.25-.46.52-.83.82-1.12.3-.28.59-.56.9-.84l7.64-8.07,13.87-15.14c3.25-3.87,6.8-8.51,10.65-13.92,3.85-5.41,7.28-10.8,10.3-16.17l-.26.08c1.92-3.88,4.18-8.88,6.79-15.02,2.61-6.13,4.64-12.39,6.13-18.8,1.48-6.39,1.55-11.95.2-16.65-.67-2.35-1.85-4.12-3.51-5.31-1.67-1.18-3.82-1.4-6.45-.65-4.2,1.21-8.07,3.44-11.59,6.7-3.52,3.26-6.43,6.84-8.73,10.73-2.3,3.89-3.88,7.63-4.75,11.2l-.29.97c-.62,1.16-1.45,1.88-2.5,2.19-1.58.45-2.53.14-2.83-.95,1.46-7.47,4.04-13.83,7.74-19.11,3.7-5.27,7.9-9.51,12.57-12.71,4.68-3.2,9.03-5.38,13.06-6.54,5.43-1.56,10.11-1.77,14.04-.65,3.93,1.13,6.62,4.22,8.07,9.29,1.56,5.43,1.41,11.35-.45,17.75-1.86,6.41-4.37,12.52-7.54,18.32-3.17,5.81-5.89,10.7-8.17,14.68l-2.38,3.62c-6.23,10.01-13.25,19.62-21.04,28.8-7.8,9.19-15.49,17.42-23.08,24.68,2.35-1.06,4.78-2,7.3-2.83,2.51-.82,5.17-1.63,7.98-2.43,6.6-2.09,13.01-4.56,19.2-7.42,6.2-2.85,11.15-7.75,14.85-14.69l.74-1.39c.56-1.34,1.14-2.63,1.73-3.88.59-1.24,1.15-1.95,1.67-2.1.7-.2,1.25.72,1.65,2.76.56,3.95.35,8.03-.62,12.22-.98,4.2-3.3,8.19-6.95,11.98-1.62,1.64-3.41,2.99-5.38,4.04-1.98,1.05-4.01,1.89-6.11,2.49Z"/>
        <path d="M1517.98,594.33c-9,1.44-14.42-3.6-16.26-15.13-.86-5.39-.64-11.81.66-19.26,1.3-7.45,3.35-15.12,6.16-23,2.8-7.88,5.92-14.96,9.35-21.22,5.29-9.61,11.23-17.52,17.82-23.72,6.58-6.2,13.2-10.97,19.86-14.32,6.67-3.35,12.79-5.47,18.37-6.36,2.7-.43,5.05-.42,7.06.02,2.01.44,3.22,1.39,3.64,2.85-.93-.04-1.89.02-2.88.17-.99.16-1.93.31-2.83.45-8.46,1.35-16.01,4.7-22.63,10.04-6.62,5.35-12.5,11.91-17.63,19.68-5.13,7.78-9.67,16.08-13.61,24.9-2.14,5.11-4.14,11.1-5.99,17.97-1.86,6.87-3.31,13.44-4.33,19.71-1.03,6.27-1.43,11.29-1.2,15.06.38,2.42,1.01,4.32,1.88,5.7.87,1.39,2.2,1.94,4,1.65,3.57-.76,7.08-3.32,10.54-7.69,3.46-4.36,6.6-9.25,9.43-14.66,2.83-5.41,5.04-10.05,6.64-13.93,2.65-6.52,4.44-12.1,5.36-16.72.92-4.62,1.15-8.43.67-11.4-.83-5.2-3.32-7.48-7.45-6.82-2.7.43-5.42,1.63-8.15,3.59-2.73,1.96-4.7,3.8-5.9,5.52-.93,1.1-1.75,1.14-2.48.11l-.04-.28c-.15-.93.41-2.06,1.67-3.41,1.65-2.36,4.12-4.52,7.41-6.47,3.29-1.95,6.37-3.16,9.25-3.62,1.26-.2,2.18-.25,2.75-.15,3.66-.2,6.75.97,9.28,3.52,2.53,2.55,4.14,5.96,4.82,10.24.51,3.16.43,6.79-.2,10.9-.64,4.1-2.07,8.43-4.3,12.98-3.14,6.98-6.97,13.6-11.51,19.85-4.54,6.25-9.38,11.5-14.51,15.75-5.14,4.25-10.05,6.75-14.73,7.5Z"/>
      </g>
    </g>
    <g>
      <path class="cls-11" d="M2191.34,876.63c0,1.57-.39,3.15-.79,4.72-.39,1.57-.79,2.76-1.97,3.94-.39.79-1.57,1.57-2.36,1.57-1.57-.39-3.15-1.18-3.94-2.36-1.97-1.97-3.94-3.54-6.3-5.12-13.78-8.66-30.7-9.84-45.66-3.54-5.9,2.76-11.02,6.3-15.74,10.63-4.72,4.72-9.05,9.84-12.6,15.35-3.54,5.9-6.69,12.2-9.05,18.5-2.36,6.3-4.33,12.99-5.51,19.68-1.18,6.3-1.57,12.6-1.97,18.89,0,6.3.79,12.6,2.76,18.5,1.57,5.12,3.94,9.84,7.48,13.78,3.15,3.54,7.08,6.69,11.81,8.66,5.12,1.97,10.63,3.15,16.14,3.15s11.41-.79,16.93-2.36c4.33-1.18,8.27-3.15,12.2-5.12,2.76-1.57,5.9-3.15,8.66-5.12,1.57-1.18,3.54-1.97,5.51-2.36.79,0,1.18.39,1.57.79.39.79.79,1.57.79,2.76v1.57c0,.39,0,1.18-.39,1.57-.39.39-.39,1.18-.39,1.97s-.39,1.18-.79,1.97c-.39.79-.39,1.18-.79,1.97-.39.79-1.18,1.57-1.57,1.97-1.57,1.18-3.54,2.36-5.12,3.54-3.15,1.97-6.69,3.54-9.84,4.72-4.33,1.57-8.66,3.15-13.38,3.94-5.12,1.18-10.63,1.57-15.74,1.57-7.08,0-14.17-1.18-21.25-3.54-5.9-2.36-11.41-5.9-16.14-11.02-4.72-5.12-8.27-11.02-10.23-17.71-2.36-7.87-3.94-15.74-3.54-24.01,0-16.14,3.15-31.88,9.45-46.45,3.15-7.48,7.08-14.56,11.81-21.25,4.33-6.3,9.84-12.2,15.74-17.32,5.9-5.12,12.99-9.05,20.07-11.81,7.87-2.76,16.14-4.33,24.4-4.33,5.51,0,11.02.79,16.53,1.97,4.33,1.18,8.66,2.76,12.99,5.12,2.76,1.57,5.51,3.15,7.87,5.51,1.57,1.57,2.36,3.54,2.36,5.12Z"/>
      <path class="cls-11" d="M2276.36,1012.42c0,.39-.39.79-.39,1.18-.39.39-.79.79-1.18.79-.79.39-1.57.39-1.97.39-1.18,0-1.97.39-3.15.39s-1.97,0-3.15-.39c-.79,0-1.18-.39-1.97-.39-.79-.39-1.18-1.57-.79-2.36l3.94-21.65c-1.18,3.15-3.15,5.9-5.51,8.66-2.76,3.15-5.9,5.9-9.45,8.66-3.94,2.76-7.87,4.72-12.2,6.3-4.33,1.57-9.05,2.76-13.78,2.76s-9.05-.79-13.38-1.97c-3.15-1.18-6.3-3.15-8.66-5.9-2.36-2.76-3.94-5.51-4.72-9.05-.79-3.54-1.57-7.48-1.57-11.41,0-2.76,0-5.12.39-7.87.39-2.76.79-5.51,1.18-8.27l13.38-67.7c0-.39.39-.79.79-1.18s.79-.79,1.18-1.18c.79-.39,1.57-.39,2.36-.39h6.69c.79,0,1.57.39,1.97.39.39.39.79.39.79,1.18v1.18l-12.99,67.7c-.39,2.36-.79,4.72-1.18,7.08-.39,2.36-.39,5.12-.39,7.48s.39,4.72.79,7.08c.39,1.97,1.18,3.94,2.76,5.9,1.18,1.57,2.76,3.15,4.72,3.94,2.36.79,4.72,1.18,7.08,1.18,5.12,0,9.84-1.57,14.56-3.94,5.12-2.76,9.45-6.3,13.38-11.02,4.33-5.12,8.27-10.63,11.02-16.53,3.15-6.69,5.9-13.78,7.08-20.86l9.45-48.02c0-.39.39-.79.79-1.18s.79-.79,1.18-1.18c.79-.39,1.57-.39,2.36-.39h7.08c.79,0,1.57.39,1.97.39.39.39.79.39.79,1.18v1.18l-21.25,107.85Z"/>
      <path class="cls-11" d="M2414.12,925.83c0,5.12-1.18,9.84-3.94,14.17-2.76,4.72-7.08,8.27-11.81,11.02-6.69,3.54-13.38,5.9-20.86,7.08-9.84,1.97-20.07,2.76-30.31,2.36h-13.78c-.39,3.15-.79,5.9-1.18,8.66-.39,2.76-.39,5.51-.39,7.87-.39,7.48,1.97,14.56,6.3,20.07,4.33,4.72,11.02,7.08,20.86,7.08,4.33,0,9.05-.39,13.38-1.18,3.54-.79,7.08-1.57,10.23-2.36,2.36-.79,4.72-1.57,7.08-2.36,1.18-.39,2.36-.79,3.54-1.18.39,0,1.18.39,1.18.79.39.79.39,1.18.39,1.97v1.97c0,.79-.39,1.57-.39,2.36-.39.79-.39,1.57-.79,2.36-.39.79-.79,1.57-1.57,1.97-1.57,1.18-3.15,2.36-4.72,2.76-2.76,1.18-5.51,1.97-8.27,2.36-3.15.79-6.69,1.18-10.23,1.97-3.54.39-7.48.79-11.02.79-5.9,0-12.2-.79-17.71-2.36-4.72-1.57-9.05-3.94-12.6-7.48-3.54-3.54-5.9-7.48-7.48-12.2-1.97-5.51-2.76-11.41-2.36-16.93,0-5.51.39-11.02,1.57-16.53,1.18-5.9,2.76-11.81,4.72-17.32,1.97-5.9,4.72-11.41,8.27-16.53,3.15-5.12,7.08-9.84,11.81-13.78,4.72-3.94,9.84-7.48,15.74-9.45,6.69-2.36,13.38-3.94,20.47-3.54,5.51,0,10.63.79,15.74,2.36,3.94,1.57,7.48,3.54,10.63,6.3,2.76,2.36,4.72,5.12,5.9,8.27.39,2.75,1.18,5.51,1.57,8.66ZM2399.17,927.4c0-4.33-1.97-8.27-5.51-11.02-4.33-2.76-9.84-4.33-14.96-3.94-5.12,0-10.63.79-15.35,3.15-4.33,1.97-8.27,4.72-11.81,7.87-3.54,3.54-6.3,7.48-8.66,11.81-2.36,4.33-4.33,9.05-5.9,13.78h13.38c7.87,0,15.74-.39,23.62-1.57,5.12-.79,10.23-2.36,14.96-4.72,3.15-1.57,5.9-3.94,7.87-7.08,1.57-2.36,2.36-5.12,2.36-8.27Z"/>
      <path class="cls-11" d="M2530.24,928.58c0,2.76,0,5.51-.39,8.27-.39,2.76-.79,5.51-1.18,8.27l-13.38,67.7c0,.39-.39.79-.79,1.18-.39.39-.79.79-1.18.79-.79.39-1.57.39-2.36.39-1.18,0-2.36.39-3.54.39s-2.36,0-3.54-.39c-.79,0-1.18-.39-1.97-.39-.39,0-.79-.39-.79-.79v-1.18l13.38-67.7c.39-2.76.79-5.51,1.18-7.87.39-2.36.39-4.72.39-6.3.39-4.72-1.18-9.45-3.54-13.38-2.76-3.54-7.48-5.51-11.81-5.12-5.12,0-10.23,1.57-14.56,3.94-5.12,2.76-9.84,6.69-13.38,11.02-4.33,5.12-8.27,10.63-11.02,16.53-3.15,6.69-5.9,13.78-7.08,21.25l-9.45,47.63c0,.39-.39.79-.79,1.18-.39.39-.79.79-1.18.79-.79.39-1.57.39-2.36.39-1.18,0-2.36.39-3.54.39s-2.36,0-3.54-.39c-.79,0-1.18-.39-1.97-.39-.39,0-.79-.39-1.18-.79-.39-.39-.39-.79,0-1.18l21.65-107.85c0-.39.39-.79.39-1.18.39-.39.79-.79,1.18-1.18.79-.39,1.57-.39,1.97-.39h6.3c.79,0,1.18.39,1.97.39.39.39.79.79.79,1.18v1.18l-4.33,22.04c1.18-3.15,3.15-5.9,5.51-8.66,2.76-3.15,5.9-6.3,9.45-8.66,3.94-2.76,8.27-5.12,12.6-6.69,4.72-1.57,9.45-2.76,14.56-2.76,4.33,0,9.05.79,12.99,2.36,3.15,1.57,6.3,3.54,8.27,6.3,1.97,2.76,3.54,5.9,4.72,9.05,1.18,3.54,1.57,7.08,1.57,10.63Z"/>
      <path class="cls-11" d="M2625.1,906.15v1.97c0,.79-.39,1.18-.39,1.97-.39.79-.39,1.18-.79,1.57-.39.39-.79.79-1.18,1.57-.39.39-.79.79-1.18.79-.39.39-1.18.39-1.57.39h-29.91l-12.99,65.34c-.39,1.97-.79,3.94-.79,6.3-.39,1.97-.39,3.94-.39,5.9-.39,3.54.79,7.08,2.76,9.84,2.36,2.36,5.51,3.54,9.05,3.15,1.97,0,3.94,0,5.9-.39,1.57-.39,3.15-.79,4.33-1.18l3.15-1.18c.79-.39,1.57-.39,2.36-.39.39,0,1.18,0,1.57.39.39.79.79,1.57.39,1.97,0,.79,0,1.57-.39,2.36,0,.79-.39,1.57-.39,2.36-.39.79-.39,1.57-.79,2.36-.39.79-.79,1.18-1.18,1.57-.79.79-1.57,1.18-2.76,1.57-1.18.39-2.76.79-3.94,1.18-1.57.39-3.15.79-4.72.79-1.57.39-3.15.39-4.72.39-3.54,0-7.48-.39-11.02-1.18-2.76-.79-5.51-2.36-7.87-4.33-1.97-1.97-3.54-4.72-4.72-7.48-1.18-3.54-1.57-7.08-1.57-10.63v-3.15c0-1.18.39-2.36.39-3.54l.39-3.54c.39-1.18.39-2.36.79-3.54l12.99-64.95h-16.14c-.79,0-1.18,0-1.97-.79-.39-.79-.79-1.57-.79-2.76s0-1.97.39-3.15c0-.79.39-1.97.79-2.76.39-.79.79-1.57,1.57-1.97.79-.39,1.57-.79,2.36-.79h16.14l5.51-26.37c0-.39.39-.79.79-1.18.39-.39.79-.79,1.18-1.18.79-.39,1.57-.39,2.36-.39h7.08c.79,0,1.57.39,1.97.39.39.39.79.39.79,1.18v1.18l-5.12,26.37h29.91c.79,0,1.97.39,2.36,1.18-.39.79-.39,1.57,0,2.75Z"/>
      <path class="cls-11" d="M2712.08,1012.42c-.39,1.18-.79,1.97-1.97,2.36-1.57.39-3.54.79-5.12.79h-3.15c-.79,0-1.18-.39-1.97-.39-.39,0-.79-.39-.79-.79v-1.57l4.33-22.04c-1.18,3.15-3.15,5.9-5.51,8.66-2.76,3.15-6.3,6.3-9.84,8.66-3.94,2.76-8.27,5.12-12.6,6.69-4.33,1.97-9.05,2.76-14.17,2.76-5.51,0-11.02-.79-15.74-3.54-3.94-1.97-7.48-5.12-9.84-8.66-2.36-3.54-3.94-7.87-4.72-12.2-.79-4.33-1.18-9.05-1.18-13.38,0-4.72.39-9.84,1.18-14.56.79-5.9,1.97-11.41,3.94-16.93,1.97-5.9,4.33-11.81,7.08-17.32,2.76-5.51,6.3-10.63,10.63-15.35,4.33-4.33,9.05-8.27,14.56-11.02,5.9-2.76,12.2-3.94,18.89-3.94,6.3-.39,12.99,1.18,18.5,4.33,5.12,3.15,9.84,7.08,13.38,11.81l2.36-11.81c.39-1.18,1.18-1.97,1.97-2.36,1.57-.39,3.54-.79,5.12-.79h3.15c.79,0,1.18.39,1.97.39.39.39.79.79.79,1.18v1.18l-21.25,107.85ZM2714.45,930.94c-3.54-5.51-8.27-10.23-13.78-13.78-4.72-3.15-10.23-4.72-16.14-4.72-4.72,0-9.05,1.18-12.99,3.54-3.94,2.36-7.48,5.51-10.23,9.05-3.15,3.94-5.51,8.27-7.48,12.6-1.97,4.72-3.94,9.45-5.12,14.17-1.18,4.72-2.36,9.45-3.15,14.17-.39,3.94-.79,8.27-.79,12.2,0,3.15.39,6.3.79,9.05.39,3.15,1.57,5.9,2.76,8.66,1.57,2.36,3.54,4.72,5.9,6.3,2.76,1.57,6.3,2.76,9.45,2.36,5.12,0,9.84-1.57,14.56-3.94,5.12-2.76,9.84-6.3,13.38-11.02,4.33-5.12,8.27-10.63,11.02-16.53,3.15-6.69,5.9-13.78,7.08-21.25l4.72-20.86Z"/>
      <path class="cls-11" d="M2829.77,911.26c0,.79,0,1.57-.39,2.36-.39.79-.39,1.97-.79,2.76-.39.79-.79,1.57-1.57,2.36-.39.39-.79.79-1.57.79-1.18,0-2.36-.39-3.15-1.18-1.18-.79-2.76-1.57-4.72-2.76-1.97-1.18-4.33-1.97-6.69-2.76-3.15-.79-6.3-1.18-9.45-1.18-3.54,0-7.08.39-10.23,1.57-2.76,1.18-5.51,2.76-7.48,4.72-3.94,3.54-6.3,9.05-6.3,14.17,0,3.15,1.18,6.3,3.15,8.66,2.36,2.36,5.12,4.72,8.27,6.3,3.15,1.97,6.69,3.54,10.63,5.12,3.54,1.57,7.08,3.54,10.63,5.9,3.15,2.36,5.9,5.12,8.27,8.27,2.36,3.54,3.54,7.87,3.15,12.2,0,5.12-1.18,10.23-3.15,14.96-1.97,4.72-5.12,8.66-9.05,11.81-4.33,3.54-9.05,6.3-14.17,7.87-5.9,1.97-12.2,2.76-18.5,2.76-3.54,0-7.08-.39-10.23-.79-3.15-.39-5.9-1.18-8.66-1.97-2.36-.79-4.72-1.57-6.69-3.15-1.57-.79-3.15-1.97-4.33-3.15-.39-.39-1.18-1.18-1.18-1.97-.39-.79-.39-1.57-.39-2.36v-1.97c0-.79.39-1.57.39-1.97.39-.79.39-1.57.79-1.97.39-.79.39-1.18.79-1.57.39-.39.79-.79,1.18-1.18.39-.39.79-.39,1.18-.39,1.18,0,2.36.79,3.54,1.57,1.57,1.18,3.54,2.36,5.12,3.54,2.76,1.57,5.51,2.76,8.27,3.54,8.27,2.36,16.93,2.36,25.19,0,3.15-1.18,6.3-2.76,8.66-5.12,2.36-1.97,3.94-4.33,5.12-7.08,1.18-2.76,1.57-5.51,1.57-8.66s-1.18-6.3-3.15-9.05c-2.36-2.36-5.12-4.72-8.27-6.3-3.54-1.97-7.08-3.54-10.63-5.12-3.54-1.57-7.08-3.54-10.63-5.9-3.15-2.36-5.9-5.12-7.87-8.27-2.36-3.54-3.54-7.87-3.15-12.2,0-4.72.79-9.84,3.15-14.17,1.97-4.33,4.72-7.87,8.27-11.02,3.94-3.15,8.27-5.51,12.99-7.08,5.12-1.57,10.63-2.76,16.14-2.36,5.51,0,10.63.79,15.74,2.36,1.97.79,3.94,1.57,5.9,2.36,1.57.79,2.76,1.57,3.94,2.76.39,1.57.79,2.76.39,3.94Z"/>
      <path class="cls-11" d="M3028.54,876.63c0,1.57-.39,3.15-.79,4.72-.39,1.57-.79,2.76-1.97,3.94-.39.79-1.57,1.57-2.36,1.57-1.57-.39-3.15-1.18-3.94-2.36-1.97-1.97-3.94-3.54-6.3-5.12-13.78-8.27-30.7-9.84-45.66-3.54-5.9,2.76-11.02,6.3-15.74,10.63-4.72,4.72-9.05,9.84-12.6,15.35-3.54,5.9-6.69,12.2-9.05,18.5-2.36,6.3-4.33,12.99-5.51,19.68-1.18,6.3-1.57,12.6-1.97,18.89,0,6.3.79,12.6,2.76,18.5,1.57,5.12,3.94,9.84,7.48,13.78,3.15,3.54,7.08,6.69,11.81,8.66,5.12,1.97,10.63,3.15,16.14,3.15s11.41-.79,16.93-2.36c4.33-1.18,8.27-3.15,12.2-5.12,2.76-1.57,5.9-3.15,8.66-5.12,1.57-1.18,3.54-1.97,5.51-2.36.79,0,1.18.39,1.97.79.39.79.79,1.57.39,2.76v1.57c0,.39,0,1.18-.39,1.57-.39.39-.39,1.18-.39,1.97s-.39,1.18-.39,1.97c-.39.79-.39,1.18-.79,1.97-.39.79-1.18,1.57-1.57,1.97-1.57,1.18-3.54,2.36-5.51,3.54-3.15,1.97-6.69,3.54-9.84,4.72-4.33,1.57-8.66,3.15-13.38,3.94-5.12,1.18-10.63,1.57-15.74,1.57-7.08,0-14.17-1.18-21.25-3.54-5.9-2.36-11.41-5.9-16.14-11.02-4.72-5.12-7.87-11.02-10.23-17.71-2.36-7.87-3.94-15.74-3.54-24.01,0-16.14,3.15-31.88,9.45-46.45,3.15-7.48,7.08-14.56,11.81-21.25,4.33-6.3,9.84-12.2,15.74-17.32,5.9-5.12,12.99-9.05,20.07-11.81,7.87-2.76,16.14-4.33,24.4-4.33,5.51,0,11.02.79,16.53,1.97,4.33,1.18,8.66,2.76,12.99,5.12,2.76,1.57,5.51,3.15,7.87,5.51,1.57,1.57,2.36,3.15,2.36,5.12Z"/>
      <path class="cls-11" d="M3043.5,1012.42c0,.39-.39.79-.79,1.18-.39.39-.79.79-1.18.79-.79.39-1.57.39-2.36.39-1.18,0-2.36.39-3.54.39s-2.36,0-3.54-.39c-.79,0-1.18-.39-1.97-.39-.39,0-.79-.39-.79-.79v-1.18l31.88-160.59c0-.39.39-.79.39-1.18.39-.39.79-.79,1.18-1.18.79-.39,1.57-.39,2.36-.39,1.18,0,2.36-.39,3.54-.39s2.36,0,3.54.39c.79,0,1.57.39,1.97.39.39.39.79.39.79,1.18v1.18l-31.49,160.59Z"/>
      <path class="cls-11" d="M3167.09,1012.42c-.39,1.18-.79,1.97-1.97,2.36-1.57.39-3.54.79-5.12.79h-2.76c-.79,0-1.18-.39-1.97-.39-.39,0-.79-.39-.79-.79v-1.57l4.33-22.04c-1.57,3.15-3.15,5.9-5.51,8.66-6.3,6.69-13.78,12.2-22.44,15.35-4.33,1.97-9.05,2.76-14.17,2.76-5.51,0-11.02-.79-15.74-3.54-3.94-1.97-7.48-5.12-9.84-8.66-2.36-3.54-3.94-7.87-4.72-12.2-.79-4.33-1.18-9.05-1.18-13.38,0-4.72.39-9.84,1.18-14.56.79-5.9,2.36-11.41,3.94-16.93,1.97-5.9,4.33-11.81,7.08-17.32,2.76-5.51,6.3-10.63,10.63-15.35,3.94-4.33,9.05-8.27,14.56-11.02,5.9-2.76,12.2-3.94,18.89-3.94,6.3-.39,12.99,1.18,18.5,4.33,5.12,3.15,9.84,7.08,13.78,11.81l2.36-11.81c.39-1.18,1.18-1.97,1.97-2.36,1.57-.39,3.54-.79,5.12-.79h3.15c.79,0,1.18.39,1.97.39.39.39.79.79.79,1.18v1.18l-22.04,107.85ZM3169.45,930.94c-3.54-5.51-8.27-10.23-13.78-13.78-4.72-3.15-10.23-4.72-16.14-4.72-4.72,0-9.05,1.18-12.99,3.54-3.94,2.36-7.48,5.51-10.23,9.05-3.15,3.94-5.51,7.87-7.48,12.6-1.97,4.72-3.94,9.45-5.12,14.17-1.18,4.72-2.36,9.45-3.15,14.17-.79,4.33-.79,8.27-1.18,12.6,0,3.15.39,6.3.79,9.05.39,3.15,1.18,5.9,2.76,8.66,1.18,2.36,3.54,4.72,5.9,6.3,2.76,1.57,6.3,2.76,9.84,2.36,5.12,0,9.84-1.57,14.56-3.94,5.12-2.76,9.84-6.3,13.38-11.02,4.33-5.12,8.27-10.63,11.02-16.53,3.15-6.69,5.9-13.78,7.08-21.25l4.72-21.25Z"/>
      <path class="cls-11" d="M3285.57,905.75v1.18c0,.79,0,1.18-.39,1.97,0,.79-.39,1.57-.39,2.36-.39.79-.39,1.57-.79,2.36-.39.79-.79,1.18-1.18,1.97-.39.39-.79.79-1.57.79s-1.18,0-1.97-.39l-2.76-1.18c-1.18-.39-2.36-.79-3.54-1.18-5.12-1.18-10.23,0-14.17,3.54-4.33,3.15-7.87,6.69-11.41,10.63-3.94,5.12-7.48,10.23-10.23,16.14-3.15,6.69-5.51,13.38-7.08,20.47l-9.45,47.63c0,.39-.39.79-.79,1.18-.39.39-.79.79-1.18.79-.79.39-1.57.39-2.36.39-1.18,0-2.36.39-3.54.39s-2.36,0-3.54-.39c-.79,0-1.18-.39-1.97-.39-.39,0-.79-.39-.79-.79v-1.18l21.65-107.85c0-.39.39-.79.39-1.18.39-.39.79-.79,1.57-1.18.79-.39,1.57-.39,2.36-.39h6.3c.79,0,1.18.39,1.97.39.39.39.79.79.79,1.18v1.18l-4.33,20.86c1.97-3.54,3.94-6.69,6.3-9.45,2.36-3.15,5.12-5.51,8.27-8.27,2.76-2.36,5.9-4.33,9.45-5.51,3.15-1.57,6.3-1.97,9.84-2.36,1.57,0,2.76,0,4.33.39,1.57.39,2.76.39,3.94.79,1.18.39,2.36.39,3.54,1.18.79.39,1.57.79,1.97,1.18.79,1.18,1.18,1.97.79,2.76Z"/>
      <path class="cls-11" d="M3372.95,1012.42c-.39,1.18-.79,1.97-1.97,2.36-1.57.39-3.54.79-5.12.79h-2.76c-.79,0-1.18-.39-1.97-.39-.39,0-.79-.39-.79-.79v-1.57l4.33-22.04c-1.18,3.15-3.15,5.9-5.51,8.66-2.76,3.15-6.3,6.3-9.84,8.66-3.94,2.76-8.27,5.12-12.6,6.69-4.33,1.97-9.05,2.76-14.17,2.76-5.51,0-11.02-.79-15.74-3.54-3.94-1.97-7.48-5.12-9.84-8.66-2.36-3.54-3.94-7.87-4.72-12.2-.79-4.33-1.18-9.05-1.18-13.38.39-10.63,1.97-21.25,5.12-31.49,1.97-5.9,4.33-11.81,7.08-17.32,2.76-5.51,6.3-10.63,10.63-15.35,4.33-4.33,9.05-8.27,14.56-11.02,5.9-2.76,12.2-3.94,18.89-3.94,6.3-.39,12.99,1.18,18.5,4.33,5.12,3.15,9.84,7.08,13.38,11.81l2.36-11.81c.39-1.18,1.18-1.97,1.97-2.36,1.57-.39,3.54-.79,5.12-.79h3.15c.79,0,1.18.39,1.97.39.39.39.79.79.79,1.18v1.18l-21.65,107.85ZM3375.31,930.94c-3.54-5.51-8.27-10.23-13.78-13.78-4.72-3.15-10.23-4.72-16.14-4.72-4.72,0-9.05,1.18-12.99,3.54-3.94,2.36-7.48,5.51-10.23,9.05-3.15,3.94-5.51,8.27-7.48,12.6-1.97,4.72-3.94,9.45-5.12,14.17-1.18,4.72-2.36,9.45-3.15,14.17-.39,3.94-.79,8.27-.79,12.2,0,3.15.39,6.3.79,9.05.39,3.15,1.57,5.9,2.76,8.66,1.18,2.36,3.54,4.72,5.9,6.3,2.76,1.57,6.3,2.76,9.84,2.36,5.12,0,9.84-1.57,14.56-3.94,5.12-2.76,9.84-6.3,13.38-11.02,4.33-5.12,8.27-10.63,11.02-16.53,3.15-6.69,5.9-13.78,7.08-21.25l4.33-20.86Z"/>
      <path class="cls-11" d="M3490.64,911.26c0,.79,0,1.57-.39,2.36-.39.79-.39,1.97-.79,2.76-.39.79-.79,1.57-1.57,2.36-.39.39-.79.79-1.57.79-1.18,0-2.36-.39-3.15-1.18-1.18-.79-2.76-1.57-4.72-2.76-1.97-1.18-4.33-1.97-6.69-2.76-3.15-.79-6.3-1.18-9.45-1.18-3.54,0-7.08.39-10.23,1.57-2.76,1.18-5.51,2.76-7.48,4.72-3.94,3.94-6.3,9.05-6.3,14.17,0,3.15,1.18,6.3,3.15,8.66,2.36,2.36,5.12,4.72,8.27,6.3,3.15,1.97,6.69,3.54,10.63,5.12,3.54,1.57,7.08,3.54,10.63,5.9,3.15,2.36,5.9,5.12,8.27,8.27,2.36,3.54,3.54,7.87,3.15,12.2,0,5.12-1.18,10.23-3.15,14.96-1.97,4.72-5.12,8.66-9.05,11.81-4.33,3.54-9.05,6.3-14.17,7.87-5.9,1.97-12.2,2.76-18.5,2.76-3.54,0-7.08-.39-10.23-.79-3.15-.39-5.9-1.18-8.66-2.36-2.36-.79-4.72-1.57-6.69-3.15-1.57-.79-3.15-1.97-4.33-3.15-.39-.39-1.18-1.18-1.18-1.97-.39-.79-.39-1.57-.39-2.36v-1.97c0-.79.39-1.57.39-1.97,0-.79.39-1.57.79-1.97.39-.79.39-1.18.79-1.57.39-.39.79-.79,1.18-1.18.39-.39.79-.39,1.18-.39,1.18,0,2.36.79,3.54,1.57,1.57,1.18,3.54,2.36,5.12,3.54,2.76,1.57,5.51,2.76,8.27,3.54,8.27,2.36,16.93,2.36,25.19,0,3.15-1.18,6.3-2.76,8.66-5.12,2.36-1.97,3.94-4.33,5.12-7.08,1.18-2.76,1.57-5.51,1.57-8.66s-1.18-6.3-3.15-9.05c-2.36-2.36-5.12-4.72-8.27-6.3-3.54-1.97-7.08-3.54-10.63-5.12-3.54-1.57-7.08-3.54-10.63-5.9-3.15-2.36-5.9-5.12-7.87-8.27-2.36-3.54-3.54-7.87-3.15-12.2,0-4.72.79-9.84,3.15-14.17,1.97-4.33,4.72-7.87,8.27-11.02,3.94-3.15,8.27-5.51,12.99-7.08,5.12-1.57,10.63-2.76,16.14-2.36,2.76,0,5.51.39,8.27.79,2.36.39,5.12.79,7.48,1.57,1.97.79,3.94,1.57,5.9,2.36,1.57.79,2.76,1.57,3.94,2.76,0,1.97.79,3.15.39,4.33Z"/>
      <path class="cls-11" d="M3531.18,997.46c0,3.94-.79,7.87-2.76,11.81-1.97,4.33-4.72,8.27-7.87,11.81l-21.65,25.58c-.79,1.18-1.97,1.97-3.54,2.36-1.97.39-3.54.79-5.51.79-.79,0-1.57,0-2.36-.39-.39,0-.79-.39-1.18-.79-.39-.39-.39-.79,0-1.18,0-.79.39-1.18.79-1.97l23.22-32.67,2.36-12.2c.39-1.57.79-2.76,1.18-4.33.39-.79,1.18-1.97,1.97-2.36.79-.79,1.97-1.18,3.15-1.18,1.57-.39,2.76-.39,4.33-.39,1.18,0,2.76,0,3.94.39.79,0,1.57.39,2.36.79.39.39,1.18.79,1.18,1.57.39.79.39,1.57.39,2.36Z"/>
      <path class="cls-11" d="M3735.46,864.42v1.57c0,.79,0,1.18-.39,1.97,0,.79-.39,1.57-.39,1.97-.39.79-.39,1.18-.79,1.97-.39.39-.79,1.18-1.57,1.57-.79.39-1.18.39-1.97.39h-62.98l-11.02,54.32h54.32c.79,0,1.57.39,1.97.79.39.79.79,1.57.79,2.36v1.57c0,.79,0,1.18-.39,1.97,0,.79-.39,1.57-.39,1.97-.39.79-.39,1.18-.79,1.57-.39.39-.79.79-1.18,1.18-.39.39-1.18.39-1.97.39h-54.71l-12.2,61.4h64.16c.79,0,1.57.39,1.97.79.39.79.79,1.57.79,2.76v1.57c0,.79,0,1.57-.39,1.97,0,.79-.39,1.57-.39,1.97-.39.79-.39,1.18-.79,1.97-.39.39-.79,1.18-1.57,1.18-.79.39-1.18.39-1.97.39h-72.03c-.79,0-1.57,0-1.97-.39-.79-.39-1.18-.79-1.97-1.18-.39-.79-.79-1.57-1.18-2.36-.39-1.18-.39-2.36,0-3.54l27.95-138.94c.39-2.36,1.57-4.33,3.54-5.9,1.57-.79,3.15-1.57,4.72-1.57h70.85c.79.79,1.97,1.97,1.97,4.33Z"/>
      <path class="cls-11" d="M3819.3,911.26c0,.79,0,1.57-.39,2.36-.39.79-.39,1.97-.79,2.76-.39.79-.79,1.57-1.57,2.36-.39.39-.79.79-1.57.79-1.18,0-2.36-.39-3.15-1.18-1.18-.79-2.76-1.57-4.72-2.76-2.36-1.18-4.33-1.97-6.69-2.76-3.15-.79-6.3-1.18-9.45-1.18-3.54,0-7.08.39-10.23,1.57-2.76,1.18-5.51,2.76-7.48,4.72-1.97,1.97-3.54,3.94-4.72,6.69-1.18,2.36-1.57,5.12-1.57,7.87,0,3.15,1.18,6.3,3.15,8.66,2.36,2.36,5.12,4.72,8.27,6.3,3.15,1.97,6.69,3.54,10.63,5.12,3.54,1.57,7.08,3.54,10.63,5.9,3.15,2.36,5.9,5.12,8.27,8.27,2.36,3.54,3.54,7.87,3.15,12.2,0,5.12-1.18,10.23-3.15,14.96-1.97,4.72-5.12,8.66-9.05,11.81-4.33,3.54-9.05,6.3-14.17,7.87-5.9,1.97-12.2,2.76-18.5,2.76-3.54,0-7.08-.39-10.23-.79-3.15-.39-5.9-1.18-8.66-2.36-2.36-.79-4.72-1.57-6.69-3.15-1.57-.79-3.15-1.97-4.33-3.15-.39-.39-1.18-1.18-1.57-1.97-.39-.79-.39-1.57-.39-2.36v-1.97c0-.79.39-1.57.39-1.97,0-.79.39-1.57.79-1.97.39-.79.39-1.18.79-1.57.39-.39.79-.79,1.18-1.18s.79-.39,1.18-.39c1.18,0,2.36.79,3.54,1.57,1.57,1.18,3.54,2.36,5.51,3.54,2.76,1.57,5.51,2.76,8.27,3.54,3.94,1.18,8.27,1.57,12.2,1.57,4.33,0,8.66-.39,12.6-1.97,3.15-1.18,6.3-2.76,8.66-5.12,2.36-1.97,3.94-4.33,5.12-7.08,1.18-2.76,1.57-5.51,1.57-8.66s-1.18-6.69-3.15-9.05c-2.36-2.76-5.12-4.72-7.87-6.69-3.54-1.97-7.08-3.54-10.63-5.12-3.54-1.57-7.08-3.54-10.63-5.9-3.15-2.36-5.9-5.12-8.27-8.27-2.36-3.54-3.54-7.87-3.15-12.2,0-4.72.79-9.45,3.15-14.17,1.97-4.33,4.72-7.87,8.27-11.02,3.94-3.15,8.27-5.51,12.6-7.08,5.12-1.57,10.63-2.76,16.14-2.36,5.51,0,10.63.79,15.74,2.36,1.97.79,3.94,1.57,5.9,2.36,1.57.79,2.76,1.57,3.94,2.76.79,1.97,1.18,3.54,1.18,4.72Z"/>
      <path class="cls-11" d="M3905.89,906.15v1.97c0,1.18-.39,2.36-1.18,3.54-.39.39-.79.79-.79,1.57-.39.39-.79.79-1.18.79-.39.39-1.18.39-1.57.39h-29.91l-12.99,65.34c-.39,1.97-.39,3.94-.79,6.3-.39,1.97-.39,3.94-.39,5.9-.39,3.54.79,7.08,2.76,9.84,2.36,2.36,5.51,3.54,9.05,3.15,1.97,0,3.94,0,5.9-.39,1.57-.39,3.15-.79,4.33-1.18l3.15-1.18c.79-.39,1.57-.39,2.36-.39.39,0,1.18,0,1.57.39.39.79.79,1.57.39,1.97,0,.79,0,1.57-.39,2.36,0,.79-.39,1.57-.39,2.36-.39.79-.39,1.57-.79,2.36-.39.79-.79,1.18-1.18,1.57-.79.79-1.57,1.18-2.76,1.57-1.18.39-2.76.79-3.94,1.18-1.57.39-3.15.79-4.72.79-1.57.39-3.15.39-4.72.39-3.54,0-7.48-.39-11.02-1.18-2.76-.79-5.51-2.36-7.87-4.33-1.97-1.97-3.54-4.72-4.72-7.48-1.18-3.54-1.57-7.08-1.57-10.63v-3.15c0-1.18.39-2.36.39-3.54l.39-3.54c0-1.18.39-2.36.79-3.54l12.99-64.95h-16.14c-.79,0-1.18,0-1.97-.79-.39-.79-.79-1.57-.79-2.76s0-1.97.39-3.15c0-.79.39-1.97.79-2.76.39-.79.79-1.57,1.57-1.97.79-.39,1.57-.79,2.36-.79h16.14l5.51-26.37c0-.39.39-.79.39-1.18.39-.39.79-.79,1.57-1.18.79-.39,1.57-.39,2.36-.39h7.08c.79,0,1.57.39,1.97.39.39.39.79.39.79,1.18v1.18l-5.12,26.37h29.91c.79,0,1.97.39,2.36,1.18-.79.79-.39,1.57-.39,2.75Z"/>
      <path class="cls-11" d="M3992.88,1012.42c-.39,1.18-.79,1.97-1.97,2.36-1.57.39-3.54.79-5.12.79h-2.76c-.79,0-1.18-.39-1.97-.39-.39,0-.79-.39-.79-.79v-1.57l4.33-22.04c-1.57,3.15-3.15,5.9-5.51,8.66-2.76,3.15-6.3,6.3-9.84,8.66-3.94,2.76-8.27,5.12-12.6,6.69-4.33,1.97-9.05,2.76-14.17,2.76-5.51,0-11.02-.79-15.74-3.54-3.94-1.97-7.48-5.12-9.84-8.66-2.36-3.54-3.94-7.87-4.72-12.2-.79-4.33-1.18-9.05-1.18-13.38,0-4.72.39-9.84,1.18-14.56.79-5.9,1.97-11.41,3.94-16.93,1.97-5.9,4.33-11.81,7.08-17.32,2.76-5.51,6.3-10.63,10.63-15.35,4.33-4.33,9.05-8.27,14.56-11.02,5.9-2.76,12.2-3.94,18.89-3.94,6.3-.39,12.99,1.18,18.5,4.33,5.12,3.15,9.84,7.08,13.78,11.81l2.36-11.81c.39-1.18,1.18-1.97,1.97-2.36,1.57-.39,3.54-.79,5.12-.79h3.15c.79,0,1.18.39,1.97.39.39.39.79.79.79,1.18v1.18l-22.04,107.85ZM3995.24,930.94c-3.54-5.51-8.27-10.23-13.78-13.78-4.72-3.15-10.23-4.72-15.74-4.72-4.72,0-9.05,1.18-12.99,3.54-3.94,2.36-7.48,5.51-10.23,9.05-3.15,3.94-5.51,8.27-7.48,12.6-1.97,4.72-3.94,9.45-5.12,14.17-1.18,4.72-2.36,9.45-3.15,14.17-.39,3.94-.79,8.27-.79,12.2,0,3.15.39,6.3.79,9.05.39,3.15,1.57,5.9,2.76,8.66,1.18,2.36,3.15,4.72,5.51,6.3,2.76,1.57,6.3,2.76,9.84,2.36,5.12,0,9.84-1.57,14.56-3.94,5.12-2.76,9.84-6.3,13.38-11.02,4.33-5.12,8.27-10.63,11.02-16.53,3.15-6.69,5.9-13.78,7.08-21.25l4.33-20.86Z"/>
      <path class="cls-11" d="M4116.47,1012.42c0,1.18-.79,1.97-1.97,2.36-1.57.39-3.54.79-5.12.79h-2.76c-.79,0-1.18-.39-1.97-.39-.39,0-.79-.39-.79-.79v-1.57l4.33-21.65c-1.18,3.15-3.15,5.9-5.51,8.66-2.76,3.15-6.3,5.9-9.84,8.66-3.94,2.76-8.27,4.72-12.6,6.3-4.33,1.57-9.05,2.76-14.17,2.76-4.33,0-8.27-.39-12.6-1.97-3.15-1.18-6.3-2.76-8.66-5.12-2.36-1.97-4.33-4.33-5.51-7.08-1.18-2.76-2.36-5.51-3.15-8.27-.79-2.76-1.18-5.51-1.57-8.27-.39-2.76-.39-5.12-.39-7.48,0-5.12.39-9.84,1.18-14.96.79-5.9,2.36-11.41,3.94-16.93,1.97-5.9,4.33-11.41,7.08-16.93,2.76-5.51,6.3-10.23,10.63-14.96,4.33-4.33,9.05-7.87,14.56-10.63,5.9-2.76,12.2-3.94,18.5-3.94,3.54,0,6.69.39,10.23,1.18,2.76.79,5.9,1.97,8.66,3.15,2.36,1.18,4.72,3.15,7.08,4.72,1.97,1.97,3.94,3.94,5.9,6.3l12.6-63.37c0-1.18.79-1.97,1.97-2.36.79-.39,1.57-.39,2.36-.39,1.18,0,2.36-.39,3.54-.39s2.36,0,3.54.39c.79,0,1.57.39,1.97.39s.79.39.79.79v1.18l-32.28,159.8ZM4118.83,930.94c-3.54-5.51-8.27-10.23-13.78-13.78-4.72-3.15-10.23-4.72-16.14-4.72-4.33,0-8.66,1.18-12.6,3.15-3.94,2.36-7.08,5.12-9.84,8.66-3.15,3.54-5.9,7.87-7.87,12.2-1.97,4.72-3.94,9.45-5.12,14.17-1.18,4.72-2.36,9.45-3.15,14.17-.79,4.33-.79,8.66-.79,12.6-.39,6.69,1.18,13.78,4.33,19.68,3.15,4.72,8.66,7.48,14.56,7.08,5.12,0,9.84-1.57,14.56-3.94,5.12-2.76,9.84-6.3,13.38-10.63,4.33-4.72,8.27-10.23,11.02-16.53,3.15-6.69,5.9-13.78,7.08-21.25l4.33-20.86Z"/>
      <path class="cls-11" d="M4260.53,940c0,5.9-.39,12.2-1.57,18.11-1.18,5.9-2.76,11.81-5.12,17.71-2.36,5.51-5.12,11.02-8.66,16.14-3.15,4.72-7.08,9.05-11.81,12.99-4.72,3.54-9.84,6.69-15.35,8.66-5.9,2.36-12.6,3.15-18.89,3.15s-12.6-.79-18.89-2.76c-4.72-1.57-9.05-4.33-12.6-7.87-3.54-3.54-5.9-7.87-7.48-12.6-1.57-5.51-2.36-11.02-2.36-16.53,0-5.9.39-12.2,1.57-18.11,1.18-5.9,2.76-11.81,5.12-17.71,2.36-5.51,5.12-11.02,8.66-16.14,3.15-4.72,7.08-9.45,11.81-12.99,4.72-3.54,9.84-6.69,15.35-8.66,5.9-2.36,12.6-3.15,18.89-3.15s12.6.79,18.89,2.76c4.72,1.57,9.05,4.33,12.6,7.87,3.54,3.54,5.9,7.87,7.48,12.6,1.57,5.51,2.36,11.02,2.36,16.53ZM4245.18,940.78c0-3.94-.39-7.87-1.57-11.81-1.57-6.69-6.69-12.2-12.99-14.56-8.66-2.76-18.5-2.76-27.16.79-4.33,1.57-7.87,4.33-11.41,7.48-3.54,3.15-6.3,6.69-8.66,10.63-2.36,4.33-4.72,8.66-6.3,13.38-1.57,4.72-2.76,9.84-3.54,14.56-.79,5.12-1.18,9.84-1.18,14.96,0,3.94.39,7.87,1.57,11.81.79,3.15,2.36,6.3,4.72,9.05,2.36,2.36,5.12,4.33,8.66,5.51,3.94,1.57,8.27,1.97,12.6,1.97,4.72,0,9.84-.79,14.17-2.76,4.33-1.97,8.27-4.33,11.41-7.48,3.54-3.15,6.3-6.69,8.66-11.02,2.36-4.33,4.72-8.66,6.3-13.38,1.57-4.72,2.76-9.45,3.54-14.56.79-4.33,1.57-9.45,1.18-14.56Z"/>
      <path class="cls-11" d="M4460.48,864.42v1.57c0,.79,0,1.18-.39,1.97,0,.79-.39,1.57-.79,1.97-.39.79-.39,1.18-.79,1.97-.39.39-.79.79-1.57,1.18-.79.39-1.18.39-1.97.39h-46.05l-27.95,138.55c0,.39-.39.79-.79,1.18-.39.39-.79.79-1.18.79-.79.39-1.57.39-2.36.39-1.18,0-2.36.39-3.54.39s-2.36,0-3.54-.39c-.79,0-1.57-.39-1.97-.39s-.79-.39-.79-.79v-1.18l27.55-138.55h-45.66c-.79,0-1.57-.39-1.97-1.18-.39-.79-.39-1.57-.39-2.76v-1.57c0-.79.39-1.18.39-1.97s.39-1.18.79-1.97c.39-.79.79-1.18,1.18-1.97.39-.39.79-.79,1.18-1.18s1.18-.39,1.57-.39h106.27c.79,0,1.57.39,1.97,1.18.39.79.39,1.97.79,2.76Z"/>
      <path class="cls-11" d="M4517.95,905.75v1.18c0,.79,0,1.18-.39,1.97,0,.79-.39,1.57-.39,2.36-.39.79-.39,1.57-.79,2.36-.39.79-.79,1.18-1.18,1.97-.39.39-.79.79-1.57.79s-1.18,0-1.97-.39l-2.76-1.18c-1.18-.39-2.36-.79-3.54-1.18-5.12-1.18-10.23,0-14.17,3.54-4.33,3.15-7.87,6.69-11.41,10.63-8.66,10.63-14.56,23.22-17.32,37l-9.45,47.63c0,.39-.39.79-.79,1.18-.39.39-.79.79-1.18.79-.79.39-1.57.39-2.36.39-1.18,0-2.36.39-3.54.39s-2.36,0-3.54-.39c-.79,0-1.18-.39-1.97-.39-.39,0-.79-.39-.79-.79v-1.18l21.65-107.85c0-.39.39-.79.79-1.18.39-.39.79-.79,1.18-1.18.79-.39,1.57-.39,2.36-.39h6.3c.79,0,1.18.39,1.97.39.39.39.79.79.79,1.18v1.18l-3.94,20.86c1.97-3.54,3.94-6.69,6.3-9.45,2.36-3.15,5.12-5.51,8.27-8.27,2.76-2.36,5.9-4.33,9.45-5.51,3.15-1.57,6.3-1.97,9.84-2.36,1.57,0,2.76,0,4.33.39,1.57.39,2.76.39,3.94.79,1.18.39,2.36.39,3.15,1.18.79.39,1.57.79,1.97,1.18.79.79.79,1.57.79,2.36Z"/>
      <path class="cls-11" d="M4605.33,1012.42c-.39,1.18-.79,1.97-1.97,2.36-1.57.39-3.54.79-5.12.79h-3.15c-.79,0-1.18-.39-1.97-.39-.39,0-.79-.39-.79-.79v-1.57l4.33-22.04c-1.18,3.15-3.15,5.9-5.51,8.66-6.3,6.69-13.78,12.2-22.44,15.35-4.33,1.97-9.05,2.76-14.17,2.76-5.51,0-11.02-.79-15.74-3.54-3.94-1.97-7.48-5.12-9.84-8.66-2.36-3.54-3.94-7.87-4.72-12.2-.79-4.33-1.18-9.05-1.18-13.38,0-4.72.39-9.84,1.18-14.56.79-5.9,1.97-11.41,3.94-16.93,1.97-5.9,4.33-11.81,7.08-17.32,2.76-5.51,6.3-10.63,10.63-15.35,4.33-4.33,9.05-8.27,14.56-11.02,5.9-2.76,12.2-3.94,18.89-3.94,6.3-.39,12.99,1.18,18.5,4.33,5.12,3.15,9.84,7.08,13.78,11.81l2.36-11.81c.39-1.18,1.18-1.97,1.97-2.36,1.57-.39,3.54-.79,5.12-.79h3.15c.79,0,1.18.39,1.97.39.39.39.79.79.79,1.18v1.18l-21.65,107.85ZM4607.69,930.94c-3.54-5.51-8.27-10.23-13.78-13.78-4.72-3.15-10.23-4.72-16.14-4.72-4.72,0-9.05,1.18-12.99,3.54-3.94,2.36-7.48,5.51-10.23,9.05-3.15,3.94-5.51,8.27-7.48,12.6-1.97,4.72-3.94,9.45-5.12,14.17-1.18,4.72-2.36,9.45-3.15,14.17-.39,3.94-.79,8.27-.79,12.2,0,3.15.39,6.3.79,9.05.39,3.15,1.57,5.9,2.76,8.66,1.18,2.36,3.54,4.72,5.9,6.3,2.76,1.57,6.3,2.76,9.84,2.36,5.12,0,9.84-1.57,14.56-3.94,5.12-2.76,9.84-6.3,13.38-11.02,4.33-5.12,8.27-10.63,11.02-16.53,3.15-6.69,5.9-13.78,7.08-21.25l4.33-20.86Z"/>
      <path class="cls-11" d="M4744.67,928.58c0,2.76,0,5.51-.39,8.27-.39,2.76-.79,5.51-1.18,8.27l-13.78,67.7c0,.39-.39.79-.79,1.18-.39.39-.79.79-1.18.79-.79.39-1.57.39-2.36.39-1.18,0-2.36.39-3.54.39s-2.36,0-3.15-.39c-.79,0-1.18-.39-1.97-.39-.39,0-.79-.39-.79-.79v-1.18l13.78-67.7c.39-2.76.79-5.51,1.18-7.87.39-2.36.39-4.72.39-6.3.39-4.72-1.18-9.45-3.54-13.38-2.76-3.54-7.48-5.51-11.81-5.12-5.12,0-9.84,1.57-14.56,3.94-5.12,2.76-9.84,6.69-13.38,11.02-4.33,5.12-8.27,10.63-11.02,16.53-3.15,6.69-5.9,13.78-7.08,21.25l-9.45,47.63c0,.39-.39.79-.79,1.18-.39.39-.79.79-1.18.79-.79.39-1.57.39-2.36.39-1.18,0-2.36.39-3.54.39s-2.36,0-3.54-.39c-.79,0-1.18-.39-1.97-.39-.79-.39-1.18-1.18-.79-2.36l21.65-107.85c0-.39.39-.79.39-1.18.39-.39.79-.79,1.18-1.18.79-.39,1.57-.39,1.97-.39h6.3c.79,0,1.18.39,1.97.39.39.39.79.39.79,1.18v1.18l-4.33,22.04c1.18-3.15,3.15-5.9,5.51-8.66,2.76-3.15,5.9-6.3,9.84-8.66,3.94-2.76,8.27-5.12,12.6-6.69,4.72-1.57,9.45-2.76,14.56-2.76,4.33,0,9.05.79,12.99,2.36,3.15,1.57,6.3,3.54,8.66,6.3,1.97,2.76,3.54,5.9,4.72,9.05-.39,3.94,0,7.48,0,11.02Z"/>
      <path class="cls-11" d="M4846.61,911.26c0,.79,0,1.57-.39,2.36,0,.79-.39,1.97-.79,2.76-.39.79-.79,1.57-1.18,2.36-.39.39-.79.79-1.57.79-1.18,0-2.36-.39-3.15-1.18-1.18-.79-2.76-1.57-4.72-2.76-2.36-1.18-4.33-1.97-6.69-2.76-3.15-.79-6.3-1.18-9.45-1.18-3.54,0-7.08.39-10.23,1.57-2.76,1.18-5.51,2.76-7.48,4.72-1.97,1.97-3.54,4.33-4.72,6.69-1.18,2.36-1.57,5.12-1.57,7.87,0,3.15,1.18,6.3,3.15,8.66,2.36,2.36,5.12,4.72,8.27,6.3,3.15,1.97,6.69,3.54,10.63,5.12,3.54,1.57,7.08,3.54,10.63,5.51,3.15,2.36,5.9,5.12,7.87,8.27,2.36,3.54,3.54,7.87,3.15,12.2,0,5.12-1.18,10.23-3.15,14.96-1.97,4.72-5.12,8.66-9.05,11.81-4.33,3.54-9.05,6.3-14.17,7.87-9.45,2.76-19.29,3.54-28.73,1.97-3.15-.39-5.9-1.18-8.66-2.36-2.36-.79-4.72-1.57-6.69-3.15-1.57-.79-3.15-1.97-4.33-3.15-.39-.39-1.18-1.18-1.18-1.97-.39-.79-.39-1.57-.39-2.36v-1.97c0-.79.39-1.57.39-1.97,0-.79.39-1.57.79-1.97.39-.79.39-1.18.79-1.57.39-.39.79-.79,1.18-1.18.39-.39.79-.39,1.18-.39,1.18,0,2.36.79,3.54,1.57,1.57,1.18,3.54,2.36,5.12,3.54,2.76,1.57,5.51,2.76,8.27,3.54,3.94,1.18,8.27,1.57,12.6,1.57s8.66-.39,12.6-1.97c3.15-1.18,6.3-2.76,8.66-5.12,2.36-1.97,3.94-4.33,5.12-7.08,1.18-2.76,1.57-5.51,1.57-8.66s-1.18-6.69-3.15-9.05c-2.36-2.36-5.12-4.72-8.27-6.3-3.54-1.97-7.08-3.54-10.63-5.12-3.54-1.57-7.08-3.54-10.63-5.9-3.15-2.36-5.9-5.12-8.27-8.27-2.36-3.54-3.54-7.87-3.15-12.2,0-4.72.79-9.45,3.15-14.17,1.97-4.33,4.72-7.87,8.27-11.02,3.94-3.15,8.27-5.51,12.6-7.08,5.12-1.57,10.63-2.76,16.14-2.36,5.51,0,10.63.79,15.74,2.36,1.97.79,3.94,1.57,5.9,2.36,1.57.79,2.76,1.57,3.94,2.76.79,1.97,1.18,3.54,1.18,4.72Z"/>
      <path class="cls-11" d="M4966.66,938.03c0,5.12-.39,9.84-1.18,14.96-.79,5.9-2.36,11.41-3.94,17.32-1.97,5.9-4.33,11.81-7.08,17.32-2.76,5.51-6.3,10.23-10.63,14.96-3.94,4.33-9.05,7.87-14.56,10.63-5.9,2.76-12.2,3.94-18.89,3.94-3.54,0-6.69-.39-10.23-1.18-2.76-.79-5.9-1.57-8.27-3.15-2.36-1.18-4.72-2.76-7.08-4.72-1.97-1.97-3.94-3.94-5.9-5.9l-10.63,53.53c0,.39-.39.79-.39,1.18-.39.39-.79.79-1.18,1.18-.79.39-1.57.39-2.36.39h-6.69c-.79,0-1.57-.39-1.97-.39-.39-.39-.79-.39-.79-1.18v-1.18l30.31-150.36c0-1.18.79-1.97,1.97-2.36,1.57-.39,3.54-.79,5.12-.79h2.76c.79,0,1.18.39,1.97.39.39,0,.79.39.79.79v1.57l-4.33,22.04c1.57-3.15,3.15-5.9,5.51-8.66,2.76-3.15,6.3-6.3,9.84-8.66,3.94-2.76,8.27-5.12,12.6-6.69,4.33-1.57,9.05-2.76,14.17-2.76s10.23.79,14.96,3.15c3.94,1.97,7.08,4.33,9.84,7.87,2.76,3.54,4.33,7.48,5.51,11.81.39,4.72,1.18,9.84.79,14.96ZM4951.71,938.82c0-3.54-.39-7.08-1.18-10.23-.39-2.76-1.57-5.9-3.15-8.27-1.57-2.36-3.54-4.33-5.9-5.51-2.76-1.57-5.9-1.97-9.05-1.97-5.12,0-9.84,1.57-14.56,3.94-5.12,2.76-9.84,6.3-13.38,10.63-4.33,5.12-8.27,10.63-11.02,16.53-3.54,6.69-5.9,13.78-7.08,21.25l-4.72,21.65c3.54,5.51,8.27,10.23,13.78,13.78,4.72,3.15,10.23,4.72,16.14,4.72,4.33,0,9.05-1.18,12.6-3.54,3.94-2.36,7.48-5.12,10.23-8.66,3.15-3.94,5.51-7.87,7.48-12.6,1.97-4.72,3.94-9.45,5.12-14.17,1.18-4.72,2.36-9.45,3.15-14.56,1.18-4.72,1.57-9.05,1.57-12.99Z"/>
      <path class="cls-11" d="M5070.57,1012.42c-.39,1.18-.79,1.97-1.97,2.36-1.57.39-3.54.79-5.12.79h-3.15c-.79,0-1.18-.39-1.97-.39-.39,0-.79-.39-.79-.79v-1.57l4.33-22.04c-1.18,3.15-3.15,5.9-5.51,8.66-2.76,3.15-6.3,6.3-9.84,8.66-3.94,2.76-8.27,5.12-12.6,6.69-4.33,1.97-9.05,2.76-14.17,2.76-5.51,0-11.02-.79-15.74-3.54-3.94-1.97-7.48-5.12-9.84-8.66-2.36-3.54-3.94-7.87-4.72-12.2-.79-4.33-1.18-9.05-1.18-13.38,0-4.72.39-9.84,1.18-14.56.79-5.9,1.97-11.41,3.94-16.93,1.97-5.9,4.33-11.81,7.08-17.32,2.76-5.51,6.3-10.63,10.63-15.35,4.33-4.33,9.05-8.27,14.56-11.02,5.9-2.76,12.2-3.94,18.89-3.94,6.3-.39,12.99,1.18,18.5,4.33,5.12,3.15,9.84,7.08,13.78,11.81l2.36-11.81c.39-1.18,1.18-1.97,1.97-2.36,1.57-.39,3.54-.79,5.12-.79h3.15c.79,0,1.18.39,1.97.39.39.39.79.79.79,1.18v1.18l-21.65,107.85ZM5072.94,930.94c-3.54-5.51-8.27-10.23-13.78-13.78-4.72-3.15-10.23-4.72-16.14-4.72-4.72,0-9.05,1.18-12.99,3.54-3.94,2.36-7.48,5.51-10.23,9.05-3.15,3.94-5.51,8.27-7.48,12.6-1.97,4.72-3.94,9.45-5.12,14.17-1.18,4.72-2.36,9.45-3.15,14.17-.39,3.94-.79,8.27-.79,12.2,0,3.15.39,6.3.79,9.05.39,3.15,1.57,5.9,2.76,8.66,1.57,2.36,3.54,4.72,5.9,6.3,2.76,1.57,6.3,2.76,9.84,2.36,5.12,0,9.84-1.57,14.56-3.94,5.12-2.76,9.84-6.3,13.38-11.02,4.33-5.12,8.27-10.63,11.02-16.53,3.15-6.69,5.9-13.78,7.08-21.25l4.33-20.86Z"/>
      <path class="cls-11" d="M5189.05,905.75v1.18c0,.79,0,1.18-.39,1.97,0,.79-.39,1.57-.39,2.36-.39.79-.39,1.57-.79,2.36-.39.79-.79,1.18-1.18,1.97-.39.39-.79.79-1.57.79s-1.18,0-1.97-.39l-2.76-1.18c-1.18-.39-2.36-.79-3.54-1.18-1.57-.39-2.76-.39-4.33-.39-3.54.39-7.08,1.57-9.84,3.94-4.33,3.15-7.87,6.69-11.41,10.63-3.94,5.12-7.48,10.23-10.23,16.14-3.15,6.69-5.51,13.38-7.08,20.47l-9.45,47.63c0,.39-.39.79-.79,1.18-.39.39-.79.79-1.18.79-.79.39-1.57.39-2.36.39-1.18,0-2.36.39-3.54.39s-2.36,0-3.54-.39c-.79,0-1.18-.39-1.97-.39-.79-.39-1.18-1.18-.79-2.36l21.25-107.85c0-.39.39-.79.79-1.18.39-.39.79-.79,1.18-1.18.79-.39,1.57-.39,2.36-.39h6.3c.79,0,1.18.39,1.97.39.39.39.79.39.79,1.18v1.18l-4.33,20.86c1.97-3.54,3.94-6.69,6.3-9.45,2.36-3.15,5.12-5.51,8.27-8.27,2.76-2.36,5.9-4.33,9.45-5.51,3.15-1.57,6.3-1.97,9.84-2.36,1.57,0,2.76,0,4.33.39,1.57.39,2.76.39,3.94.79,1.18.39,2.36.39,3.15,1.18.79.39,1.57.79,1.97,1.18,1.57,1.57,1.57,2.36,1.57,3.15Z"/>
      <path class="cls-11" d="M5290.6,925.83c0,5.12-1.18,9.84-3.94,14.17-2.76,4.72-7.08,8.27-11.81,11.02-6.3,3.54-13.38,5.9-20.86,7.08-9.84,1.97-20.07,2.76-30.31,2.36h-13.78c-.39,3.15-.79,5.9-1.18,8.66-.39,2.76-.39,5.51-.39,7.87-.39,7.48,1.97,14.56,6.3,20.07,4.33,4.72,11.02,7.08,20.86,7.08,4.33,0,9.05-.39,13.38-1.18,3.54-.79,7.08-1.57,10.23-2.36,2.36-.79,4.72-1.57,7.08-2.36,1.18-.39,2.36-.79,3.54-1.18.39,0,1.18.39,1.18.79.39.79.39,1.18.39,1.97v1.97c0,.79-.39,1.57-.39,2.36-.39.79-.39,1.57-.79,2.36-.39.79-.79,1.57-1.57,1.97-1.57,1.18-3.15,2.36-5.12,2.76-2.76,1.18-5.51,1.97-8.27,2.36-3.15.79-6.69,1.18-10.23,1.97-3.54.39-7.48.79-11.02.79-5.9,0-12.2-.79-17.71-2.36-4.72-1.57-9.05-3.94-12.6-7.48-3.54-3.54-5.9-7.48-7.48-12.2-1.57-5.51-2.76-11.41-2.36-16.93,0-5.51.39-11.02,1.57-16.53,1.18-5.9,2.76-11.81,4.72-17.32,1.97-5.9,4.72-11.41,8.27-16.53,3.15-5.12,7.08-9.84,11.81-13.78,4.72-3.94,10.23-7.48,16.14-9.45,6.3-2.36,13.38-3.94,20.47-3.54,5.51,0,11.02.79,16.14,2.36,3.94,1.57,7.48,3.54,10.63,6.3,2.76,2.36,4.72,5.12,5.9,8.27.79,2.75,1.18,5.51,1.18,8.66ZM5275.64,927.4c0-4.33-1.97-8.27-5.51-11.02-4.33-2.76-9.84-4.33-14.96-3.94-5.12,0-10.63.79-15.35,3.15-4.33,1.97-8.27,4.72-11.81,7.87-3.54,3.54-6.3,7.48-8.66,11.81-2.36,4.33-4.33,9.05-5.9,13.78h13.38c7.87,0,15.74-.39,23.62-1.57,5.12-.79,10.23-2.36,14.96-4.72,3.15-1.57,5.9-3.94,7.87-7.08,1.57-2.36,2.36-5.12,2.36-8.27h0Z"/>
      <path class="cls-11" d="M5406.71,928.58c0,2.76,0,5.51-.39,8.27-.39,2.76-.79,5.51-1.18,8.27l-13.38,67.7c0,.39-.39.79-.79,1.18-.39.39-.79.79-1.18.79-.79.39-1.57.39-2.36.39-1.18,0-2.36.39-3.54.39s-2.36,0-3.15-.39c-.79,0-1.57-.39-1.97-.39s-.79-.39-.79-.79v-1.18l13.78-67.7c.39-2.76.79-5.51,1.18-7.87.39-2.36.39-4.72.39-6.3.39-4.72-1.18-9.45-3.54-13.38-2.76-3.54-7.48-5.51-11.81-5.12-5.12,0-9.84,1.57-14.56,3.94-5.12,2.76-9.84,6.69-13.38,11.02-4.33,5.12-8.27,10.63-11.02,16.53-3.54,6.69-5.9,13.78-7.08,21.25l-9.45,47.63c0,.39-.39.79-.79,1.18-.39.39-.79.79-1.18.79-.79.39-1.57.39-2.36.39-1.18,0-2.36.39-3.54.39s-2.36,0-3.54-.39c-.79,0-1.57-.39-1.97-.39-.79-.39-1.18-1.18-.79-2.36l21.65-107.85c0-.39.39-.79.39-1.18.39-.39.79-.79,1.18-1.18.79-.39,1.57-.39,1.97-.39h6.3c.79,0,1.18.39,1.97.39.39.39.79.79.79,1.18v1.18l-4.33,22.04c1.57-3.15,3.15-5.9,5.51-8.66,2.76-3.15,5.9-6.3,9.84-8.66,3.94-2.76,8.27-5.12,12.6-6.69,4.72-1.57,9.45-2.76,14.56-2.76,4.33,0,8.66.79,12.99,2.36,3.15,1.57,6.3,3.54,8.66,6.3,1.97,2.76,3.54,5.9,4.72,9.05-.39,3.94,0,7.48-.39,11.02Z"/>
      <path class="cls-11" d="M5501.57,906.15v1.97c0,.79-.39,1.18-.39,1.97s-.39,1.18-.79,1.57c-.39.39-.79.79-1.18,1.57-.39.39-.79.79-1.18.79-.39.39-1.18.39-1.57.39h-29.91l-13.38,64.95c-.39,1.97-.79,3.94-.79,6.3-.39,1.97-.39,3.94-.39,5.9-.39,3.54.79,7.08,2.76,9.84,2.36,2.36,5.51,3.54,9.05,3.15,1.97,0,3.94,0,5.9-.39,1.57-.39,3.15-.79,4.33-1.18l3.15-1.18c.79-.39,1.57-.39,2.36-.39.39,0,1.18,0,1.57.39.39.79.79,1.57.39,1.97,0,.79,0,1.57-.39,2.36,0,.79-.39,1.57-.79,2.36-.39.79-.39,1.57-.79,2.36-.39.79-.79,1.18-1.18,1.57-.79.79-1.57,1.18-2.76,1.57-1.18.39-2.76.79-3.94,1.18-1.57.39-3.15.79-4.72.79-1.57.39-3.15.39-4.72.39-3.54,0-7.48-.39-11.02-1.18-2.76-.79-5.51-2.36-7.87-4.33-1.97-1.97-3.54-4.72-4.72-7.48-1.18-3.54-1.57-7.08-1.57-10.63v-3.15c0-1.18.39-2.36.39-3.54l.79-3.54c0-1.18.39-2.36.79-3.54l12.99-64.95h-16.14c-.79,0-1.18,0-1.97-.79-.39-.79-.79-1.57-.79-2.76s0-1.97.39-3.15c0-.79.39-1.97.79-2.76.39-.79.79-1.57,1.57-1.97.79-.39,1.57-.79,2.36-.79h16.14l5.51-26.37c0-.39.39-.79.79-1.18.39-.39.79-.79,1.18-1.18.79-.39,1.57-.39,2.36-.39h6.69c.79,0,1.57.39,1.97.39.39.39.79.39.79,1.18v1.18l-4.72,26.37h29.91c.79,0,1.97.39,2.36,1.18.39,1.18.39,2.36.39,3.15Z"/>
      <path class="cls-11" d="M5603.91,925.83c0,5.12-1.18,9.84-3.94,14.17-2.76,4.72-7.08,8.27-11.81,11.02-6.3,3.54-13.38,5.9-20.86,7.08-9.84,1.97-20.07,2.76-30.31,2.36h-13.78c-.39,3.15-.79,5.9-1.18,8.66-.39,2.76-.39,5.51-.39,7.87-.39,7.48,1.97,14.56,6.3,20.07,4.33,4.72,11.02,7.08,20.86,7.08,4.33,0,9.05-.39,13.38-1.18,3.54-.79,7.08-1.57,10.23-2.36,2.36-.79,4.72-1.57,7.08-2.36,1.18-.39,2.36-.79,3.54-1.18.39,0,1.18.39,1.18.79.39.79.39,1.18.39,1.97v1.97c0,.79-.39,1.57-.39,2.36-.39.79-.39,1.57-.79,2.36-.39.79-.79,1.57-1.57,1.97-1.57,1.18-3.15,2.36-5.12,2.76-2.76,1.18-5.51,1.97-8.27,2.36-3.15.79-6.69,1.18-10.23,1.97-3.54.39-7.48.79-11.02.79-5.9,0-12.2-.79-17.71-2.36-4.72-1.57-9.05-3.94-12.6-7.48-3.54-3.54-5.9-7.48-7.48-12.2-1.57-5.51-2.76-11.41-2.36-16.93,0-5.51.39-11.02,1.57-16.53,1.18-5.9,2.76-11.81,4.72-17.32,1.97-5.9,4.72-11.41,8.27-16.53,3.15-5.12,7.08-9.84,11.81-13.78,4.72-3.94,10.23-7.48,15.74-9.45,6.3-2.36,13.38-3.94,20.47-3.54,5.51,0,11.02.79,16.14,2.36,3.94,1.57,7.48,3.54,10.63,6.3,2.76,2.36,4.72,5.12,5.9,8.27.79,2.75,1.18,5.51,1.57,8.66ZM5588.56,927.4c0-4.33-1.97-8.27-5.51-11.02-4.33-2.76-9.84-4.33-14.96-3.94-5.12,0-10.63.79-15.35,3.15-4.33,1.97-8.27,4.72-11.81,7.87-3.54,3.54-6.3,7.48-8.66,11.81-2.36,4.33-4.33,9.05-5.9,13.78h13.38c7.87,0,15.74-.39,23.62-1.57,5.12-.79,10.23-2.36,14.96-4.72,3.15-1.57,5.9-3.94,7.87-7.08,1.57-2.36,2.36-5.12,2.36-8.27h0Z"/>
      <polygon class="cls-25" points="5604.7 781.37 5604.7 771.93 2070.11 771.93 2070.11 792 5604.7 792 5604.7 781.37"/>
      <path class="cls-24" d="M2254.32,429.09c0-65.34,41.72-119.26,100.76-128.71l-1.57-184.6-283.4,309.77,283.4,334.96,1.57-206.25c-53.14-18.89-100.76-68.88-100.76-125.17Z"/>
      <path class="cls-27" d="M2485.37,393.67l-.39-83.44v-1.97h-116.51c-7.87,0-15.74.79-23.22,1.97-13.38,2.36-25.98,7.87-36.61,15.74-27.16,20.47-46.05,55.5-48.02,93.68-3.15,55.89,43.69,111.78,99.19,130.28v203.1l69.67-201.92s3.94-11.41,5.9-17.32c1.97,0-28.34-4.33-48.41-21.25-18.89-16.93-29.91-40.54-31.09-65.73,0-9.45,4.72-38.18,31.09-48.41,9.84-3.94,21.25-3.94,31.88-4.72,21.65-1.57,44.08-1.18,66.52,0Z"/>
      <path class="cls-26" d="M2509.38,399.57h-96.04c-11.02-.39-21.65,2.36-31.09,7.87-19.68,11.41-24.4,47.63-13.38,73.6,8.66,20.86,33.06,33.06,46.45,38.57,19.29,8.27,29.13,7.87,29.13,7.87l-79.51,219.63,86.59-97.61s2.76-73.6,2.76-93.28c0-9.45,2.76-70.85,28.73-81.48,5.12-1.97,25.19-3.94,37,29.13,8.27,23.62,4.33,62.58,4.33,62.58l63.37-72.42-.39-68.09v-27.16l-77.93.79Z"/>
      <path class="cls-9" d="M2921.88,633.38v64.16c-12.99,3.54-24.4,5.9-35.03,7.87-10.23,1.57-20.47,2.76-30.7,2.76-27.95,0-50.78-6.3-68.49-18.89-19.68-14.17-29.52-33.85-29.52-59.83,0-27.55,9.84-49.2,29.52-64.95,18.5-14.56,42.51-22.04,72.03-22.04,10.23,0,20.86,1.18,31.09,3.54,9.84,2.36,19.29,5.9,28.34,10.63-3.54,7.48-5.9,15.35-7.08,23.22h-3.54c-5.51-7.48-12.6-13.38-20.86-17.32-8.66-4.33-18.11-6.3-27.55-6.3-18.11-.79-35.42,7.48-46.05,22.04-10.23,13.78-15.35,30.7-15.35,51.56s5.12,35.82,15.35,47.23c10.23,11.41,24.8,17.32,43.3,17.32,5.12,0,10.23-.39,14.96-1.57,3.94-1.18,8.27-2.76,11.81-4.72v-54.32c2.76,0,6.3,0,11.02.39,4.72.39,7.08.39,7.48.39,2.76,0,5.12,0,7.08-.39,7.48-.39,11.41-.79,12.2-.79Z"/>
      <path class="cls-9" d="M2958.09,546h93.68c-.39,1.57-.79,3.54-.79,5.51-.39,1.57-.39,3.15-.39,4.72s.39,3.15.39,4.72c.39,2.36.39,3.94.79,5.12-8.27-1.18-16.93-1.97-25.98-2.36-9.05-.39-19.29-.79-30.7-.79v49.59h25.58c6.3,0,11.41,0,14.96-.39,3.54-.39,8.66-.79,15.35-1.57-.39,1.57-.79,3.54-.79,5.51-.79,3.15-.79,6.3,0,9.45.39,2.36.39,3.94.79,5.12-3.94-.39-8.66-.79-14.56-1.57-5.9-.79-11.02-.79-15.74-.79h-25.58v59.04c11.81,0,22.04-.39,30.7-.79,9.05-.39,17.71-1.18,25.98-2.36-.39,1.57-.79,3.54-.79,5.51-.39,1.57-.39,3.15-.39,4.72s.39,3.15.39,4.72c.39,2.36.39,3.94.79,5.12h-93.68v-158.23Z"/>
      <path class="cls-9" d="M3082.47,704.62v-158.62h24.4c11.02,11.02,22.44,23.22,35.03,35.82,7.08,7.08,18.89,19.29,35.82,36.61,16.93,17.32,28.73,29.52,35.03,36.21v-108.64l9.84.79,9.84-.79v159.02l-20.86-.39c-13.78-14.56-27.95-29.13-41.33-43.69-14.56-14.96-28.34-29.13-41.33-42.12l-26.77-26.37v112.57l-9.84-1.18-9.84.79Z"/>
      <path class="cls-9" d="M3272.19,546h93.68c-.39,1.57-.79,3.54-.79,5.51-.39,1.57-.39,3.15-.39,4.72s.39,3.15.39,4.72c.39,2.36.39,3.94.79,5.12-8.27-1.18-16.93-1.97-25.98-2.36-9.05-.39-19.29-.79-30.7-.79v49.59h25.58c6.3,0,11.41,0,14.96-.39,3.54-.39,8.66-.79,15.35-1.57-.39,1.57-.79,3.54-.79,5.51-.79,3.15-.79,6.3,0,9.45.39,2.36.39,3.94.79,5.12-3.94-.39-8.66-.79-14.56-1.57-5.9-.79-11.02-.79-15.74-.79h-25.58v59.04c11.81,0,22.04-.39,30.7-.79,9.05-.39,17.71-1.18,25.98-2.36-.39,1.57-.79,3.54-.79,5.51-.39,1.57-.39,3.15-.39,4.72s.39,3.15.39,4.72c.39,2.36.39,3.94.79,5.12h-93.28v-158.23h-.39Z"/>
      <path class="cls-9" d="M3394.6,705.01v-159.02h52.35c11.41,0,19.68,0,24.8.39,5.12.39,10.23,1.57,14.96,3.94,14.17,7.08,21.25,18.11,21.25,33.06.39,10.23-3.15,20.07-10.23,27.55-7.48,7.48-17.32,12.6-27.95,14.17,6.3,10.63,15.35,24.01,26.77,40.94,7.87,11.02,13.38,19.29,16.53,24.4l9.45,14.56c-3.15,0-7.48,0-12.6-.39-5.12-.39-8.66-.39-9.84-.39-3.15,0-7.48,0-12.6.39-5.12.39-8.27.39-9.45.39l-29.13-48.81-16.14-25.58h-1.57v74.39c-2.76,0-5.12,0-6.69-.39-7.08-.79-11.02-.79-11.41-.79-2.76,0-6.3,0-11.02.39-4.72.39-7.08.79-7.48.79ZM3431.2,558.59v61.8c1.18,0,1.97,0,3.15.39h3.15c21.25,0,32.28-11.02,32.28-33.06,0-3.94-.39-7.87-1.18-11.41-.79-6.69-5.12-12.2-11.41-14.96-5.9-1.97-12.6-2.76-18.89-2.36l-7.08-.39Z"/>
      <path class="cls-9" d="M3627.22,656.6h-57.47c-5.12,14.17-9.05,24.4-11.41,31.09-2.36,6.69-4.33,12.6-5.9,17.32l-11.41-1.18-11.81,1.18,70.46-161.38,9.45.79,9.45-.79,68.49,161.38c-2.76,0-7.08,0-11.81-.39-4.72-.39-8.27-.39-9.05-.39-2.76,0-7.08.39-12.2.39-5.12.39-8.27.39-9.05.39-3.54-11.02-6.3-19.29-8.27-24.8-3.54-9.05-6.69-16.93-9.45-23.62ZM3576.44,642.43h44.87l-22.04-53.92-22.83,53.92Z"/>
      <path class="cls-9" d="M3746.48,546v141.3c10.63,0,19.29-.39,26.77-.79,7.48-.39,17.32-1.18,29.52-2.36-.39,1.57-.39,3.54-.79,5.51-.39,1.57-.39,3.15-.39,4.72s.39,3.15.39,4.72c.39,2.36.39,3.94.79,5.12h-92.89v-158.23c2.76,0,6.3,0,11.02.39,4.72.39,7.08.39,7.48.39,2.76,0,5.12,0,7.08-.39,6.69,0,10.63-.39,11.02-.39Z"/>
      <path class="cls-9" d="M3902.35,546h84.23c24.4,0,43.3,7.48,56.68,22.83,11.81,13.38,17.32,30.7,17.32,51.56,0,25.58-8.66,46.05-25.58,61.4-16.53,14.56-37.79,22.04-63.76,22.04h-68.88v-157.84h0ZM3938.96,559.38v131.07h20.86c18.5,0,32.67-4.72,42.51-14.56,11.41-11.41,17.32-30.31,17.32-55.5,0-21.25-5.12-36.61-15.35-46.84-9.45-9.45-23.22-14.17-41.33-14.17h-24.01Z"/>
      <path class="cls-9" d="M4091.67,546h93.68c-.39,1.57-.79,3.54-.79,5.51-.39,1.57-.39,3.15-.39,4.72s.39,3.15.39,4.72c.39,2.36.79,3.94.79,5.12-8.27-1.18-16.93-1.97-25.98-2.36-9.05-.39-19.29-.79-30.7-.79v49.59h25.58c6.3,0,11.41,0,14.96-.39,3.54-.39,8.66-.79,15.35-1.57-.39,1.57-.79,3.54-.79,5.51-.39,1.57-.39,3.15-.39,4.72s.39,3.15.39,4.72c.39,2.36.79,3.94.79,5.12-3.94-.39-8.66-.79-14.56-1.57-5.9-.79-11.02-.79-15.74-.79h-25.58v59.04c11.41,0,22.04-.39,30.7-.79,9.05-.39,17.71-1.18,25.98-2.36-.39,1.57-.79,3.54-.79,5.51-.39,1.57-.39,3.15-.39,4.72s.39,3.15.39,4.72c.39,2.36.79,3.94.79,5.12h-93.68v-158.23Z"/>
      <path class="cls-9" d="M4319.97,546v141.3c10.63,0,19.29-.39,26.77-.79,7.48-.39,17.32-1.18,29.52-2.36-.39,1.57-.79,3.54-.79,5.51-.39,1.57-.39,3.15-.39,4.72s.39,3.15.39,4.72c.39,2.36.39,3.94.79,5.12h-92.89v-158.23c2.76,0,6.3,0,11.02.39,4.72.39,7.08.39,7.48.39,2.76,0,5.12,0,7.08-.39,6.69,0,10.63-.39,11.02-.39Z"/>
      <path class="cls-9" d="M4487.64,656.6h-57.47c-5.12,14.17-9.05,24.4-11.41,31.09-2.36,6.69-4.33,12.6-5.9,17.32l-11.41-1.18-11.81,1.18,70.46-161.38,9.45.79,9.45-.79,68.49,161.38c-2.76,0-7.08,0-12.2-.39-5.12-.39-8.27-.39-9.05-.39-2.76,0-7.08,0-11.81.39-4.72.39-8.27.39-9.05.39-3.54-11.02-6.3-19.29-8.27-24.8-3.54-9.05-6.69-16.93-9.45-23.62ZM4436.87,642.43h44.87l-22.04-53.92-22.83,53.92Z"/>
      <path class="cls-9" d="M4630.13,704.62v-158.62h24.4c10.63,11.02,22.44,23.22,35.03,35.82,7.08,7.08,18.89,19.29,35.82,36.61,16.93,17.32,28.73,29.52,35.03,36.21v-108.64l9.84.79,9.84-.79v159.02l-20.86-.39c-13.78-14.56-27.95-29.13-41.33-43.69-14.56-14.96-28.34-29.13-41.33-42.12l-26.77-26.37v112.57l-9.84-1.18-9.84.79Z"/>
      <path class="cls-9" d="M4901.72,656.6h-57.07c-5.12,14.17-9.05,24.4-11.41,31.09-2.36,6.69-4.33,12.6-5.9,17.32l-11.41-1.18-11.81,1.18,70.06-161.38,9.45.79,9.45-.79,68.49,161.38c-2.76,0-7.08,0-12.2-.39-5.12-.39-8.27-.39-9.05-.39-2.76,0-7.08.39-12.2.39-5.12.39-8.27.39-9.05.39-3.54-11.02-6.3-19.29-8.27-24.8-3.15-9.05-5.9-16.93-9.05-23.62ZM4851.34,642.43h44.87l-22.04-53.92-22.83,53.92Z"/>
      <path class="cls-9" d="M5114.26,676.67l3.15,1.57-5.51,19.68c-7.48,3.54-14.96,5.9-23.22,7.48-8.27,1.57-16.93,2.36-25.58,2.36-26.77,0-48.81-7.08-65.73-21.25-17.32-13.78-27.16-35.03-26.37-57.07,0-28.73,9.45-51.17,28.73-66.52,17.71-14.17,40.54-21.25,68.88-21.25,8.66,0,17.71.79,26.37,2.76,8.27,1.97,16.14,4.72,24.01,8.66-.79,3.15-1.97,6.69-2.76,11.41-.79,4.72-1.97,8.66-2.76,12.6h-3.54c-4.72-6.3-11.02-11.81-18.11-15.35-7.08-3.94-14.96-5.9-22.83-5.9-17.71-.79-34.24,7.87-44.08,22.83-9.45,14.17-13.78,31.09-13.38,48.02,0,20.47,5.12,36.61,15.35,48.81,10.23,12.2,24.8,18.5,43.3,18.5,8.27,0,16.14-1.57,23.62-4.72,7.87-2.76,14.56-7.08,20.47-12.6Z"/>
      <path class="cls-9" d="M5150.87,705.01v-159.02c2.76,0,6.3,0,11.02.39,4.72.39,7.08.39,7.48.39,2.76,0,5.12,0,7.08-.39,7.08-.39,11.02-.79,11.41-.79v159.02c-2.76,0-5.12,0-7.08-.39-7.08-.79-11.02-.79-11.41-.79-2.76,0-6.3,0-10.63.39-4.33.39-7.08,1.18-7.87,1.18Z"/>
      <path class="cls-9" d="M5406.71,624.32c.39,22.44-9.05,44.08-25.98,58.65-18.11,16.53-41.72,24.8-70.85,24.8-27.55,0-49.99-7.08-66.13-21.65-16.14-14.56-24.8-35.03-24.8-61.01-.79-22.44,8.66-44.08,25.19-59.04,17.71-16.53,41.33-24.4,71.24-24.4,31.88,0,55.89,9.45,71.64,27.95,13.38,14.96,20.47,34.64,19.68,54.71ZM5314.61,555.84c-17.32,0-30.7,6.3-40.15,18.5-9.84,12.99-14.56,32.28-14.56,57.47-.39,14.96,3.54,29.91,11.81,42.51,9.05,12.99,24.01,20.47,39.36,19.68,16.93.39,32.67-7.87,41.33-22.44,9.05-13.38,13.38-30.7,13.38-51.56.39-15.35-3.54-30.31-11.81-43.3-8.27-13.78-23.62-21.65-39.36-20.86h0Z"/>
      <path class="cls-9" d="M5435.84,704.62v-158.62h24.4c11.02,11.02,22.44,23.22,35.03,35.82,7.08,7.08,18.89,19.29,36.21,36.61,16.93,17.32,28.73,29.52,35.03,36.21v-108.64l9.84.79,9.84-.79v159.02l-20.86-.39c-13.78-14.56-27.95-29.13-41.33-43.69-14.56-14.96-28.34-29.13-41.33-42.12l-26.77-26.37v112.57l-9.84-1.18-10.23.79Z"/>
      <path class="cls-9" d="M3001.38,403.51l5.51,2.36-9.45,33.85c-12.99,5.9-26.37,10.23-40.15,12.99-14.56,2.76-29.52,3.94-44.48,3.94-46.84,0-85.02-12.2-114.54-36.21-30.7-24.8-46.05-57.47-46.05-97.61,0-49.59,16.53-87.77,49.99-114.15,30.7-24.01,70.85-36.21,120.44-36.21,15.35,0,30.7,1.57,45.66,5.12,14.56,3.15,28.34,7.87,41.72,14.56-1.57,5.12-3.15,11.81-4.72,19.29-1.57,7.48-3.54,14.96-4.72,21.65h-5.9c-8.27-11.02-18.89-20.07-31.09-26.37-12.2-6.69-25.98-10.23-39.75-10.23-33.06,0-58.65,12.99-76.75,38.97-15.35,22.04-23.22,49.59-23.22,82.66,0,35.03,8.66,62.98,26.37,83.84,17.71,20.86,42.9,31.49,75.18,31.49,14.17,0,27.95-2.76,40.94-7.87,12.6-5.51,24.4-12.6,35.03-22.04Z"/>
      <path class="cls-9" d="M3368.23,313.37c.79,38.57-15.74,75.57-44.87,100.76-31.49,28.34-72.82,42.51-123.59,42.51-48.02,0-86.59-12.6-115.33-37.39-28.73-24.8-42.9-59.83-42.9-104.31,0-40.94,14.56-74.79,44.08-101.16,30.7-27.95,72.42-41.72,124.77-41.72,55.5,0,96.83,15.74,124.77,47.63,22.04,25.58,33.06,56.68,33.06,93.68ZM3207.24,196.08c-30.31,0-53.92,10.63-69.67,31.88-16.93,22.44-25.19,55.1-25.19,98.8,0,29.13,6.69,53.14,20.47,72.42,16.14,22.44,38.97,33.85,68.88,33.85,29.13.79,56.68-13.78,72.42-38.57,15.35-23.22,23.22-52.74,23.22-88.56,0-29.52-6.69-53.92-20.47-74-16.53-24.01-39.75-35.82-69.67-35.82Z"/>
      <path class="cls-9" d="M3418.61,451.14V179.15h42.51c18.89,19.29,39.36,39.36,61.4,61.4,12.2,11.81,33.06,32.67,62.58,62.58,29.52,29.91,49.99,50.38,61.01,62.58v-186.57l16.93,1.18,17.32-1.18v272.77l-36.21-.39c-24.01-24.8-48.41-49.99-72.42-75.18-25.19-25.98-49.2-49.99-72.03-72.42l-46.84-45.26v193.26l-16.93-1.97-17.32,1.18Z"/>
      <path class="cls-9" d="M3868.11,207.49v244.43c-4.72,0-8.66,0-11.81-.39-12.2-1.18-18.89-1.57-20.07-1.57-4.72,0-11.02.39-18.89,1.18-7.87.79-12.2.79-13.38.79v-244.43c-14.96,0-28.34.39-39.75,1.18-11.41.79-24.8,2.36-40.15,4.33.39-3.94,1.18-7.08,1.57-9.84.39-2.36.79-4.72.79-7.48,0-3.15-.39-6.69-.79-9.84-.79-2.76-1.18-5.12-1.18-7.08h220.42c-.79,3.54-1.18,7.08-1.57,9.84-.39,2.36-.79,4.72-.79,7.08,0,3.54.39,6.69.79,10.23.79,2.76,1.18,5.12,1.18,7.08-20.86-2.36-33.46-3.54-37.79-3.94-12.6-1.18-25.58-1.57-38.57-1.57Z"/>
      <path class="cls-9" d="M4129.46,368.87h-99.58c-9.05,24.01-15.74,41.72-19.68,53.14-3.94,11.41-7.48,21.25-10.23,29.91l-20.07-1.97-20.47,1.97,122.02-276.31,16.14,1.18,16.14-1.18,119.26,276.31c-5.12,0-12.2-.39-20.86-.79-8.66-.39-14.17-1.18-15.74-1.18-5.12,0-12.2.39-20.86,1.18-8.66.79-14.17.79-15.74.79-6.3-18.89-11.02-33.06-14.56-42.51-5.51-15.35-10.63-28.73-15.74-40.54ZM4041.29,344.47h78.33l-38.18-92.5-40.15,92.5Z"/>
      <path class="cls-9" d="M4275.49,179.15h146.42c42.9,0,75.57,12.99,98.8,39.36,20.07,23.22,30.31,52.35,30.31,88.17,0,44.08-14.96,79.11-44.87,105.49-28.34,25.19-65.34,37.79-111,37.79h-119.66V179.15h0ZM4339.65,202.38v224.75h36.21c32.67,0,57.07-8.27,74-25.19,20.07-20.07,29.91-51.56,29.91-95.25,0-36.21-8.66-62.58-26.37-79.9-16.53-16.14-40.54-24.4-72.03-24.4h-41.72Z"/>
      <path class="cls-9" d="M4610.05,341.32v-162.17c4.72,0,11.02.39,18.89.79,7.87.39,12.2.79,13.38.79,4.72,0,8.66,0,11.81-.39,12.2-1.18,18.89-1.57,20.07-1.57v160.59c0,9.84,1.18,19.68,3.15,29.52,1.57,8.27,3.94,16.53,7.08,24.4,3.54,7.48,8.66,14.17,15.35,19.29,13.38,11.41,31.1,17.71,48.81,16.93,20.47,0,36.21-3.54,47.63-10.63,11.41-7.08,20.86-19.68,28.73-37.39,3.94-10.23,6.3-21.25,6.3-32.67.79-14.17,1.18-30.7,1.18-49.59v-120.05l16.93,1.18,16.93-1.18v141.3c0,29.13-1.97,50.38-5.9,63.76-6.3,21.25-20.47,39.75-39.36,51.17-11.41,7.48-24.01,12.99-37.39,16.14-14.17,3.15-29.13,5.12-43.69,5.12-29.52,0-54.71-4.72-75.18-13.78-24.8-11.41-40.94-29.13-48.41-52.74-2.36-7.87-4.33-15.74-5.12-23.62-.79-8.66-1.18-16.93-1.18-25.19Z"/>
      <path class="cls-9" d="M4936.75,451.92V179.15h91.32c19.68,0,34.24.39,43.3.79,9.05.79,18.11,3.15,25.98,7.08,24.8,12.2,37.39,31.09,37.39,56.68.39,17.32-5.9,34.24-18.11,46.84-11.81,12.6-28.34,20.86-48.81,24.8,11.02,18.11,26.77,41.33,46.45,70.06,13.38,18.89,23.22,33.06,29.13,41.72l16.53,24.8c-5.51,0-12.6-.39-22.04-.79-9.45-.39-14.96-1.18-16.93-1.18-5.51,0-12.6.39-22.04,1.18-9.45.79-14.96.79-16.53.79l-50.38-83.44-27.95-44.08h-3.15v127.53c-4.72,0-8.66,0-11.81-.39-12.2-1.18-18.89-1.57-20.07-1.57-4.72,0-11.02.39-18.89,1.18-7.87.79-12.2.79-13.38.79ZM5000.91,201.2v106.27c1.97.39,3.54.39,5.51.39h5.51c37.39,0,55.89-18.89,55.89-57.07,0-6.69-.79-13.38-1.97-19.68-1.57-11.41-9.05-20.86-19.68-25.19-7.08-2.76-18.11-4.33-33.06-4.33l-12.2-.39Z"/>
      <path class="cls-9" d="M5205.19,451.92V179.15c4.72,0,11.02.39,18.89.79,7.87.39,12.2.79,13.38.79,4.72,0,8.66,0,11.81-.39,12.2-1.18,18.89-1.57,20.07-1.57v272.77c-4.72,0-8.66,0-11.81-.39-12.2-1.18-18.89-1.57-20.07-1.57-4.72,0-11.02.39-18.89,1.18-7.87.79-12.2,1.18-13.38,1.18Z"/>
      <path class="cls-9" d="M5484.65,368.87h-99.58c-9.05,24.01-15.74,41.72-20.07,53.14-4.33,11.41-7.48,21.25-9.84,29.91l-20.07-1.97-20.47,1.97,122.02-276.31,16.14,1.18,16.53-1.18,119.26,276.31c-5.12,0-12.2-.39-20.86-.79-8.66-.39-14.17-1.18-15.74-1.18-5.12,0-12.2.39-20.86,1.18-8.66.79-14.17.79-15.74.79-6.3-18.89-11.02-33.06-14.56-42.51-5.51-15.35-11.02-28.73-16.14-40.54ZM5396.48,344.47h78.33l-38.18-92.5-40.15,92.5Z"/>
      <path class="cls-9" d="M5217,158.69c-.79,3.15,1.18,6.3,4.33,7.48.79.39,1.97.39,2.76,0l61.8-41.72s9.05-4.72,3.15-23.22c0,0-18.89-11.81-27.55,0l-42.51,54.71"/>
      <path class="cls-9" d="M5321.7,527.5c-.79,2.76.79,5.51,3.54,6.3.79,0,1.57.39,2.36,0l51.96-35.03s7.48-3.94,2.76-19.68c0,0-16.14-9.84-23.22,0l-35.42,46.05"/>
    </g>
  </g>
  <g>
    <path class="cls-12" d="M247.08,1204.33c-26.9,0-50.49-7.5-70.11-22.3-7.72-5.86-15.28-13.22-22.48-21.86l2.52-5.37h4.09l2.4,1.05c8.01,8.65,14.73,14.83,21.15,19.45,17.62,12.79,38.52,19.27,62.14,19.27,19.62,0,37.94-3.08,54.43-9.15,16.01-6.01,30.46-14.17,44.14-24.94,12.5-9.84,24.16-21.31,34.71-34.13-28.76-15.56-52.4-34.37-70.3-55.96-18.74-22.3-28.24-46.04-28.24-70.52,0-15.14,2.92-27.44,8.7-36.55,5.58-9.31,13.26-16.24,22.76-20.53,9.27-4.32,19-6.43,29.72-6.43,17.29,0,32.79,2.75,47.39,8.41,14.52,5.74,27.79,13.38,39.46,22.72,10.66,8.53,20.24,17.88,29.18,28.5,11.15-21.8,23.79-44.73,37.6-68.25,14-23.84,29.15-44.77,46.29-63.98,16.7-18.75,36.5-34.15,58.84-45.76,22.32-11.31,48.5-17.04,77.84-17.04,13.28,0,15.26,7.73,15.26,12.34,0,3.05-1.03,5.16-1.93,6.66-1.51,2.53-3.76,3.93-6.31,3.93-4.56,0-12.5,3.8-24.47,21.93-10.26,15.11-21.09,35.5-32.2,60.64-10.87,23.96-21.55,50.76-32.67,81.96-9.73,26.81-19.08,55.63-28.6,88.14-8.35,28.5-14.46,52.58-18.61,73.4,16.79-3.38,31.87-10.9,44.89-22.38,14.47-12.77,27.17-32.15,37.75-57.59l3.02-2.02h3.51l3.05,4.46c-12.18,31.18-26.79,53.59-43.44,66.61-15.92,12.51-33.07,20.1-50.99,22.59-2.79,15.7-4.2,28.87-4.2,39.17l-3.41,3.27c-7.64-.33-14.05-2.45-19.61-6.47-6.15-4.44-9.47-10.58-10.12-18.77,0-3.91.54-8.95,1.75-16.2-43.69-2.66-84.19-12.84-120.46-30.3-12.35,14.53-24.72,26.5-37.76,36.55-14.94,11.29-30.63,19.76-47.99,25.94-18.05,6.42-37.25,9.55-58.7,9.55ZM398.9,1123.03c32.88,16.56,71.63,26.2,115.27,28.69l3.55-14.93c-11.95-41.32-30.73-80.53-55.86-116.63-22.88,43.75-44.04,78.32-62.97,102.88ZM343.58,949.31c-8.42,0-16.39,1.85-23.69,5.5-7.1,3.82-12.74,9.66-16.69,17.29-4.49,8.14-6.65,18.14-6.65,30.67,0,19.13,8.32,39.31,24.73,59.96,15.87,20.6,38.11,38.93,66.16,54.55,12.61-16.53,23.75-33.4,34.01-51.49,11.68-20.84,21.88-39.72,31.13-57.65-32.27-39.58-67.94-58.83-109-58.83ZM468.24,1007.74c23.43,31.45,42.1,67.4,55.59,107.02,6.22-21.25,12.97-42.17,20.5-63.65,10.57-30.12,21.02-57.63,31.94-84.1,11.36-28.26,23.2-54.91,35.18-79.16,11.93-24.76,23.02-44.24,33.9-59.53,5.1-7.22,9.87-12.77,14.38-16.7-19.84,1.7-37.67,6.74-53.16,15.05-19.76,10.6-37.65,25.01-53.18,42.84-15.69,17.97-29.82,37.98-43.21,61.19-12.57,21.78-25.53,45.55-38.53,70.64l-3.42,6.39Z"/>
    <path class="cls-12" d="M731.33,1143.2c-27.36,0-33.1-15.62-33.1-28.72,0-8.82,2.13-19.23,6.33-30.93,4.23-11.77,8.66-22.94,13.53-34.13,3.78-8.92,7.77-18.38,11.06-27.05,2.96-7.82,4.47-14.51,4.47-19.9,0-6.4-2.61-9.01-9.01-9.01-5.5,0-15.57,4.31-32.26,24.82-5.12,6.2-11.32,14.56-18.97,25.56l-41.69,96.79-2.92,1.98-21.06.58-3.13-4.49,61.42-152.66,3.04-2.05h26.32l2.99,4.61-6.2,13.89c11.51-12.3,22.31-18.5,32.16-18.5,27.12,0,32.81,15.14,32.81,27.84,0,9.03-2.14,19.26-6.35,30.41-4.88,12.9-9.18,23.54-13.52,33.49-10.7,23.41-16.1,39.49-16.1,47.83,0,6.63,3.23,9.59,10.47,9.59,13.21,0,25.21-10.61,35.68-31.53.53-1.05,2.84-6.34,6.34-14.33l7.63-17.4,3-1.96h3.51l3,4.6-4.39,9.94c-4.84,12.81-11.63,26.01-20.14,39.07-8.74,13.42-20.42,20.71-34.7,21.66h-.22Z"/>
    <path class="cls-12" d="M812.91,1143.2c-13.08,0-22.81-4.08-28.93-12.11-6.05-7.65-9.15-17.39-9.15-28.89,0-9.73,2.07-20.23,6.33-32.1,13.32-37.19,25.27-68.64,31.96-84.12l3.04-1.98,26.03.29,2.96,4.6-37.14,83.64c-6.98,16.76-10.54,30.8-10.54,41.66,0,12.68,5.02,18.7,15.81,18.96,6.44,0,12.35-3,17.98-9.17,6.09-6.66,11.38-14.55,16.16-24.11,5.1-10.21,9.58-20.43,13.66-29.95l3.01-1.98h3.51l3,4.59c-6.47,14.72-11.73,25.82-15.62,33-13.1,24.99-27.26,37.68-42.06,37.68ZM841.57,969.78c-4.27,0-7.99-1.28-11.37-3.91-3.36-2.61-5.06-5.84-5.06-9.6,0-4,1.66-7.24,5.06-9.89,3.17-2.47,6.79-3.62,11.37-3.62s8.2,1.15,11.37,3.62c3.41,2.65,5.07,5.89,5.07,9.89,0,3.76-1.7,6.99-5.07,9.6-3.37,2.63-7.09,3.91-11.36,3.91Z"/>
    <path class="cls-12" d="M889.23,1143.2c-31.71,0-38.37-17.21-38.37-31.64s7.27-37.78,22.23-70.39c4.45-10.29,8.55-20.21,12.5-30.25,3.38-9.3,5.04-16.78,5.04-22.78l3.27-3.27c3.01,0,5.9.43,8.84,1.31,3.45,1.15,6.42,2.94,8.69,5.21,2.58,2.58,3.88,6.5,3.88,11.67,0,8.83-2.18,18.52-6.67,29.6-4.4,10.86-9.46,21.87-15.03,32.73-5.74,11.47-10.29,21.52-13.9,30.7-3.88,9.14-5.92,17.3-5.92,23.66s1.96,13.4,17.2,13.4c11.18,0,25.67-10.89,41.87-31.5,5.7-7.41,13.22-18.11,22.33-31.77,4.33-18.14,8.15-32.21,11.35-41.82,9.94-30.46,18.57-44.06,27.96-44.06,6.08,0,9.7,3.74,9.7,10,0,10.5-8.39,29.14-25.64,56.99-6.68,10.02-10.04,20.34-10.04,30.74s4.31,14.57,13.98,14.57,18.03-8.84,24.73-26.27l3.06-2.1h3.51l2.93,4.74-1.08,2.17c-1.41,3.92-3.42,8.33-5.98,13.12-3.11,5.2-6.59,9.41-10.42,12.65-4.81,3.78-10.87,5.75-17.62,5.75-7.95,0-13.72-2.07-17.62-6.33-3.6-3.93-5.93-8.28-6.93-12.93-.13-.57-.26-1.12-.37-1.65-25.23,38.85-47.35,57.76-67.49,57.76Z"/>
    <path class="cls-12" d="M1051.24,1143.2c-10.62,0-19.6-2.45-26.71-7.3-6.92-4.72-12.05-11.33-15.25-19.66-3.28-7.44-4.9-15.91-4.9-25.74,0-11.52,2.13-23.58,6.32-35.86,4.38-12.84,10.55-24.47,18.35-34.58,7.92-10.66,17.38-19.4,28.08-25.94,11-6.72,23.38-10.13,36.8-10.13,14.96,0,22.87,8.01,22.87,23.16,0,9.27-2.88,19.42-8.56,30.19-5.97,11.31-12.99,20.5-21.47,28.11-9.07,8.12-18.75,12.24-28.8,12.24-8.32,0-15.81-3.02-21.94-8.79-3.46,12.07-5.2,23.05-5.2,32.72,0,21.22,8.3,31.53,25.39,31.53,10.67,0,20.31-2.68,28.67-7.97,18.25-11.69,32.48-30.26,42.28-55.17l3.34-2.06,3.22.29,2.82,4.27c-3.9,12-10.96,24.48-21.59,38.14-17.04,21.61-38.47,32.56-63.7,32.56ZM1039.66,1058.33c6.11,6.46,12.21,9.6,18.59,9.6,7.89,0,15.51-3.35,22.63-9.95,7.96-7.36,14.32-15.62,18.9-24.54,4.73-9.17,7.26-17.85,7.54-25.81,0-9.89-4.1-14.16-13.69-14.16-12.96,0-25.88,10.87-38.41,32.3-8.24,14.28-13.35,24.96-15.57,32.56Z"/>
    <path class="cls-12" d="M1206.52,1143.5c-30.31,0-45.68-9.76-45.68-29.01,0-8.03,2.16-17.03,6.42-26.76,3.84-8.78,8.5-18.48,13.83-28.85,4.36-8.45,9.35-18.34,13.36-27.58,3.7-8.55,5.58-15.99,5.58-22.09,0-4.29,0-17.14-27.94-17.76l-35.69,81.08-3,1.95h-3.22l-3-4.59,35.12-79.72c-2.69-.62-5.2-1.63-7.5-3.01-4.95-3.04-7.44-7.92-7.44-14.5,0-4.72,2.38-8.67,7.26-12.05,4.58-2.82,8.66-4.09,12.97-4.09,3.63,0,13.27,0,14.07,6.37l.03.41c0,2.32-.94,5.3-2.97,9.36-1.96,4.19-2.5,6.71-2.57,8.14,36.72.22,44.45,19.53,44.45,35.73,0,9.01-1.58,18.42-4.83,28.76-2.79,8.88-5.94,17.33-9.27,26.27l-1.6,4.3c-8.53,22.05-12.66,36.68-12.66,44.78,0,9.06,4.49,13.1,14.56,13.1,11.39,0,22.61-10.62,33.35-31.56l14.86-32.34,2.97-1.91h3.22l3.02,4.53c-3.97,9.53-8.5,19.36-13.84,30.04-13.76,27.21-28.51,41-43.87,41Z"/>
    <path class="cls-12" d="M1282.54,1142.91c-11.36,0-20.56-3.92-27.32-11.64-6.75-7.71-10.17-17.29-10.17-28.48,0-3.53.74-8.52,2.41-16.2,1.56-7.18,4.1-12.82,7.76-17.21,28.68-56.78,45.14-89.7,48.91-97.82,5.3-10.6,12.78-15.94,22.27-15.94,5.81,0,15.55,2.25,15.55,17.31,0,6.72-2.09,12.22-6.22,16.35-4.12,4.13-8.45,6.22-12.84,6.22s-8.26-1.73-11.76-5.14c-.12-.03-.35-.08-.71-.1,1.24,19.72,6.25,36.81,15.28,52.06,4.44,8.87,7.93,16.82,10.78,24.51,3.05,8.22,4.59,16.77,4.59,25.41,0,11.21-3.16,20.9-9.44,29,10.81-7.65,20.23-18.86,28.45-33.8,6.12-11.16,7.54-15.38,7.84-16.9l3.21-2.64h3.51l3.27,3.27c0,1.39,0,5.08-11.26,24.46-18.39,31.36-43.15,47.25-73.6,47.25h-10.53ZM1269.49,1063.06c3.11.35,5.64,1.62,7.38,3.71,1.86,2.23,2.8,4.7,2.8,7.36,0,4.99-2.66,11.13-15.32,12.04-1.68,0-3.87.5-6.12,4.71-2.07,3.89-3.12,8.58-3.12,13.96,0,6.82,2.35,13.14,7.2,19.33,4.67,5.96,12.07,8.98,21.99,8.98,8.76,0,15-3.48,19.09-10.63,4.37-7.65,6.59-16.25,6.59-25.57,0-17.22-2.33-36.16-6.94-56.3-2.43-12.11-4.03-22.93-4.8-32.35l-28.75,54.77Z"/>
    <path class="cls-12" d="M1479.35,1143.2c-12.74,0-22.53-3.82-29.09-11.36-6.18-6.76-9.42-15.17-9.82-25.6-2.29,3.97-4.5,7.54-6.64,10.68-11.62,17.43-23.07,26.29-34,26.29s-19.74-3.47-26.59-10.32c-6.75-6.75-10.32-17.06-10.32-29.81,0-10.7,1.95-22.66,5.97-36.58,3.96-13.7,9.48-26.64,16.4-38.47,7.19-12.28,15.89-22.8,25.86-31.26,10.37-8.48,22.09-12.77,34.87-12.77,6.77,0,12.19,1.63,16.11,4.83,3.84,3.15,6.72,7.18,8.32,11.67.57,1.59,1.02,3.19,1.37,4.84l7.71-19.28,3.04-2.06h26.32l2.99,4.6-37.14,83.93c-7.19,16.38-10.83,30.5-10.83,41.96,0,12.48,5.02,18.41,15.81,18.66,6.42,0,12.23-2.91,17.69-8.88,6.44-7.05,11.98-15.17,16.45-24.11,5.2-10.41,9.79-20.56,13.63-30.17l3.04-2.06h3.51l3,4.59c-6.47,14.71-11.72,25.81-15.62,33-13.1,24.99-27.26,37.68-42.06,37.68ZM1448.35,993.47c-6.69,0-14.66,6.24-23.68,18.55-9.74,13.17-18.02,28.8-25.32,47.79-7.04,18.3-10.6,36.21-10.6,53.22,0,5.93,1.22,10.97,3.63,14.99,2.07,3.46,4.6,5.14,7.72,5.14,4.92,0,9.97-2.9,15.42-8.88,9.2-10.03,18.46-24.91,27.53-44.22,2.67-5.88,8.48-21.05,19.38-50.64.73-4.22,1.07-8.23,1.07-12.6,0-3.26-.45-6.95-1.39-11.3-.76-3.56-2.23-6.51-4.5-9.03-1.9-1.9-5.24-3.01-9.26-3.01Z"/>
    <path class="cls-12" d="M1606.85,1143.5c-30.31,0-45.68-9.76-45.68-29.01,0-8.03,2.16-17.03,6.42-26.76,3.83-8.77,8.49-18.47,13.83-28.85,4.37-8.47,9.37-18.37,13.36-27.58,3.7-8.55,5.58-15.98,5.58-22.09,0-4.29,0-17.14-27.94-17.76l-35.69,81.08-3,1.95h-3.22l-3-4.59,35.13-79.72c-2.69-.62-5.2-1.63-7.5-3.01-4.95-3.05-7.44-7.92-7.44-14.5,0-4.72,2.38-8.66,7.26-12.05,4.58-2.82,8.66-4.09,12.98-4.09,3.28,0,13.27,0,14.07,6.37l.03.41c0,2.32-.95,5.3-2.98,9.36-1.96,4.2-2.5,6.71-2.57,8.14,36.72.22,44.45,19.53,44.45,35.73,0,9.02-1.58,18.43-4.83,28.76-2.8,8.92-5.97,17.41-9.32,26.39l-1.56,4.18c-8.53,22.05-12.66,36.68-12.66,44.78,0,9.06,4.49,13.1,14.56,13.1,11.39,0,22.61-10.62,33.35-31.56l14.85-32.34,2.98-1.91h3.22l3.02,4.53c-3.97,9.52-8.5,19.35-13.84,30.03-13.76,27.21-28.51,41-43.87,41Z"/>
    <path class="cls-12" d="M1686.97,1143.2c-13.09,0-22.82-4.08-28.93-12.11-6.06-7.65-9.15-17.38-9.15-28.89,0-9.73,2.07-20.23,6.33-32.11,13.31-37.16,25.26-68.61,31.95-84.12l3.04-1.98,26.03.29,2.96,4.6-37.14,83.64c-6.98,16.76-10.54,30.8-10.54,41.66,0,12.68,5.02,18.7,15.81,18.96,6.44,0,12.35-3,17.98-9.17,6.09-6.66,11.38-14.55,16.16-24.11,5.09-10.18,9.58-20.41,13.67-29.95l3.01-1.98h3.51l3,4.59c-6.48,14.74-11.74,25.84-15.62,33-13.11,24.99-27.26,37.68-42.06,37.68ZM1715.63,969.78c-4.27,0-7.99-1.28-11.37-3.91-3.36-2.62-5.06-5.85-5.06-9.6,0-4,1.65-7.24,5.06-9.89,3.17-2.47,6.79-3.62,11.38-3.62s8.2,1.15,11.37,3.61c3.41,2.65,5.07,5.89,5.07,9.9,0,3.76-1.7,6.99-5.07,9.6-3.37,2.63-7.09,3.91-11.36,3.91Z"/>
    <path class="cls-12" d="M1765.33,1143.2c-9.37,0-16.45-2.06-21.66-6.29-5.03-3.77-8.65-8.86-10.97-15.5-2.22-6.02-3.4-12.89-3.4-19.8,0-10.39,2.25-22.21,6.89-36.13,4.37-13.12,10.9-26.08,19.41-38.54,7.91-12,18.04-22.34,30.09-30.68,11.93-8.26,24.79-12.28,39.3-12.28,22.8,0,34.86,11.85,34.86,34.27,0,20.02-7.25,41.95-21.54,65.18-4.65,7.66-11.31,17.18-20.29,29.05,4.95,9.24,12.31,13.92,21.89,13.92,3.05,0,6.86-1.51,11.99-4.76,5-2.9,10.57-8.59,16.64-16.99,6.05-8.35,12.12-20.02,18.04-34.69l3.04-2.05h3.51l3.01,4.55c-10.05,23.76-19.57,39.8-29.1,49.04-10.06,10.05-18.95,14.96-27.14,14.96-13.06,0-22.94-5.29-29.44-15.75-4.38,4.27-7.67,7.18-10.42,9.24-11.02,8.88-22.4,13.23-34.72,13.23ZM1824.99,993.47c-7.17,0-14.97,4.02-23.17,11.95-8.57,8.57-16.55,19.44-23.69,32.29-7.47,13.44-13.38,27.2-17.57,40.9-4.56,14.27-6.87,27.12-6.87,38.23,0,14.46,6.69,16.32,12.52,16.32,9.58,0,19.05-3.88,28.94-11.85,3.8-3.04,7.39-6.56,10.94-10.72-2.64-8.05-3.97-15.09-3.97-20.95,0-11.31,2.59-20.44,7.69-27.13,5.02-7.04,10.54-10.65,16.34-10.65s9.87,2.92,12.8,8.67l.1-.18c7.32-14.36,11.03-27.14,11.03-37.97,0-8.76-1.7-15.95-5.07-21.38-3.13-5.06-9.68-7.52-20.03-7.52ZM1824.99,1062.78c-2.56,0-5.17,2.13-7.73,6.33-2.97,5.13-4.49,11.76-4.49,19.64,0,3.67.5,7.72,1.5,12.26,7.47-9.35,13.38-18.38,17.62-26.91-.29-2.78-.95-5.38-2.04-8.11-1.42-2.81-3.35-3.2-4.86-3.2Z"/>
  </g>
  <g>
    <path class="cls-13" d="M240.08,1204.33c-26.9,0-50.49-7.5-70.11-22.3-7.72-5.86-15.28-13.22-22.48-21.86l2.52-5.37h4.09l2.4,1.05c8.01,8.65,14.73,14.83,21.15,19.45,17.62,12.79,38.52,19.27,62.14,19.27,19.62,0,37.94-3.08,54.43-9.15,16.01-6.01,30.46-14.17,44.14-24.94,12.5-9.84,24.16-21.31,34.71-34.13-28.76-15.56-52.4-34.37-70.3-55.96-18.74-22.3-28.24-46.04-28.24-70.52,0-15.14,2.92-27.44,8.7-36.55,5.58-9.31,13.26-16.24,22.76-20.53,9.27-4.32,19-6.43,29.72-6.43,17.29,0,32.79,2.75,47.39,8.41,14.52,5.74,27.79,13.38,39.46,22.72,10.66,8.53,20.24,17.88,29.18,28.5,11.15-21.8,23.79-44.73,37.6-68.25,14-23.84,29.15-44.77,46.29-63.98,16.7-18.75,36.5-34.15,58.84-45.76,22.32-11.31,48.5-17.04,77.84-17.04,13.28,0,15.26,7.73,15.26,12.34,0,3.05-1.03,5.16-1.93,6.66-1.51,2.53-3.76,3.93-6.31,3.93-4.56,0-12.5,3.8-24.47,21.93-10.26,15.11-21.09,35.5-32.2,60.64-10.87,23.96-21.55,50.76-32.67,81.96-9.73,26.81-19.08,55.63-28.6,88.14-8.35,28.5-14.46,52.58-18.61,73.4,16.79-3.38,31.87-10.9,44.89-22.38,14.47-12.77,27.17-32.15,37.75-57.59l3.02-2.02h3.51l3.05,4.46c-12.18,31.18-26.79,53.59-43.44,66.61-15.92,12.51-33.07,20.1-50.99,22.59-2.79,15.7-4.2,28.87-4.2,39.17l-3.41,3.27c-7.64-.33-14.05-2.45-19.61-6.47-6.15-4.44-9.47-10.58-10.12-18.77,0-3.91.54-8.95,1.75-16.2-43.69-2.66-84.19-12.84-120.46-30.3-12.35,14.53-24.72,26.5-37.76,36.55-14.94,11.29-30.63,19.76-47.99,25.94-18.05,6.42-37.25,9.55-58.7,9.55ZM391.9,1123.03c32.88,16.56,71.63,26.2,115.27,28.69l3.55-14.93c-11.95-41.32-30.73-80.53-55.86-116.63-22.88,43.75-44.04,78.32-62.97,102.88ZM336.58,949.31c-8.42,0-16.39,1.85-23.69,5.5-7.1,3.82-12.74,9.66-16.69,17.29-4.49,8.14-6.65,18.14-6.65,30.67,0,19.13,8.32,39.31,24.73,59.96,15.87,20.6,38.11,38.93,66.16,54.55,12.61-16.53,23.75-33.4,34.01-51.49,11.68-20.84,21.88-39.72,31.13-57.65-32.27-39.58-67.94-58.83-109-58.83ZM461.24,1007.74c23.43,31.45,42.1,67.4,55.59,107.02,6.22-21.25,12.97-42.17,20.5-63.65,10.57-30.12,21.02-57.63,31.94-84.1,11.36-28.26,23.2-54.91,35.18-79.16,11.93-24.76,23.02-44.24,33.9-59.53,5.1-7.22,9.87-12.77,14.38-16.7-19.84,1.7-37.67,6.74-53.16,15.05-19.76,10.6-37.65,25.01-53.18,42.84-15.69,17.97-29.82,37.98-43.21,61.19-12.57,21.78-25.53,45.55-38.53,70.64l-3.42,6.39Z"/>
    <path class="cls-14" d="M724.33,1143.2c-27.36,0-33.1-15.62-33.1-28.72,0-8.82,2.13-19.23,6.33-30.93,4.23-11.77,8.66-22.94,13.53-34.13,3.78-8.92,7.77-18.38,11.06-27.05,2.96-7.82,4.47-14.51,4.47-19.9,0-6.4-2.61-9.01-9.01-9.01-5.5,0-15.57,4.31-32.26,24.82-5.12,6.2-11.32,14.56-18.97,25.56l-41.69,96.79-2.92,1.98-21.06.58-3.13-4.49,61.42-152.66,3.04-2.05h26.32l2.99,4.61-6.2,13.89c11.51-12.3,22.31-18.5,32.16-18.5,27.12,0,32.81,15.14,32.81,27.84,0,9.03-2.14,19.26-6.35,30.41-4.88,12.9-9.18,23.54-13.52,33.49-10.7,23.41-16.1,39.49-16.1,47.83,0,6.63,3.23,9.59,10.47,9.59,13.21,0,25.21-10.61,35.68-31.53.53-1.05,2.84-6.34,6.34-14.33l7.63-17.4,3-1.96h3.51l3,4.6-4.39,9.94c-4.84,12.81-11.63,26.01-20.14,39.07-8.74,13.42-20.42,20.71-34.7,21.66h-.22Z"/>
    <path class="cls-15" d="M805.91,1143.2c-13.08,0-22.81-4.08-28.93-12.11-6.05-7.65-9.15-17.39-9.15-28.89,0-9.73,2.07-20.23,6.33-32.1,13.32-37.19,25.27-68.64,31.96-84.12l3.04-1.98,26.03.29,2.96,4.6-37.14,83.64c-6.98,16.76-10.54,30.8-10.54,41.66,0,12.68,5.02,18.7,15.81,18.96,6.44,0,12.35-3,17.98-9.17,6.09-6.66,11.38-14.55,16.16-24.11,5.1-10.21,9.58-20.43,13.66-29.95l3.01-1.98h3.51l3,4.59c-6.47,14.72-11.73,25.82-15.62,33-13.1,24.99-27.26,37.68-42.06,37.68ZM834.57,969.78c-4.27,0-7.99-1.28-11.37-3.91-3.36-2.61-5.06-5.84-5.06-9.6,0-4,1.66-7.24,5.06-9.89,3.17-2.47,6.79-3.62,11.37-3.62s8.2,1.15,11.37,3.62c3.41,2.65,5.07,5.89,5.07,9.89,0,3.76-1.7,6.99-5.07,9.6-3.37,2.63-7.09,3.91-11.36,3.91Z"/>
    <path class="cls-16" d="M882.23,1143.2c-31.71,0-38.37-17.21-38.37-31.64s7.27-37.78,22.23-70.39c4.45-10.29,8.55-20.21,12.5-30.25,3.38-9.3,5.04-16.78,5.04-22.78l3.27-3.27c3.01,0,5.9.43,8.84,1.31,3.45,1.15,6.42,2.94,8.69,5.21,2.58,2.58,3.88,6.5,3.88,11.67,0,8.83-2.18,18.52-6.67,29.6-4.4,10.86-9.46,21.87-15.03,32.73-5.74,11.47-10.29,21.52-13.9,30.7-3.88,9.14-5.92,17.3-5.92,23.66s1.96,13.4,17.2,13.4c11.18,0,25.67-10.89,41.87-31.5,5.7-7.41,13.22-18.11,22.33-31.77,4.33-18.14,8.15-32.21,11.35-41.82,9.94-30.46,18.57-44.06,27.96-44.06,6.08,0,9.7,3.74,9.7,10,0,10.5-8.39,29.14-25.64,56.99-6.68,10.02-10.04,20.34-10.04,30.74s4.31,14.57,13.98,14.57,18.03-8.84,24.73-26.27l3.06-2.1h3.51l2.93,4.74-1.08,2.17c-1.41,3.92-3.42,8.33-5.98,13.12-3.11,5.2-6.59,9.41-10.42,12.65-4.81,3.78-10.87,5.75-17.62,5.75-7.95,0-13.72-2.07-17.62-6.33-3.6-3.93-5.93-8.28-6.93-12.93-.13-.57-.26-1.12-.37-1.65-25.23,38.85-47.35,57.76-67.49,57.76Z"/>
    <path class="cls-18" d="M1044.24,1143.2c-10.62,0-19.6-2.45-26.71-7.3-6.92-4.72-12.05-11.33-15.25-19.66-3.28-7.44-4.9-15.91-4.9-25.74,0-11.52,2.13-23.58,6.32-35.86,4.38-12.84,10.55-24.47,18.35-34.58,7.92-10.66,17.38-19.4,28.08-25.94,11-6.72,23.38-10.13,36.8-10.13,14.96,0,22.87,8.01,22.87,23.16,0,9.27-2.88,19.42-8.56,30.19-5.97,11.31-12.99,20.5-21.47,28.11-9.07,8.12-18.75,12.24-28.8,12.24-8.32,0-15.81-3.02-21.94-8.79-3.46,12.07-5.2,23.05-5.2,32.72,0,21.22,8.3,31.53,25.39,31.53,10.67,0,20.31-2.68,28.67-7.97,18.25-11.69,32.48-30.26,42.28-55.17l3.34-2.06,3.22.29,2.82,4.27c-3.9,12-10.96,24.48-21.59,38.14-17.04,21.61-38.47,32.56-63.7,32.56ZM1032.66,1058.33c6.11,6.46,12.21,9.6,18.59,9.6,7.89,0,15.51-3.35,22.63-9.95,7.96-7.36,14.32-15.62,18.9-24.54,4.73-9.17,7.26-17.85,7.54-25.81,0-9.89-4.1-14.16-13.69-14.16-12.96,0-25.88,10.87-38.41,32.3-8.24,14.28-13.35,24.96-15.57,32.56Z"/>
    <path class="cls-20" d="M1199.52,1143.5c-30.31,0-45.68-9.76-45.68-29.01,0-8.03,2.16-17.03,6.42-26.76,3.84-8.78,8.5-18.48,13.83-28.85,4.36-8.45,9.35-18.34,13.36-27.58,3.7-8.55,5.58-15.99,5.58-22.09,0-4.29,0-17.14-27.94-17.76l-35.69,81.08-3,1.95h-3.22l-3-4.59,35.12-79.72c-2.69-.62-5.2-1.63-7.5-3.01-4.95-3.04-7.44-7.92-7.44-14.5,0-4.72,2.38-8.67,7.26-12.05,4.58-2.82,8.66-4.09,12.97-4.09,3.63,0,13.27,0,14.07,6.37l.03.41c0,2.32-.94,5.3-2.97,9.36-1.96,4.19-2.5,6.71-2.57,8.14,36.72.22,44.45,19.53,44.45,35.73,0,9.01-1.58,18.42-4.83,28.76-2.79,8.88-5.94,17.33-9.27,26.27l-1.6,4.3c-8.53,22.05-12.66,36.68-12.66,44.78,0,9.06,4.49,13.1,14.56,13.1,11.39,0,22.61-10.62,33.35-31.56l14.86-32.34,2.97-1.91h3.22l3.02,4.53c-3.97,9.53-8.5,19.36-13.84,30.04-13.76,27.21-28.51,41-43.87,41Z"/>
    <path class="cls-21" d="M1275.54,1142.91c-11.36,0-20.56-3.92-27.32-11.64-6.75-7.71-10.17-17.29-10.17-28.48,0-3.53.74-8.52,2.41-16.2,1.56-7.18,4.1-12.82,7.76-17.21,28.68-56.78,45.14-89.7,48.91-97.82,5.3-10.6,12.78-15.94,22.27-15.94,5.81,0,15.55,2.25,15.55,17.31,0,6.72-2.09,12.22-6.22,16.35-4.12,4.13-8.45,6.22-12.84,6.22s-8.26-1.73-11.76-5.14c-.12-.03-.35-.08-.71-.1,1.24,19.72,6.25,36.81,15.28,52.06,4.44,8.87,7.93,16.82,10.78,24.51,3.05,8.22,4.59,16.77,4.59,25.41,0,11.21-3.16,20.9-9.44,29,10.81-7.65,20.23-18.86,28.45-33.8,6.12-11.16,7.54-15.38,7.84-16.9l3.21-2.64h3.51l3.27,3.27c0,1.39,0,5.08-11.26,24.46-18.39,31.36-43.15,47.25-73.6,47.25h-10.53ZM1262.49,1063.06c3.11.35,5.64,1.62,7.38,3.71,1.86,2.23,2.8,4.7,2.8,7.36,0,4.99-2.66,11.13-15.32,12.04-1.68,0-3.87.5-6.12,4.71-2.07,3.89-3.12,8.58-3.12,13.96,0,6.82,2.35,13.14,7.2,19.33,4.67,5.96,12.07,8.98,21.99,8.98,8.76,0,15-3.48,19.09-10.63,4.37-7.65,6.59-16.25,6.59-25.57,0-17.22-2.33-36.16-6.94-56.3-2.43-12.11-4.03-22.93-4.8-32.35l-28.75,54.77Z"/>
    <path class="cls-22" d="M1472.35,1143.2c-12.74,0-22.53-3.82-29.09-11.36-6.18-6.76-9.42-15.17-9.82-25.6-2.29,3.97-4.5,7.54-6.64,10.68-11.62,17.43-23.07,26.29-34,26.29s-19.74-3.47-26.59-10.32c-6.75-6.75-10.32-17.06-10.32-29.81,0-10.7,1.95-22.66,5.97-36.58,3.96-13.7,9.48-26.64,16.4-38.47,7.19-12.28,15.89-22.8,25.86-31.26,10.37-8.48,22.09-12.77,34.87-12.77,6.77,0,12.19,1.63,16.11,4.83,3.84,3.15,6.72,7.18,8.32,11.67.57,1.59,1.02,3.19,1.37,4.84l7.71-19.28,3.04-2.06h26.32l2.99,4.6-37.14,83.93c-7.19,16.38-10.83,30.5-10.83,41.96,0,12.48,5.02,18.41,15.81,18.66,6.42,0,12.23-2.91,17.69-8.88,6.44-7.05,11.98-15.17,16.45-24.11,5.2-10.41,9.79-20.56,13.63-30.17l3.04-2.06h3.51l3,4.59c-6.47,14.71-11.72,25.81-15.62,33-13.1,24.99-27.26,37.68-42.06,37.68ZM1441.35,993.47c-6.69,0-14.66,6.24-23.68,18.55-9.74,13.17-18.02,28.8-25.32,47.79-7.04,18.3-10.6,36.21-10.6,53.22,0,5.93,1.22,10.97,3.63,14.99,2.07,3.46,4.6,5.14,7.72,5.14,4.92,0,9.97-2.9,15.42-8.88,9.2-10.03,18.46-24.91,27.53-44.22,2.67-5.88,8.48-21.05,19.38-50.64.73-4.22,1.07-8.23,1.07-12.6,0-3.26-.45-6.95-1.39-11.3-.76-3.56-2.23-6.51-4.5-9.03-1.9-1.9-5.24-3.01-9.26-3.01Z"/>
    <path class="cls-23" d="M1599.85,1143.5c-30.31,0-45.68-9.76-45.68-29.01,0-8.03,2.16-17.03,6.42-26.76,3.83-8.77,8.49-18.47,13.83-28.85,4.37-8.47,9.37-18.37,13.36-27.58,3.7-8.55,5.58-15.98,5.58-22.09,0-4.29,0-17.14-27.94-17.76l-35.69,81.08-3,1.95h-3.22l-3-4.59,35.13-79.72c-2.69-.62-5.2-1.63-7.5-3.01-4.95-3.05-7.44-7.92-7.44-14.5,0-4.72,2.38-8.66,7.26-12.05,4.58-2.82,8.66-4.09,12.98-4.09,3.28,0,13.27,0,14.07,6.37l.03.41c0,2.32-.95,5.3-2.98,9.36-1.96,4.2-2.5,6.71-2.57,8.14,36.72.22,44.45,19.53,44.45,35.73,0,9.02-1.58,18.43-4.83,28.76-2.8,8.92-5.97,17.41-9.32,26.39l-1.56,4.18c-8.53,22.05-12.66,36.68-12.66,44.78,0,9.06,4.49,13.1,14.56,13.1,11.39,0,22.61-10.62,33.35-31.56l14.85-32.34,2.98-1.91h3.22l3.02,4.53c-3.97,9.52-8.5,19.35-13.84,30.03-13.76,27.21-28.51,41-43.87,41Z"/>
    <path class="cls-17" d="M1679.97,1143.2c-13.09,0-22.82-4.08-28.93-12.11-6.06-7.65-9.15-17.38-9.15-28.89,0-9.73,2.07-20.23,6.33-32.11,13.31-37.16,25.26-68.61,31.95-84.12l3.04-1.98,26.03.29,2.96,4.6-37.14,83.64c-6.98,16.76-10.54,30.8-10.54,41.66,0,12.68,5.02,18.7,15.81,18.96,6.44,0,12.35-3,17.98-9.17,6.09-6.66,11.38-14.55,16.16-24.11,5.09-10.18,9.58-20.41,13.67-29.95l3.01-1.98h3.51l3,4.59c-6.48,14.74-11.74,25.84-15.62,33-13.11,24.99-27.26,37.68-42.06,37.68ZM1708.63,969.78c-4.27,0-7.99-1.28-11.37-3.91-3.36-2.62-5.06-5.85-5.06-9.6,0-4,1.65-7.24,5.06-9.89,3.17-2.47,6.79-3.62,11.38-3.62s8.2,1.15,11.37,3.61c3.41,2.65,5.07,5.89,5.07,9.9,0,3.76-1.7,6.99-5.07,9.6-3.37,2.63-7.09,3.91-11.36,3.91Z"/>
    <path class="cls-19" d="M1758.33,1143.2c-9.37,0-16.45-2.06-21.66-6.29-5.03-3.77-8.65-8.86-10.97-15.5-2.22-6.02-3.4-12.89-3.4-19.8,0-10.39,2.25-22.21,6.89-36.13,4.37-13.12,10.9-26.08,19.41-38.54,7.91-12,18.04-22.34,30.09-30.68,11.93-8.26,24.79-12.28,39.3-12.28,22.8,0,34.86,11.85,34.86,34.27,0,20.02-7.25,41.95-21.54,65.18-4.65,7.66-11.31,17.18-20.29,29.05,4.95,9.24,12.31,13.92,21.89,13.92,3.05,0,6.86-1.51,11.99-4.76,5-2.9,10.57-8.59,16.64-16.99,6.05-8.35,12.12-20.02,18.04-34.69l3.04-2.05h3.51l3.01,4.55c-10.05,23.76-19.57,39.8-29.1,49.04-10.06,10.05-18.95,14.96-27.14,14.96-13.06,0-22.94-5.29-29.44-15.75-4.38,4.27-7.67,7.18-10.42,9.24-11.02,8.88-22.4,13.23-34.72,13.23ZM1817.99,993.47c-7.17,0-14.97,4.02-23.17,11.95-8.57,8.57-16.55,19.44-23.69,32.29-7.47,13.44-13.38,27.2-17.57,40.9-4.56,14.27-6.87,27.12-6.87,38.23,0,14.46,6.69,16.32,12.52,16.32,9.58,0,19.05-3.88,28.94-11.85,3.8-3.04,7.39-6.56,10.94-10.72-2.64-8.05-3.97-15.09-3.97-20.95,0-11.31,2.59-20.44,7.69-27.13,5.02-7.04,10.54-10.65,16.34-10.65s9.87,2.92,12.8,8.67l.1-.18c7.32-14.36,11.03-27.14,11.03-37.97,0-8.76-1.7-15.95-5.07-21.38-3.13-5.06-9.68-7.52-20.03-7.52ZM1817.99,1062.78c-2.56,0-5.17,2.13-7.73,6.33-2.97,5.13-4.49,11.76-4.49,19.64,0,3.67.5,7.72,1.5,12.26,7.47-9.35,13.38-18.38,17.62-26.91-.29-2.78-.95-5.38-2.04-8.11-1.42-2.81-3.35-3.2-4.86-3.2Z"/>
  </g>
</svg>