<?xml version="1.0" encoding="utf-8"?>
<!-- Generator: $$$/GeneralStr/196=Adobe Illustrator 27.6.0, SVG Export Plug-In . SVG Version: 6.00 Build 0)  -->
<svg version="1.1" id="Capa_1" xmlns="http://www.w3.org/2000/svg" xmlns:xlink="http://www.w3.org/1999/xlink" x="0px" y="0px"
	 viewBox="0 0 1920 1080" style="enable-background:new 0 0 1920 1080;" xml:space="preserve">
<style type="text/css">
	.st0{fill:#010101;}
	.st1{clip-path:url(#SVGID_00000044170952027684805020000000616987993243908280_);fill:#474747;}
	.st2{clip-path:url(#SVGID_00000142859965506436715300000008036435657854828176_);}
	.st3{fill:#7BA747;}
	.st4{fill:#F48528;}
	.st5{clip-path:url(#SVGID_00000182523903747791630930000005555255877713081250_);fill:#010101;}
	.st6{clip-path:url(#SVGID_00000182517334616275817180000015444860627470449580_);fill:#010101;}
	.st7{clip-path:url(#SVGID_00000170244504459307742310000015765341087129851780_);fill:#FFFFFF;}
	.st8{clip-path:url(#SVGID_00000023994092624516867210000010291225033172149939_);fill:#FFFFFF;}
	.st9{clip-path:url(#SVGID_00000142148673469586600290000014460799750256600201_);fill:#FFFFFF;}
	.st10{clip-path:url(#SVGID_00000134207870986434513370000006394720101263350719_);fill:#FFFFFF;}
</style>
<g id="Capa_2_00000043429337954903538350000013721742397821359238_">
</g>
<g id="Capa_6">
</g>
<g id="Capa_5">
</g>
<g id="Capa_1_00000077319363692781131100000005385267356385304453_">
</g>
<g id="Capa_4">
</g>
<g id="Capa_3">
</g>
<g id="Capa_9">
</g>
<g>
	<g id="Capa_7">
		<path class="st0" d="M1368.9,122.3l-23.7,101.5l-24.9-23.3L1120,436.9l-180.3-76.6l-225.4,320l-108.2-76.6L470.9,788.5
			c0,0-19.6-33-18-45.1c7.8-59.9,144.2-193.8,144.2-193.8l94.7,76.6l234.4-311l180.3,67.6L1294,175.9l-24.9-23.3L1368.9,122.3z"/>
	</g>
	<g id="Capa_8">
		<g>
			<g>
				<g>
					<defs>
						<circle id="SVGID_1_" cx="917" cy="563" r="504"/>
					</defs>
					<clipPath id="SVGID_00000147178981155176787170000013894143448312206981_">
						<use xlink:href="#SVGID_1_"  style="overflow:visible;"/>
					</clipPath>
					<path style="clip-path:url(#SVGID_00000147178981155176787170000013894143448312206981_);fill:#474747;" d="M1271.4,200.7
						l-166.5,183.7l-180.3-67.6l-234.4,311l-94.7-76.6L450.8,744c3.9,9.7,8,19.2,12.4,28.5l6,8.4l135.2-175.8l108.2,76.6l225.4-320
						l180.3,76.6l178.5-210.6C1288.7,218.5,1280.2,209.4,1271.4,200.7z"/>
				</g>
			</g>
			<g>
				<g>
					<defs>
						<circle id="SVGID_00000121963961718345331200000009372097934635961528_" cx="917" cy="563" r="504"/>
					</defs>
					<clipPath id="SVGID_00000029015269480976548440000013627667423266174638_">
						<use xlink:href="#SVGID_00000121963961718345331200000009372097934635961528_"  style="overflow:visible;"/>
					</clipPath>
					<g style="clip-path:url(#SVGID_00000029015269480976548440000013627667423266174638_);">
						<path class="st3" d="M1137.2,507.1h-45.6v138.3h40.7c45.6,0,68.4-23.3,68.4-70.4C1200.6,531.4,1177.8,507.1,1137.2,507.1z"/>
						<path class="st4" d="M746.9,507.1h-53.6V697h-66.4V152.5c-106,75.4-181.5,190.8-204.4,324.2c19.3-14.9,44.2-21.1,86.4-21.1
							h90.7v51.6h-79.3c-49.6,0-70.4,20.3-70.4,68.9c0,26.3,7.9,45.1,24.3,57c13.4,9.4,25.8,12.4,53.6,12.4h71.9V697H509
							c-37.8,0-61.5-5.4-80.4-19.3c42.8,182.1,184.6,326,365.5,371.9V559.7C795,518.5,785.1,507.1,746.9,507.1z"/>
						<path class="st3" d="M917.8,59.8c-80.7,0-156.9,19-224.4,52.8v343h67.9c69.9-1.5,98.2,24.8,99.2,90.7v515.4
							c18.8,2.1,37.9,3.3,57.3,3.3c277.6,0,502.6-225,502.6-502.6S1195.4,59.8,917.8,59.8z M974.5,697h-66.4V455.6h66.4V697z
							 M974.5,430.8h-66.4v-64.5h66.4V430.8z M1236.8,665.8c-21.3,21.8-46.6,31.2-86.8,31.2h-58.5v90.7h-66.4V455.6h116
							c45.1,0,64,4.5,84.3,20.8c28.3,21.8,43.1,57.5,43.1,103.6C1268.6,614.7,1257.7,644.5,1236.8,665.8z"/>
					</g>
				</g>
			</g>
			<g>
				<g>
					<defs>
						<circle id="SVGID_00000003073483428262264550000014862330948723832719_" cx="917" cy="563" r="504"/>
					</defs>
					<clipPath id="SVGID_00000050633790713113302660000007271945941160170412_">
						<use xlink:href="#SVGID_00000003073483428262264550000014862330948723832719_"  style="overflow:visible;"/>
					</clipPath>
					<path style="clip-path:url(#SVGID_00000050633790713113302660000007271945941160170412_);fill:#010101;" d="M418.6,483.7
						c-0.4,1.7-0.7,3.4-1.1,5.1C418,486.8,418.3,485.1,418.6,483.7z"/>
					<path style="clip-path:url(#SVGID_00000050633790713113302660000007271945941160170412_);fill:#010101;" d="M640.6,433.8
						l-13.7-281.5c0,0-155.9,88.5-207.2,326.5c0,0-22.5,194,49.6,302.2l135.2-175.8l108.2,76.6l108.2-153.3L640.6,433.8z"/>
				</g>
			</g>
			<g>
				<g>
					<defs>
						<circle id="SVGID_00000146483999289159214820000017434613550611157123_" cx="917" cy="563" r="504"/>
					</defs>
					<clipPath id="SVGID_00000062879677222812743220000005010377278458636957_">
						<use xlink:href="#SVGID_00000146483999289159214820000017434613550611157123_"  style="overflow:visible;"/>
					</clipPath>
					<path style="clip-path:url(#SVGID_00000062879677222812743220000005010377278458636957_);fill:#010101;" d="M1367.4,123.8
						l-23.7,101.5l-24.9-23.3l-200.4,236.4l-180.3-76.6l-225.4,320l-108.2-76.6L469.3,790c0,0-24.3-49.9-19.6-51.5
						c57.3-19.1,145.9-187.4,145.9-187.4l94.7,76.6l234.4-311l180.3,67.6l187.6-206.9l-24.9-23.3L1367.4,123.8z"/>
				</g>
			</g>
			<g>
				<g>
					<defs>
						<circle id="SVGID_00000005972100004533016170000013657057114007348406_" cx="917" cy="563" r="504"/>
					</defs>
					<clipPath id="SVGID_00000172423524581012586730000012404378359701426071_">
						<use xlink:href="#SVGID_00000005972100004533016170000013657057114007348406_"  style="overflow:visible;"/>
					</clipPath>
					<path style="clip-path:url(#SVGID_00000172423524581012586730000012404378359701426071_);fill:#FFFFFF;" d="M599.7,507.1h-79.3
						c-49.6,0-70.4,20.3-70.4,68.9c0,26.3,7.9,45.1,24.3,57c13.4,9.4,25.8,12.4,53.6,12.4h71.9V697h-90.7
						c-48.6,0-73.9-8.9-95.7-33.2c-20.8-23.3-31.2-52.1-31.2-88.3c0-42.1,12.9-75.4,37.2-96.2c19.8-16.9,45.1-23.8,89.7-23.8h90.7
						v51.6H599.7z"/>
				</g>
			</g>
			<g>
				<g>
					<defs>
						<circle id="SVGID_00000150815645768343819360000013316881853348774586_" cx="917" cy="563" r="504"/>
					</defs>
					<clipPath id="SVGID_00000031186599869556775560000003131333493106525355_">
						<use xlink:href="#SVGID_00000150815645768343819360000013316881853348774586_"  style="overflow:visible;"/>
					</clipPath>
					<path style="clip-path:url(#SVGID_00000031186599869556775560000003131333493106525355_);fill:#FFFFFF;" d="M693.4,455.6h67.9
						c69.9-1.5,98.2,24.8,99.2,90.7v608.9l-66.4-45.1V559.7c1-41.2-8.9-52.6-47.1-52.6h-53.6V697H627V100.3l66.4-9V455.6
						L693.4,455.6z"/>
				</g>
			</g>
			<g>
				<g>
					<defs>
						<circle id="SVGID_00000105388248263514529460000003700377098858335633_" cx="917" cy="563" r="504"/>
					</defs>
					<clipPath id="SVGID_00000170996108493562321080000007161288932375073665_">
						<use xlink:href="#SVGID_00000105388248263514529460000003700377098858335633_"  style="overflow:visible;"/>
					</clipPath>
					<path style="clip-path:url(#SVGID_00000170996108493562321080000007161288932375073665_);fill:#FFFFFF;" d="M908.1,366.3h66.4
						v64.5h-66.4V366.3z M974.5,455.6V697h-66.4V455.6H974.5z"/>
				</g>
			</g>
			<g>
				<g>
					<defs>
						<circle id="SVGID_00000033363539543407338280000002921891383368966578_" cx="917" cy="563" r="504"/>
					</defs>
					<clipPath id="SVGID_00000049910260288636042590000009472351107244283300_">
						<use xlink:href="#SVGID_00000033363539543407338280000002921891383368966578_"  style="overflow:visible;"/>
					</clipPath>
					<path style="clip-path:url(#SVGID_00000049910260288636042590000009472351107244283300_);fill:#FFFFFF;" d="M1141.1,455.6
						c45.1,0,64,4.5,84.3,20.8c28.3,21.8,43.1,57.5,43.1,103.6c0,34.7-10.9,64.5-31.7,85.8c-21.3,21.8-46.6,31.2-86.8,31.2h-58.5
						v90.7h-66.4V455.6H1141.1z M1091.5,645.5h40.7c45.6,0,68.4-23.3,68.4-70.4c0-43.6-22.8-67.9-63.5-67.9h-45.6V645.5z"/>
				</g>
			</g>
		</g>
	</g>
</g>
</svg>
