<?xml version="1.0" encoding="UTF-8"?>
<svg id="Capa_1" data-name="Capa 1" xmlns="http://www.w3.org/2000/svg" viewBox="0 0 337.95 199.06">
  <defs>
    <style>
      .cls-1 {
        fill: #d80025;
      }

      .cls-2 {
        fill: #fff;
      }

      .cls-3 {
        fill: #ffc800;
      }

      .cls-4 {
        fill: #003189;
      }
    </style>
  </defs>
  <g>
    <path class="cls-2" d="M104.02,106.49v-16.35h2.48l6.17,11.38h-.74l6.14-11.38h2.43v16.35h-2.69v-11.94h.51l-5.19,9.46h-1.74l-5.24-9.48h.56v11.96h-2.69Z"/>
    <path class="cls-2" d="M123.64,92.71v-2.83h3.25v2.83h-3.25ZM123.83,106.49v-11.34h2.9v11.34h-2.9Z"/>
    <path class="cls-2" d="M129.74,106.49v-11.34h2.83v2.27h-.25c.34-.82.87-1.44,1.59-1.87.72-.42,1.53-.64,2.45-.64s1.66.17,2.25.51c.59.34,1.03.86,1.32,1.54s.44,1.56.44,2.61v6.91h-2.9v-6.77c0-.59-.07-1.07-.22-1.44-.15-.37-.37-.65-.67-.82s-.68-.27-1.15-.27c-.56,0-1.04.12-1.46.36-.42.24-.74.58-.97,1.02-.23.44-.35.95-.35,1.54v6.38h-2.9Z"/>
    <path class="cls-2" d="M143.11,92.71v-2.83h3.25v2.83h-3.25ZM143.3,106.49v-11.34h2.9v11.34h-2.9Z"/>
    <path class="cls-2" d="M153.36,106.72c-.63,0-1.25-.05-1.84-.16-.6-.11-1.14-.26-1.64-.45-.49-.19-.93-.44-1.3-.73l.74-1.9c.39.25.8.46,1.25.65.45.19.91.33,1.39.42.48.09.95.14,1.41.14.74,0,1.29-.13,1.66-.38.36-.25.54-.59.54-1.01,0-.36-.12-.63-.36-.82-.24-.19-.6-.34-1.08-.43l-2.32-.44c-.96-.19-1.69-.54-2.19-1.06-.5-.52-.75-1.19-.75-2,0-.74.21-1.38.62-1.93.41-.54.98-.96,1.7-1.25.72-.29,1.56-.44,2.5-.44.54,0,1.07.05,1.58.15.51.1.99.25,1.45.44.46.19.85.44,1.19.75l-.79,1.9c-.29-.25-.63-.46-1.02-.64-.39-.18-.78-.32-1.19-.42-.41-.1-.81-.15-1.19-.15-.76,0-1.32.13-1.68.4-.36.26-.54.61-.54,1.04,0,.32.11.59.33.81.22.22.55.36,1,.44l2.32.44c1,.18,1.77.53,2.28,1.02.52.49.78,1.16.78,1.99,0,.76-.2,1.41-.6,1.95s-.97.95-1.69,1.24c-.72.29-1.58.43-2.55.43Z"/>
    <path class="cls-2" d="M165.72,106.72c-1.52,0-2.64-.38-3.39-1.14-.74-.76-1.11-1.86-1.11-3.32v-4.94h-2.18v-2.18h2.18v-3.39h2.9v3.39h3.43v2.18h-3.43v4.78c0,.74.16,1.3.49,1.67.33.37.85.56,1.58.56.22,0,.44-.03.67-.08.23-.06.47-.11.72-.17l.44,2.13c-.28.15-.63.28-1.05.37-.43.09-.84.14-1.24.14Z"/>
    <path class="cls-2" d="M175.02,106.72c-1.28,0-2.39-.24-3.32-.72s-1.64-1.16-2.15-2.04c-.5-.88-.75-1.93-.75-3.13s.24-2.2.73-3.08,1.16-1.57,2.02-2.08,1.83-.75,2.93-.75,2.01.23,2.78.7,1.37,1.12,1.8,1.97c.42.85.64,1.86.64,3.04v.86h-8.56v-1.67h6.52l-.37.35c0-1.05-.23-1.86-.7-2.42-.46-.56-1.13-.84-1.99-.84-.65,0-1.2.15-1.66.45-.46.3-.8.73-1.04,1.28s-.36,1.2-.36,1.96v.16c0,.85.13,1.55.39,2.11s.66.97,1.18,1.25c.53.28,1.17.42,1.95.42.63,0,1.27-.1,1.9-.29.63-.19,1.21-.5,1.74-.92l.81,1.95c-.54.45-1.22.8-2.04,1.07-.82.26-1.64.39-2.46.39Z"/>
    <path class="cls-2" d="M182,106.49v-11.34h2.83v2.74h-.23c.22-.93.64-1.63,1.28-2.12.63-.49,1.47-.77,2.53-.85l.88-.07.19,2.46-1.67.16c-.94.09-1.65.38-2.13.87-.48.49-.72,1.17-.72,2.05v6.1h-2.94Z"/>
    <path class="cls-2" d="M190.9,92.71v-2.83h3.25v2.83h-3.25ZM191.09,106.49v-11.34h2.9v11.34h-2.9Z"/>
    <path class="cls-2" d="M202.17,106.72c-1.18,0-2.2-.24-3.06-.72s-1.54-1.16-2.02-2.05c-.48-.89-.72-1.94-.72-3.14s.24-2.25.72-3.13c.48-.88,1.15-1.56,2.02-2.04.87-.48,1.88-.72,3.06-.72s2.19.24,3.06.72c.87.48,1.54,1.16,2.02,2.04.48.88.72,1.93.72,3.13s-.24,2.25-.72,3.14c-.48.89-1.15,1.57-2.02,2.05s-1.88.72-3.06.72ZM202.17,104.52c.86,0,1.56-.31,2.09-.94s.79-1.55.79-2.77-.26-2.16-.79-2.77-1.22-.92-2.09-.92-1.56.3-2.09.92-.79,1.53-.79,2.77.26,2.15.79,2.77,1.22.94,2.09.94Z"/>
    <path class="cls-2" d="M220.97,106.72c-.99,0-1.86-.24-2.61-.72s-1.33-1.16-1.75-2.05c-.42-.89-.63-1.94-.63-3.14s.21-2.27.63-3.14c.42-.87,1-1.55,1.75-2.03.75-.48,1.62-.72,2.61-.72s1.76.23,2.47.7,1.18,1.07,1.43,1.83h-.26v-7.3h2.9v16.35h-2.83v-2.41h.21c-.23.8-.7,1.45-1.41,1.92-.71.48-1.55.72-2.5.72ZM221.78,104.52c.86,0,1.56-.31,2.09-.94s.79-1.55.79-2.77-.26-2.16-.79-2.77-1.22-.92-2.09-.92-1.56.3-2.09.92-.79,1.53-.79,2.77.26,2.15.79,2.77,1.22.94,2.09.94Z"/>
    <path class="cls-2" d="M236.11,106.72c-1.28,0-2.39-.24-3.32-.72s-1.64-1.16-2.15-2.04c-.5-.88-.75-1.93-.75-3.13s.24-2.2.73-3.08,1.16-1.57,2.02-2.08,1.83-.75,2.93-.75,2.01.23,2.78.7,1.37,1.12,1.8,1.97c.42.85.64,1.86.64,3.04v.86h-8.56v-1.67h6.52l-.37.35c0-1.05-.23-1.86-.7-2.42-.46-.56-1.13-.84-1.99-.84-.65,0-1.2.15-1.66.45-.46.3-.8.73-1.04,1.28s-.36,1.2-.36,1.96v.16c0,.85.13,1.55.39,2.11s.66.97,1.18,1.25c.53.28,1.17.42,1.95.42.63,0,1.27-.1,1.9-.29.63-.19,1.21-.5,1.74-.92l.81,1.95c-.54.45-1.22.8-2.04,1.07-.82.26-1.64.39-2.46.39Z"/>
  </g>
  <g>
    <path class="cls-2" d="M28.39,129.67v-16.35h2.97v6.82h8.42v-6.82h2.97v16.35h-2.97v-7.05h-8.42v7.05h-2.97Z"/>
    <path class="cls-2" d="M49.77,129.9c-.82,0-1.55-.16-2.19-.48-.64-.31-1.14-.75-1.51-1.29s-.54-1.15-.54-1.83c0-.84.22-1.5.65-1.98s1.14-.84,2.11-1.05c.97-.22,2.28-.33,3.92-.33h1.16v1.67h-1.14c-.73,0-1.34.03-1.83.08-.49.06-.89.14-1.19.26s-.52.27-.65.47-.2.45-.2.74c0,.51.18.93.53,1.25.36.33.85.49,1.48.49.51,0,.96-.12,1.36-.36.39-.24.71-.57.94-.99.23-.42.35-.9.35-1.44v-2.67c0-.77-.17-1.33-.51-1.67-.34-.34-.91-.51-1.72-.51-.63,0-1.28.1-1.95.29-.66.19-1.34.49-2.02.89l-.83-1.97c.4-.28.88-.52,1.43-.73s1.13-.37,1.74-.49,1.19-.17,1.73-.17c1.11,0,2.03.17,2.75.51.72.34,1.26.86,1.61,1.54.36.69.53,1.57.53,2.65v6.86h-2.71v-2.41h.19c-.11.54-.32,1.01-.64,1.4s-.72.7-1.19.92c-.48.22-1.03.33-1.65.33Z"/>
    <path class="cls-2" d="M63.96,129.9c-1.19,0-2.23-.24-3.11-.73s-1.56-1.18-2.04-2.08-.72-1.95-.72-3.15.24-2.25.72-3.12c.48-.87,1.16-1.55,2.04-2.02.88-.47,1.92-.71,3.11-.71.73,0,1.45.12,2.16.35.71.23,1.3.56,1.76.97l-.86,2.02c-.4-.35-.85-.63-1.36-.81-.5-.18-.99-.28-1.45-.28-1.01,0-1.78.31-2.33.94-.55.63-.82,1.52-.82,2.68s.27,2.04.82,2.7,1.33.99,2.33.99c.45,0,.93-.09,1.44-.28.51-.19.97-.46,1.37-.83l.86,2.04c-.46.4-1.06.72-1.77.96-.72.24-1.43.36-2.14.36Z"/>
    <path class="cls-2" d="M69.48,115.9v-2.83h3.25v2.83h-3.25ZM69.66,129.67v-11.34h2.9v11.34h-2.9Z"/>
    <path class="cls-2" d="M81.16,129.9c-1.28,0-2.39-.24-3.32-.72s-1.64-1.16-2.14-2.04c-.5-.88-.75-1.93-.75-3.13s.24-2.2.73-3.08c.49-.88,1.16-1.57,2.02-2.08.86-.5,1.84-.75,2.93-.75s2.01.23,2.78.7c.77.46,1.37,1.12,1.8,1.97s.64,1.86.64,3.04v.86h-8.55v-1.67h6.52l-.37.35c0-1.05-.23-1.86-.7-2.42-.46-.56-1.13-.84-1.99-.84-.65,0-1.2.15-1.66.45-.46.3-.8.73-1.04,1.28-.24.55-.36,1.2-.36,1.96v.16c0,.85.13,1.55.39,2.11s.66.97,1.18,1.25c.52.28,1.17.42,1.95.42.63,0,1.27-.1,1.9-.29.63-.19,1.21-.5,1.74-.92l.81,1.95c-.54.45-1.22.8-2.04,1.07-.82.26-1.64.39-2.46.39Z"/>
    <path class="cls-2" d="M88.14,129.67v-11.34h2.83v2.27h-.25c.34-.82.87-1.44,1.59-1.87s1.53-.64,2.45-.64,1.66.17,2.25.51c.59.34,1.03.86,1.32,1.54.29.69.44,1.56.44,2.61v6.91h-2.9v-6.77c0-.59-.07-1.07-.22-1.44-.15-.37-.37-.65-.67-.82s-.68-.27-1.15-.27c-.56,0-1.04.12-1.46.36s-.74.58-.97,1.02c-.23.44-.35.95-.35,1.54v6.38h-2.9Z"/>
    <path class="cls-2" d="M106.06,129.9c-.99,0-1.86-.24-2.61-.72s-1.33-1.16-1.75-2.05c-.42-.89-.63-1.94-.63-3.14s.21-2.27.63-3.14c.42-.87,1-1.55,1.75-2.03.75-.48,1.62-.72,2.61-.72s1.77.23,2.47.7,1.18,1.07,1.43,1.83h-.25v-7.3h2.9v16.35h-2.83v-2.41h.21c-.23.8-.7,1.45-1.41,1.92-.71.48-1.55.72-2.5.72ZM106.88,127.7c.87,0,1.56-.31,2.09-.94.53-.63.79-1.55.79-2.77s-.26-2.16-.79-2.77c-.52-.61-1.22-.92-2.09-.92s-1.56.3-2.09.92c-.53.61-.79,1.53-.79,2.77s.26,2.15.79,2.77c.52.63,1.22.94,2.09.94Z"/>
    <path class="cls-2" d="M119.35,129.9c-.82,0-1.55-.16-2.19-.48-.64-.31-1.14-.75-1.51-1.29s-.54-1.15-.54-1.83c0-.84.22-1.5.65-1.98s1.14-.84,2.11-1.05c.97-.22,2.28-.33,3.92-.33h1.16v1.67h-1.14c-.73,0-1.34.03-1.83.08-.49.06-.89.14-1.19.26s-.52.27-.65.47-.2.45-.2.74c0,.51.18.93.53,1.25.36.33.85.49,1.48.49.51,0,.96-.12,1.36-.36.39-.24.71-.57.94-.99.23-.42.35-.9.35-1.44v-2.67c0-.77-.17-1.33-.51-1.67-.34-.34-.91-.51-1.72-.51-.63,0-1.28.1-1.95.29-.66.19-1.34.49-2.02.89l-.83-1.97c.4-.28.88-.52,1.43-.73s1.13-.37,1.74-.49,1.19-.17,1.73-.17c1.11,0,2.03.17,2.75.51.72.34,1.26.86,1.61,1.54.36.69.53,1.57.53,2.65v6.86h-2.71v-2.41h.19c-.11.54-.32,1.01-.64,1.4s-.72.7-1.19.92c-.48.22-1.03.33-1.65.33Z"/>
    <path class="cls-2" d="M135.58,133.85l2.36-5.22v1.21l-4.98-11.5h3.08l3.52,8.79h-.7l3.6-8.79h2.92l-6.82,15.51h-2.99Z"/>
    <path class="cls-2" d="M160.9,129.9c-1.7,0-3.16-.34-4.37-1.03s-2.15-1.66-2.79-2.92c-.65-1.26-.97-2.75-.97-4.46s.32-3.2.97-4.45c.65-1.25,1.58-2.22,2.79-2.91s2.67-1.03,4.37-1.03c1.1,0,2.14.17,3.12.51s1.79.83,2.42,1.46l-.97,2.36c-.7-.59-1.41-1.01-2.13-1.29-.73-.27-1.51-.41-2.34-.41-1.65,0-2.91.5-3.78,1.5-.87,1-1.3,2.42-1.3,4.26s.43,3.26,1.3,4.27,2.12,1.51,3.78,1.51c.83,0,1.62-.14,2.34-.41.73-.27,1.44-.7,2.13-1.29l.97,2.36c-.63.62-1.44,1.1-2.42,1.45s-2.02.52-3.12.52Z"/>
    <path class="cls-2" d="M168.76,129.67v-11.34h2.83v2.74h-.23c.22-.93.64-1.63,1.28-2.12.63-.49,1.47-.77,2.53-.85l.88-.07.19,2.46-1.67.16c-.94.09-1.65.38-2.13.87-.48.49-.72,1.17-.72,2.05v6.1h-2.94Z"/>
    <path class="cls-2" d="M183.44,129.9c-1.28,0-2.39-.24-3.32-.72s-1.64-1.16-2.15-2.04c-.5-.88-.75-1.93-.75-3.13s.24-2.2.73-3.08,1.16-1.57,2.02-2.08,1.83-.75,2.93-.75,2.01.23,2.78.7,1.37,1.12,1.8,1.97c.42.85.64,1.86.64,3.04v.86h-8.56v-1.67h6.52l-.37.35c0-1.05-.23-1.86-.7-2.42-.46-.56-1.13-.84-1.99-.84-.65,0-1.2.15-1.66.45-.46.3-.8.73-1.04,1.28s-.36,1.2-.36,1.96v.16c0,.85.13,1.55.39,2.11s.66.97,1.18,1.25c.53.28,1.17.42,1.95.42.63,0,1.27-.1,1.9-.29.63-.19,1.21-.5,1.74-.92l.81,1.95c-.54.45-1.22.8-2.04,1.07-.82.26-1.64.39-2.46.39ZM181.95,116.83l2.39-4.71h2.85l-3.29,4.71h-1.95Z"/>
    <path class="cls-2" d="M194.77,129.9c-.99,0-1.86-.24-2.61-.72s-1.33-1.16-1.75-2.05c-.42-.89-.63-1.94-.63-3.14s.21-2.27.63-3.14c.42-.87,1-1.55,1.75-2.03.75-.48,1.62-.72,2.61-.72s1.76.23,2.47.7,1.18,1.07,1.43,1.83h-.26v-7.3h2.9v16.35h-2.83v-2.41h.21c-.23.8-.7,1.45-1.41,1.92-.71.48-1.55.72-2.5.72ZM195.59,127.7c.86,0,1.56-.31,2.09-.94s.79-1.55.79-2.77-.26-2.16-.79-2.77-1.22-.92-2.09-.92-1.56.3-2.09.92-.79,1.53-.79,2.77.26,2.15.79,2.77,1.22.94,2.09.94Z"/>
    <path class="cls-2" d="M204.14,115.9v-2.83h3.25v2.83h-3.25ZM204.33,129.67v-11.34h2.9v11.34h-2.9Z"/>
    <path class="cls-2" d="M215.43,129.9c-1.52,0-2.64-.38-3.39-1.14-.74-.76-1.11-1.86-1.11-3.32v-4.94h-2.18v-2.18h2.18v-3.39h2.9v3.39h3.43v2.18h-3.43v4.78c0,.74.16,1.3.49,1.67.33.37.85.56,1.58.56.22,0,.44-.03.67-.08.23-.06.47-.11.72-.17l.44,2.13c-.28.15-.63.28-1.05.37-.43.09-.84.14-1.24.14Z"/>
    <path class="cls-2" d="M224.31,129.9c-1.18,0-2.2-.24-3.06-.72s-1.54-1.16-2.02-2.05c-.48-.89-.72-1.94-.72-3.14s.24-2.25.72-3.13c.48-.88,1.15-1.56,2.02-2.04.87-.48,1.88-.72,3.06-.72s2.19.24,3.06.72c.87.48,1.54,1.16,2.02,2.04.48.88.72,1.93.72,3.13s-.24,2.25-.72,3.14c-.48.89-1.15,1.57-2.02,2.05s-1.88.72-3.06.72ZM224.31,127.7c.86,0,1.56-.31,2.09-.94s.79-1.55.79-2.77-.26-2.16-.79-2.77-1.22-.92-2.09-.92-1.56.3-2.09.92-.79,1.53-.79,2.77.26,2.15.79,2.77,1.22.94,2.09.94Z"/>
    <path class="cls-2" d="M239.03,129.67v-16.35h7.09c1.21,0,2.23.2,3.06.6s1.47.98,1.9,1.74c.43.76.65,1.68.65,2.76s-.22,1.98-.65,2.75c-.43.76-1.07,1.35-1.9,1.76-.83.41-1.86.61-3.06.61h-4.13v6.12h-2.97ZM242,121.21h3.66c1.05,0,1.85-.23,2.39-.71.54-.47.81-1.16.81-2.08s-.27-1.6-.81-2.06c-.54-.46-1.34-.7-2.39-.7h-3.66v5.54Z"/>
    <path class="cls-2" d="M257.98,129.9c-.94,0-1.72-.17-2.34-.52-.62-.35-1.08-.87-1.38-1.57-.3-.7-.45-1.56-.45-2.6v-6.89h2.9v6.93c0,.53.07.97.22,1.32s.37.62.67.79c.3.17.68.25,1.15.25.53,0,.99-.12,1.38-.36.39-.24.7-.58.93-1.02.22-.44.34-.95.34-1.54v-6.38h2.9v11.34h-2.83v-2.36h.33c-.33.83-.82,1.48-1.47,1.92-.66.45-1.44.67-2.33.67ZM258.09,116.8l2.39-4.71h2.85l-3.29,4.71h-1.95Z"/>
    <path class="cls-2" d="M273.84,129.9c-.96,0-1.8-.24-2.52-.72s-1.19-1.12-1.42-1.92h.23v2.41h-2.83v-16.35h2.9v7.3h-.28c.25-.76.73-1.37,1.44-1.83s1.54-.7,2.48-.7c1,0,1.88.24,2.62.72.74.48,1.32,1.16,1.74,2.03s.63,1.92.63,3.14-.21,2.25-.63,3.14-1,1.57-1.75,2.05-1.62.72-2.61.72ZM273.02,127.7c.87,0,1.56-.31,2.09-.94s.79-1.55.79-2.77-.26-2.16-.79-2.77-1.22-.92-2.09-.92-1.56.3-2.09.92c-.53.61-.79,1.53-.79,2.77s.26,2.15.79,2.77c.52.63,1.22.94,2.09.94Z"/>
    <path class="cls-2" d="M285.15,129.9c-1.34,0-2.34-.37-2.98-1.1-.64-.73-.96-1.81-.96-3.23v-12.24h2.9v12.1c0,.45.07.83.2,1.15.13.32.33.55.59.71.26.15.59.23.97.23.17,0,.34,0,.51-.02.17-.02.33-.05.49-.09l-.05,2.29c-.28.06-.55.11-.82.15-.27.04-.55.06-.85.06Z"/>
    <path class="cls-2" d="M288.42,115.9v-2.83h3.25v2.83h-3.25ZM288.61,129.67v-11.34h2.9v11.34h-2.9Z"/>
    <path class="cls-2" d="M299.76,129.9c-1.19,0-2.23-.24-3.11-.73-.88-.49-1.56-1.18-2.04-2.08-.48-.9-.72-1.95-.72-3.15s.24-2.25.72-3.12c.48-.87,1.16-1.55,2.04-2.02.88-.47,1.92-.71,3.11-.71.73,0,1.45.12,2.16.35.71.23,1.3.56,1.76.97l-.86,2.02c-.4-.35-.86-.63-1.36-.81-.5-.18-.99-.28-1.45-.28-1,0-1.78.31-2.33.94-.55.63-.82,1.52-.82,2.68s.27,2.04.82,2.7,1.33.99,2.33.99c.45,0,.93-.09,1.44-.28.51-.19.97-.46,1.37-.83l.86,2.04c-.46.4-1.05.72-1.77.96-.72.24-1.44.36-2.15.36Z"/>
    <path class="cls-2" d="M310.63,129.9c-1.18,0-2.2-.24-3.06-.72s-1.54-1.16-2.02-2.05c-.48-.89-.72-1.94-.72-3.14s.24-2.25.72-3.13c.48-.88,1.15-1.56,2.02-2.04.87-.48,1.88-.72,3.06-.72s2.19.24,3.06.72c.87.48,1.54,1.16,2.02,2.04.48.88.72,1.93.72,3.13s-.24,2.25-.72,3.14c-.48.89-1.15,1.57-2.02,2.05s-1.88.72-3.06.72ZM310.63,127.7c.86,0,1.56-.31,2.09-.94s.79-1.55.79-2.77-.26-2.16-.79-2.77-1.22-.92-2.09-.92-1.56.3-2.09.92-.79,1.53-.79,2.77.26,2.15.79,2.77,1.22.94,2.09.94Z"/>
  </g>
  <g>
    <path class="cls-2" d="M174.4,52.24c.12.14.36.2.59.1.04.1.12.19.23.23.05.02.11.03.16.03.13,0,.25-.05.38-.15.15.22.53.28.91.28.22,0,.45-.02.65-.03.11,0,.2-.01.27-.02.49-.02.84-.13,1.11-.46.25.09.91.25,1.61-.72.2-.06,1.23-.44,1.05-1.55.15-.14.64-.66.36-1.32.04-.14.15-.64-.09-.87-.05-.1-.27-.57-.67-.65-.24-.05-.5.06-.75.31-.04.04-.15.15-.18.26-.23.13-.32.37-.35.45-.18.1-.29.28-.33.38-.33-.06-.7.01-1.11.24-.28-.21-.59-.32-.94-.32h0c-.44,0-.88.2-1.22.58-.45.5-.68,1.22-.61,1.91-.1,0-.19.02-.27.08-.15.1-.24.28-.25.48h0s0,0,0,0c-.19-.01-.36.04-.49.16-.22.25-.16.48-.05.6M179.46,48.73c.48.18.66.7.66.71l.17-.06s-.21-.61-.77-.82c0,0,0,0,0,0,.05-.1.15-.27.33-.3.18-.03.51.06,1.02.71l.14-.11c-.42-.53-.8-.8-1.12-.78.05-.09.14-.21.29-.27.23-.09.53,0,.91.25l.1-.15c-.34-.23-.64-.33-.9-.31.01-.02.03-.03.04-.05.21-.21.4-.3.58-.26.34.07.54.55.54.56v.02s.03.01.03.01c.17.15.09.57.04.73v.03s0,.03,0,.03c.3.65-.31,1.14-.33,1.16l-.04.03v.06c.22,1.09-.88,1.39-.93,1.4h-.03s-.02.04-.02.04c-.55.78-1.11.78-1.39.71.45-.71.46-1.76.04-2.59-.12-.23-.27-.43-.44-.59.41-.21.77-.25,1.07-.14M174.58,51.76c.11-.1.26-.11.33-.11.08.01.13-.01.15-.04.03-.03.06-.07.05-.14,0-.14.07-.27.17-.33.1-.07.23-.07.32,0l.17.14-.02-.22c0-.06.01-.11.06-.14.07-.07.2-.1.33-.07.08,0,.33.05.38.23l.07.22.11-.21c.11-.22.34-.29.5-.27.17.03.28.14.31.33l.18-.03c-.04-.27-.22-.45-.47-.48-.04,0-.09,0-.14,0,.05-.28.24-.98.8-1.13.1.11.19.25.26.42.26.65.16,1.51-.25,2l.14.12c.45-.54.56-1.46.27-2.18-.2-.5-.57-.81-1.03-.86-.36-.04-.73.13-1.02.46-.27.31-.45.72-.51,1.18,0,.01,0,.06,0,.1-.02.01-.05.03-.07.05-.02.02-.04.04-.05.06-.04-.62.17-1.27.57-1.72.31-.34.69-.53,1.08-.52h0c.56,0,1.06.34,1.37.94.41.79.38,1.78-.05,2.45-.16.33-.71.48-1.02.49-.07,0-.17.01-.29.02-.44.04-1.26.11-1.42-.18l-.03-.05-.05-.14c-.13.15-.33.33-.52.26-.07-.03-.14-.11-.13-.2l.02-.21-.17.12c-.18.13-.38.1-.47,0-.08-.09-.07-.22.04-.35M175.94,50.67c.05-.42.21-.81.46-1.09.25-.29.56-.43.87-.4.17.02.32.08.46.18-.64.25-.8,1.08-.83,1.31-.1.04-.2.11-.28.2-.1-.11-.26-.19-.45-.21-.07-.01-.14-.01-.22,0"/>
    <path class="cls-2" d="M163.44,49.93c-.18,1.11.85,1.49,1.05,1.55.46.64.94.78,1.29.78.22,0,.39-.06.46-.09.17.05.34.07.51.07.21,0,.41-.04.61-.12.05.05.14.1.32.1.18,0,.39-.01.57-.1.06.07.18.11.33.1.31,0,.6-.03.84-.18.05.04.13.06.22.07.45.02.91.04,1.36-.02.11,0,.18-.06.21-.14.03-.09-.02-.18-.11-.25-.02-.01-.04-.02-.06-.03-.03-.02-.06-.04-.07-.06,0,0,0-.01-.01-.02-.01-.02-.02-.05-.05-.07l-.03-.02c-.14-.06-.32-.08-.5-.09-.08,0-.15-.01-.22-.03-.05-.18-.25-.29-.45-.31-.02,0-.04,0-.05,0,0,0-.02-.02-.03-.03,0,0-.01-.02-.02-.03-.07-.09-.17-.13-.27-.15.06-.68-.17-1.36-.61-1.85-.34-.37-.76-.58-1.19-.58h-.03c-.34,0-.66.11-.94.32-.41-.22-.78-.3-1.11-.24-.05-.11-.15-.29-.34-.38-.03-.08-.12-.32-.35-.45-.04-.11-.15-.23-.18-.27-.25-.26-.5-.36-.75-.31-.4.08-.62.54-.67.65-.24.24-.13.73-.09.87-.28.66.21,1.17.36,1.31M169.47,51.12v.02s.06.06.1.09c.05.03.1.03.16.04.13,0,.27.09.27.21v.07s.07.01.07.01c.09.02.2.03.3.04.15.01.31.03.42.07,0,0,0,0,0,.01,0,.01.01.03.02.04.04.06.09.09.14.12.01,0,.03.02.04.03.03.02.04.04.04.04,0,0-.01,0-.05.01-.44.06-.9.04-1.34.02-.09,0-.12-.03-.12-.04l-.04-.14-.11.09c-.2.17-.49.19-.79.2-.09,0-.19-.02-.2-.06l-.03-.14-.12.08c-.15.1-.34.11-.56.12-.11,0-.18-.02-.19-.05l-.03-.1-.1.04c-.11.05-.23.08-.36.1-.45-.45-.62-1.29-.39-1.99.05-.15.14-.36.3-.54.58.16.77.95.81,1.22h-.13s0,.19,0,.19l.87-.04c.08,0,.15,0,.19.02.08.08.17.12.25.12.05,0,.1,0,.16,0,.16,0,.31,0,.39.1M167.08,49.36c.12-.09.27-.16.46-.18.25-.03.52.07.76.3.35.33.56.84.56,1.33-.02-.01-.05-.03-.08-.06-.1-.07-.23-.07-.32-.06l-.55.02c-.04-.26-.21-1.1-.84-1.35M167.51,48.61h0c.39,0,.77.18,1.08.52.4.45.61,1.09.57,1.71h-.08s-.02,0-.04,0c0-.54-.22-1.12-.62-1.49-.28-.26-.61-.39-.91-.35-.5.06-.89.42-1.08.99-.2.62-.14,1.49.33,2.07-.2,0-.4-.02-.58-.07-.43-.66-.45-1.65-.05-2.44.31-.6.81-.94,1.37-.94M163.27,48.59c-.05-.15-.13-.58.04-.73h.02s0-.04,0-.04c0,0,.2-.49.54-.56.18-.04.38.05.58.26.01.01.03.03.04.05-.26-.03-.56.08-.9.31l.1.15c.37-.25.68-.34.91-.25.15.06.23.18.28.27-.32-.01-.7.25-1.12.78l.14.11c.51-.65.84-.74,1.02-.71.18.03.28.2.33.3t0,0c-.56.21-.76.8-.77.82l.18.06s.18-.53.66-.71c.31-.12.67-.07,1.08.14-.17.16-.32.36-.44.59-.43.83-.41,1.88.04,2.59-.28.06-.84.06-1.39-.71l-.02-.03h-.03s-1.15-.31-.94-1.41v-.06s-.03-.04-.03-.04c-.03-.02-.63-.51-.33-1.16v-.03s0-.03,0-.03Z"/>
    <path class="cls-2" d="M172.32,51.46c0,.31-.04.64-.1.98v.04s.02.03.02.03c0,.01.2.27.54.39l.11.04v-.11s.13-.87.03-1.78c1.13-.35,1.49-1.49,1.59-1.97.06-.28.04-.3,0-.33l-.04-.03-.05.02c-.96.37-1.41,1.08-1.62,1.62-.07-.29-.18-.54-.31-.75.93-.1,1.66-.88,1.66-1.84,0-.54-.23-1.02-.6-1.36l.46-.56-.87.1-.26-.44-.45.27-.35-.29-.18.36-.78-.31.21.64c-.6.35-.88.99-.88,1.58,0,.76.46,1.59,1.47,1.8.04.06.25.36.35,1.02-.33-.5-.91-1.08-1.9-1.25h-.08s-.03.06-.03.06c-.03.08.2.59.43.95.31.46.83,1.03,1.62,1.12M172.86,50.73c.12-.48.48-1.32,1.47-1.77-.07.42-.38,1.59-1.51,1.91l.04-.14ZM173.57,46.07l-.17.21c-.08-.06-.16-.11-.25-.16l.42-.05ZM173.96,47.76c0,.75-.5,1.38-1.17,1.59,1.09-1.47.32-2.72-.07-3.19.71.19,1.24.84,1.24,1.61M172.81,45.75l.17.29c-.14-.06-.3-.1-.46-.12l.29-.18ZM172.15,45.77l.17.14h-.03c-.08,0-.15,0-.22.02l.08-.16ZM171.77,45.99c-.1.03-.19.06-.28.1l-.08-.23.35.14ZM170.63,47.76c0-.68.41-1.42,1.29-1.62-.39.47-1.18,1.72-.09,3.21-.82-.22-1.2-.94-1.2-1.59M172.21,46.1s.06,0,.08,0c.05,0,.09,0,.14,0,.19.18,1.52,1.58.08,3.3-.07,0-.14.01-.21.01-.06,0-.13,0-.18-.01-1.43-1.73-.09-3.12.1-3.3M172.15,49.59s.08,0,.12.01c.19.28.33.65.41,1.12l.03.18v.08c.1.71.04,1.41.02,1.69-.16-.08-.28-.2-.32-.25.06-.37.09-.72.1-1.05v-.09s0-.29,0-.29h0c-.04-.74-.22-1.18-.34-1.4M172.32,51.05l.11.24h-.01c-1.19-.08-1.76-1.32-1.93-1.75,1.09.25,1.61,1.04,1.83,1.51"/>
    <path class="cls-2" d="M166.02,33.93c-.08-.09-.08-.25-.03-.36.02-.03.04-.06.06-.08,0,0,.01,0,.01-.01-.11.05-.26,0-.31-.11-.06-.14.03-.31.17-.37-.12.02-.22.08-.33.12-.11.04-.25.05-.34-.02-.09-.07-.1-.21-.06-.32.04-.11.12-.2.2-.28-.18.04-.35.22-.53.16-.18-.06-.2-.32-.1-.48.1-.16.26-.27.37-.43-.28.13-.57.23-.86.3-.11.02-.23.04-.31-.03-.06-.05-.05-.15,0-.2l-.42.14c-.1.03-.2.07-.3.04-.1-.03-.17-.15-.12-.23-.15.09-.31.18-.49.16-.1-.01-.18-.06-.23-.15-.06-.11-.01-.16.08-.23-.17.07-.33.27-.28.46.04.14.2.21.34.2.14-.01.27-.09.39-.16-.05.03.1.2.12.21.1.07.25.09.37.07.07-.01.14-.04.2-.08.02-.01.19-.09.19-.11,0,.09.13.12.22.11.19,0,.37,0,.56-.01-.13.12-.17.33-.08.48.09.15.29.24.46.19-.14.16-.03.44.18.51.18.05.37-.03.49-.17-.02.02-.03.05-.04.07-.01.03-.03.05-.03.08-.02.06-.03.11-.02.17,0,.05.03.1.06.14.03.04.06.07.11.09.02,0,.05.01.07.01.06,0,.1-.03.15-.06-.03.05-.06.11-.09.16s-.05.11-.06.18c-.02.14.11.27.24.28.08.01.16,0,.23-.04.16-.09.24-.26.31-.42-.12.16-.39.17-.52.01"/>
    <path class="cls-2" d="M159.05,32.02c.12-.03.22-.1.32-.16.03-.01.06-.03.09-.01.02.02.02.05.03.08.01.14.15.24.3.25.14.01.28-.05.4-.13,0,.03,0,.05-.01.08.06.09.17.13.28.14.11,0,.22-.03.32-.06.13-.04.28-.09.35-.21-.07.07-.15.14-.24.13-.11-.02-.17-.14-.15-.24.01-.1.08-.19.15-.27-.18.11-.38.2-.58.25-.08.03-.17.04-.26.02-.08-.02-.16-.1-.15-.18,0-.05.03-.09.07-.13.05-.06.11-.1.18-.14-.17.07-.34.14-.5.2-.13.05-.25.1-.39.09-.13,0-.27-.1-.29-.23,0-.05,0-.1.03-.15-.02.01-.04.03-.07.04-.08.07-.17.14-.21.24s-.05.22.02.3c.08.09.21.11.33.08"/>
    <path class="cls-2" d="M167.49,29.08s-.04.01-.05.02c-.01,0-.03.01-.04.02-.06.02-.13.04-.19.04-.1,0-.21-.07-.23-.17-.01-.06,0-.14-.03-.19-.04-.06-.12-.06-.18-.04-.15.03-.47.25-.59.06-.02-.03-.02-.07-.01-.1,0-.03.01-.05.02-.07-.13.11-.27.15-.42.23s-.3.15-.46.22c-.09.04-.22.06-.29-.03-.09-.11,0-.29.08-.38.08-.1.08-.1.19-.17-.4.16-.75.24-1.18.39-.43.15-.86.34-1.19.66-.05.05-.1.11-.12.18-.01.07.02.15.09.17-.48.15-.91.48-1.18.91-.06.09-.1.22-.02.29.04.03.09.04.14.04.14,0,.28-.05.4-.13-.08-.06-.09-.17-.06-.26.03-.09.1-.16.17-.23.28-.26.6-.46.95-.6-.05.02-.11-.03-.12-.09,0-.06.03-.11.07-.15.03-.04.07-.08.11-.12.16-.16.35-.29.56-.39.22-.11.45-.19.67-.27.03-.01.06-.02.1-.03.01,0,.09-.02.09-.03-.07.22-.08.53.23.53.32,0,.64-.14.84-.38-.07.1-.13.23-.06.33.07.09.2.08.3.06.25-.06.49-.18.68-.35-.08.1-.15.25-.06.35.01.01.02.02.04.03.05.03.12.02.18.01.08-.01.17-.04.25-.08.11-.05.2-.11.29-.19,0,0,.06-.05.04-.06"/>
    <path class="cls-2" d="M161,34.19c-.38.19-.78.32-1.2.4-.12.02-.3,0-.32-.11-.01-.06.02-.11.05-.15.14-.21.33-.39.56-.51-.36.17-.75.29-1.15.36-.16.03-.38-.01-.39-.17,0-.07.04-.13.08-.18.15-.19.34-.35.55-.48-.33.22-.7.39-1.08.5-.15.05-.34.08-.47-.01-.09-.07-.1-.21-.05-.29-.23.13-.49.2-.75.18-.05,0-.1-.01-.14-.04-.12-.11.02-.32.13-.44-.15.16-.31.3-.42.49-.06.1-.1.25,0,.31.04.02.08.03.13.03.09,0,.18-.01.27-.03.06-.01.11-.02.16-.04.07-.02.13-.04.19-.07.03-.01.16-.05.17-.08-.09.22.15.45.39.46.24,0,.45-.13.65-.26-.08.11,0,.27.12.33.12.06.27.04.4.01.24-.05.46-.12.68-.21-.08.21-.4.38-.29.58.04.08.15.12.24.14.37.07.77-.01,1.08-.23.07-.05.14-.1.22-.1.07,0,.12.04.18.07.13.06.28.04.39-.03-.23.02-.44-.21-.4-.43"/>
    <path class="cls-2" d="M156.05,35.71c-.01-.06,0-.11.02-.17,0-.01.03-.03.03-.05-.02,0-.04.02-.06.04-.02.01-.04.03-.06.04-.04.03-.09.05-.14.07-.1.04-.2.06-.3.07-.07,0-.14.01-.21,0-.04,0-.07,0-.1-.01-.03,0-.06,0-.08-.03-.02-.03-.04-.06-.04-.1,0-.03,0-.08,0-.11,0-.01,0-.02.01-.03.01-.03.02-.06.04-.09.02-.03.04-.06.07-.08-.22.14-.46.25-.72.3-.04,0-.08.01-.12,0-.07-.04-.04-.16,0-.23.21-.33.48-.62.77-.89-.31.2-.6.45-.85.73-.1.11-.21.26-.16.41.04.13.2.19.33.18.14,0,.26-.08.38-.14.03-.02.06-.03.09-.05.03-.02.06-.03.08-.04-.03.1-.05.2-.04.29,0,.04.01.09.04.13.02.03.06.07.1.07.05,0,.1,0,.15-.01.07-.01.13-.04.2-.06.1-.04.2-.08.28-.14.07-.04.13-.09.19-.14.01-.01.02-.03.04-.03,0,.01,0,.04-.01.05,0,.02-.01.04-.02.07,0,.05,0,.09.01.14.02.05.06.1.11.13.02.01.04.01.07.01.03,0,.06,0,.08,0,.1-.01.19-.06.27-.12.24-.17.43-.41.56-.67-.27.19-.55.35-.86.47-.03.01-.15.05-.17,0"/>
    <path class="cls-2" d="M182.17,31.55c.09.07.14.13.08.23-.05.09-.13.14-.23.15-.17.02-.34-.07-.49-.17.06.08-.02.21-.12.23-.1.03-.2,0-.3-.03l-.42-.14s.05.15,0,.2c-.08.07-.2.05-.31.03-.3-.07-.59-.17-.86-.3.11.15.27.27.37.43.1.16.08.42-.1.48-.18.06-.34-.12-.53-.16.08.08.16.17.2.28.04.11.03.25-.06.32-.09.08-.23.06-.34.02-.11-.04-.22-.1-.33-.12.14.05.23.23.17.36-.05.11-.21.16-.31.11,0,0,.01,0,.01.01.03.03.04.06.06.09.05.11.05.27-.03.36-.13.15-.4.14-.52-.01.07.16.16.34.31.42.07.04.15.05.23.04.13-.02.26-.14.24-.29,0-.06-.03-.12-.06-.17s-.06-.11-.09-.16c.04.03.09.06.15.06.02,0,.05,0,.07-.01.04-.02.08-.05.11-.09.03-.04.05-.1.06-.14.01-.06,0-.12-.02-.17,0-.03-.02-.05-.03-.08-.01-.03-.03-.05-.04-.07.12.14.31.22.49.17.21-.06.32-.35.18-.5.17.05.37-.04.46-.19.08-.15.05-.36-.08-.48.18,0,.37.01.56.01.09,0,.22-.02.22-.11,0,.02.17.1.19.11.06.03.13.06.2.08.12.03.27,0,.37-.07.02-.01.17-.18.12-.21.12.07.25.15.39.16.14.01.31-.06.34-.2.05-.19-.11-.39-.28-.46"/>
    <path class="cls-2" d="M183.76,32.13c-.1.01-.18-.06-.24-.13.07.12.22.16.35.2.11.03.21.06.32.06.11,0,.22-.05.28-.14,0-.03,0-.05-.01-.08.12.08.26.14.4.13.14-.01.28-.11.3-.25,0-.03,0-.07.03-.08.03-.02.06,0,.09.01.1.06.2.13.32.16.12.03.25.01.33-.08.07-.08.07-.21.02-.3-.04-.1-.13-.17-.21-.24-.02-.01-.04-.03-.07-.04.02.05.04.1.03.15-.02.13-.16.22-.29.23-.14,0-.27-.04-.39-.09-.17-.07-.34-.14-.5-.2.07.03.13.08.18.14.03.04.06.08.07.13,0,.09-.07.16-.15.19-.08.02-.17,0-.26-.02-.21-.06-.4-.14-.59-.25.07.08.14.17.15.27.02.1-.04.23-.15.24"/>
    <path class="cls-2" d="M177.19,29.14c.08.08.18.14.28.19.08.04.16.06.25.08.06.01.13.01.18-.01.01,0,.03-.01.04-.03.09-.09.01-.24-.06-.34.19.17.42.29.67.35.11.03.24.03.3-.06.07-.1.01-.23-.06-.33.21.24.53.38.85.38.31,0,.29-.32.22-.54,0,0,.08.03.09.03l.1.03c.23.07.46.16.67.27.2.1.4.23.56.39.04.04.07.08.11.12.04.04.07.1.07.15,0,.06-.06.12-.12.09.35.14.67.35.95.6.07.07.14.14.17.23.03.09.01.2-.06.26.11.08.25.13.4.13.05,0,.1,0,.14-.04.08-.07.04-.2-.02-.29-.27-.43-.7-.75-1.18-.91.07-.01.11-.1.09-.17-.01-.07-.07-.13-.12-.18-.33-.31-.76-.5-1.19-.66-.43-.15-.88-.27-1.29-.46.11.07.22.14.3.24.08.09.17.27.08.38-.07.09-.2.07-.29.03-.15-.07-.31-.14-.46-.21-.15-.08-.29-.12-.42-.24.01.02.02.05.03.07,0,.04,0,.07-.01.1-.12.2-.44-.03-.59-.06-.07-.01-.14-.01-.18.04-.04.05-.01.13-.03.2-.02.1-.13.16-.23.16-.06,0-.13-.01-.19-.04-.01,0-.03-.01-.04-.02,0,0-.04-.02-.05-.02-.02,0,.03.05.04.06"/>
    <path class="cls-2" d="M183.62,34.65c.06-.03.12-.07.18-.07.08,0,.15.05.22.1.31.21.71.3,1.08.23.09-.02.2-.05.24-.14.11-.2-.21-.37-.29-.58.22.09.45.16.68.21.13.03.28.04.4-.01.12-.06.2-.22.12-.33.2.13.41.27.65.26.24,0,.48-.24.39-.46.01.03.14.07.17.08.06.03.13.05.19.06.05.01.11.03.17.04.09.02.18.03.27.03.04,0,.09,0,.13-.03.1-.06.06-.21,0-.31-.11-.19-.27-.34-.42-.49.11.11.25.33.13.44-.04.03-.09.04-.14.04-.26.01-.53-.06-.75-.18.05.08.04.23-.05.29-.13.09-.31.06-.47.01-.38-.11-.75-.28-1.08-.5.21.13.39.29.55.48.04.05.08.11.08.18,0,.16-.23.19-.39.17-.4-.06-.79-.18-1.15-.36.22.12.42.3.56.51.03.05.06.1.05.15-.02.12-.19.14-.32.11-.42-.07-.82-.21-1.2-.4.04.22-.17.45-.4.43.12.07.27.08.39.03"/>
    <path class="cls-2" d="M188.12,35.91c.08.06.17.11.27.12.03,0,.05,0,.08,0s.05,0,.07-.01c.05-.03.09-.07.11-.13.02-.04.02-.09.01-.14,0-.02-.01-.05-.02-.07,0-.01-.01-.04-.01-.05.01,0,.03.02.04.03.06.05.12.1.18.15.09.06.19.1.29.14.06.02.13.04.2.06.05.01.1.02.14.01.04,0,.08-.04.1-.07.02-.04.03-.08.04-.13,0-.1-.01-.2-.04-.3.03.02.06.03.09.04.03.02.06.03.09.05.12.06.24.13.38.14.14,0,.29-.06.33-.18.05-.14-.06-.29-.16-.4-.25-.27-.54-.52-.85-.73.29.27.56.55.77.88.05.07.08.19,0,.23-.04.02-.08.01-.12,0-.26-.05-.5-.16-.72-.3.03.02.05.05.07.07.02.03.03.06.04.09,0,.01,0,.02.01.03,0,.03.01.08,0,.11,0,.04-.02.07-.04.1-.02.02-.05.02-.08.03-.03,0-.07.01-.1.01-.07,0-.14,0-.21,0-.1-.01-.2-.04-.3-.08-.05-.02-.09-.04-.14-.07-.02-.01-.04-.03-.06-.04-.02-.01-.04-.04-.06-.03,0,.02.02.03.03.05.02.05.03.11.02.16-.01.06-.14.02-.17,0-.3-.12-.59-.28-.85-.47.12.27.32.5.56.67"/>
    <path class="cls-2" d="M171.71,41.8c-.73-.1-.95-.87-.95-.87l-.18.29c.49.69,1.13.58,1.13.58"/>
    <path class="cls-2" d="M170.23,30.24c-.13,0-.23.1-.23.23s.1.23.23.23.23-.1.23-.23-.1-.23-.23-.23M170.23,30.57c-.06,0-.1-.04-.1-.1s.04-.1.1-.1.1.04.1.1-.04.1-.1.1"/>
    <path class="cls-2" d="M196.43,44.18c-.07-.11-.2-.17-.33-.16l-3.05.66-.33,1.64-.8.52c-.01-1.41-.07-2.88-.19-4.4l1.61.35,1.8-2.49c.09-.12.09-.28,0-.41-.07-.11-.2-.17-.33-.17l-3.05.66-.33,1.64-7.3,4.77c-.03-.63-.07-1.26-.13-1.91,0-.03,0-.04,0-.06.18.02.35.04.5.04.4,0,.75-.08,1.05-.28,1.02-.65,1.33-2.62,1.38-3v-.04s-.1-.06-.1-.06c-.19-.13-.65-.49-.78-1.02.16.02.32.06.48.11.14.05.29.12.45.2.42.2.91.43,1.51.44.2,0,.4-.03.63-.09.96-.32,1.34-.8,1.36-.82l.1-.14-1.19-.1.38-1.11-.24.17s-.57.41-.83.51l-.05.02c-.22.07-.48.15-1.22-.14-.45-.18-.84-.25-1.17-.21-.43.05-.72.31-.99.55-.26.23-.58.51-.68.87v.04c-.03.06-.04.12-.04.18v.03s0,0,0,0c-.01.11-.01.23,0,.34.02.17.07.32.13.48.05.12.11.23.18.34,0,0,0,0,0,0-.74,0-1.75-.14-3.11-.56-.99-.31-1.97-.46-2.91-.46-1.34,0-2.47.31-3.39.72,0-.03,0-.06-.02-.09-.03-.07-.07-.14-.11-.2-.11-.17-.22-.36-.24-.56-.03-.24,0-.47.05-.7.05-.33.03-.64-.06-.94-.05-.18-.13-.33-.26-.47-.05-.05-.1-.11-.14-.17-.02-.03-.04-.05-.06-.08.11-.18.17-.36.17-.56,0-.02.02-.05.04-.07l.02-.03s.03-.05.05-.07c.03-.04.06-.08.08-.12.06-.11.09-.24.08-.38v-.21s.06-.04.09-.07c.1.23.29.37.53.38.23,0,.5-.12.68-.31.04.06.1.11.18.14.2.08.39-.05.45-.09.17-.12.34-.24.47-.42.07.02.13.02.18.01.23-.04.37-.27.45-.45l.02-.04c.04-.09.04-.1.07-.11.18-.08.25-.25.3-.4.02,0,.05,0,.07-.02.08-.04.12-.03.19.03.1.09.24.09.36.03.1.1.22.14.35.12.08-.01.17-.05.24-.11.03.03.07.05.11.06.07.03.12.09.2.2l.03.04c.17.23.36.27.48.28.1,0,.23-.03.37-.17.2.13.36.13.46.1.11-.03.27-.11.38-.36.1-.21.15-.4.17-.59.11,0,.21-.06.29-.14.03.02.06.05.07.06.04.03.08.06.1.08.21.14.43.27.67.39.07.04.16.07.27.08.09.01.16,0,.22-.03.03.02.06.04.1.07.64.45,1.03.66,1.31.5.03-.02.08-.06.11-.11.37.26.76.52,1.21.68.1.03.2.03.28,0,.07-.02.13-.06.17-.1.1.07.2.14.3.21.34.25.69.5,1.09.65.24.11.39.06.49,0,.13-.08.18-.21.21-.34.21.18.43.37.78.47h.02c.18.04.3-.01.38-.08.26.2.53.41.84.56.15.07.33.05.45-.05.06-.05.1-.11.12-.17.25.12.49.23.71.39.1.07.37.27.65.09.06-.04.12-.1.15-.19.14.11.28.22.42.32.13.1.52.36.8.21.06-.03.15-.1.18-.25.08.06.17.11.27.17.14.08.28.17.43.27.3.21.61.42,1,.5h.02s.04,0,.06,0c.09,0,.17-.03.22-.08.09-.08.13-.18.11-.32-.05-.53-.39-.92-.7-1.26-.8-.89-1.75-1.68-2.66-2.44-.34-.29-.7-.59-1.04-.88-2.32-2.03-4.72-3.86-7.35-5.62-2.3-1.54-4.64-2.38-6.94-2.49-.99-.05-1.77.08-2.39.39-1.42.74-.96,2.27-.63,3.39l.03.09c.2.61.22,1.04.07,1.28-.06.1-.15.17-.28.21,0,0,0-.01,0-.01l-.03-.03c-.59-.67-1.51-.63-1.79-.6-.11-.07-.21-.14-.27-.19.03-.42-.06-.81-.27-1.13-.07-.1-.15-.2-.24-.28,0,0,0,0-.01,0v-.02c-.01-.15-.08-.3-.19-.4-.13-.13-.31-.19-.52-.19-.18,0-.34.06-.46.11h-.04c-.1.06-.21.1-.28.08-.01,0-.03-.01-.05-.02.13-.72,0-1.39-.37-1.83-.68-.8-1.98-.9-2.95-.84-2.3.11-4.63.95-6.94,2.49-2.63,1.76-5.03,3.59-7.35,5.62-.34.29-.69.59-1.04.88-.91.77-1.86,1.56-2.66,2.45-.3.34-.65.72-.7,1.25-.03.22.1.32.16.36s.12.05.2.05c.18,0,.42-.1.72-.29.17-.11.34-.22.5-.32.14-.08.28-.17.42-.26.06-.04.14-.03.17.03.05.08.11.13.16.15.25.12.58-.05,1.1-.45.05-.04.12-.03.16.01.03.04.07.07.1.09.27.17.54-.02.65-.1.19-.14.39-.24.61-.34.05-.03.11,0,.14.04.02.03.04.06.08.08.13.1.3.12.45.05.29-.13.53-.32.76-.5.03-.02.06-.04.08-.06.08.07.21.12.38.08h.02c.28-.08.48-.22.65-.37.06-.05.15-.03.18.04.03.07.09.14.16.19.09.06.25.1.47,0,.41-.16.76-.41,1.1-.66.1-.07.2-.15.3-.21.04.04.1.08.17.1.09.03.19.03.28,0,.42-.15.78-.38,1.13-.63.05-.03.11-.03.15.01.05.04.1.07.16.08.27.06.64-.15,1.19-.53.05-.03.09-.06.12-.08.05.02.12.04.22.03h.04c.29-.08.53-.24.77-.39l.13-.08s.06-.05.1-.08c.02-.01.05-.04.07-.06.06.07.14.11.22.13.04.01.07.05.08.1.05.33.19.72.48.84.09.04.26.08.46-.03.04-.02.09-.02.13.01.12.09.23.11.31.11.13,0,.3-.05.48-.28l.03-.04c.08-.11.13-.17.2-.2.04-.01.08-.04.11-.06.07.06.15.1.24.11.13.02.26-.02.35-.12.11.06.25.06.36-.03.06-.06.11-.06.19-.03.02.01.05.02.07.02.05.14.13.31.3.4.03.01.03.02.07.11l.02.04c.08.17.21.41.45.44.06.01.14,0,.22-.03,0,0,0,.01,0,.01l.03.13.11-.07c.18-.11.34-.31.46-.56.06.28.17.54.32.76-.5.42-.76,1.1-.65,1.7l.03.13.11-.07c.19-.11.36-.31.49-.56.06.35.19.68.39.95-.5.52-.61,1.14-.45,1.71l.04.13.11-.08c.17-.12.32-.33.42-.58.03.17.08.34.14.49.14.32.11.41.39.61-.05.07-.09.15-.13.23-.89-.37-1.96-.64-3.21-.64h0c-.94,0-1.92.16-2.91.46-1.36.43-2.37.57-3.11.56,0,0,0,0,0,0,.07-.11.13-.22.18-.34.06-.15.11-.31.13-.48.01-.11.01-.22,0-.34h0s0-.02,0-.02c0-.06-.02-.12-.03-.18v-.04c-.11-.36-.43-.64-.69-.87-.26-.23-.56-.49-.99-.55-.34-.04-.72.03-1.17.21-.73.29-.99.21-1.22.14l-.05-.02c-.26-.1-.82-.5-.83-.51l-.24-.17.38,1.11-1.19.1.1.14s.4.5,1.36.82c.22.06.43.09.62.09.6,0,1.09-.24,1.51-.44.16-.08.31-.15.44-.2.16-.06.32-.1.48-.11-.13.52-.59.89-.78,1.02l-.1.06v.04c.06.39.37,2.35,1.39,3,.3.2.65.28,1.05.28.15,0,.31-.01.48-.03-.06.66-.11,1.31-.14,1.96l-7.29-4.77-.33-1.64s-3.05-.66-3.05-.66c-.13-.01-.26.05-.33.16-.08.13-.08.29,0,.41l1.8,2.49,1.62-.35c-.12,1.52-.18,2.99-.19,4.4l-.8-.52-.33-1.64s-3.05-.66-3.05-.66c-.13-.01-.26.05-.33.16-.08.13-.08.29,0,.41l1.8,2.49,1.57-.34c-1.12,8.4.14,14.12,1.39,17.44,1.29,3.41,2.81,5.03,3.05,5.28.41.48,3.11,3.41,7.29,3.41,1.81,0,3.89-.56,6.17-2.1-.71,2.34-2.54,5.09-2.57,5.12l-.1.15h.18c.83-.03,1.48.04,1.98.13l-.31,1.26c-.04.12-.03.21-.03.21,0,.07.02.21.14.32.19.17.54.22,1.04.14.23-.04.4-.04.54-.03l.05,1.33s0,.05,0,.08c0,.03.01.06.04.1.16.25.76.38,1.78.38s1.61-.13,1.77-.38c.04-.06.05-.13.04-.18l.05-1.33c.14-.01.31-.01.54.03.5.08.85.04,1.04-.14.12-.11.15-.25.14-.31,0-.03,0-.06,0-.09,0-.08-.04-.15-.06-.23-.03-.13-.06-.25-.09-.38-.04-.15-.07-.3-.11-.45-.02-.1-.05-.2-.07-.29,0,0,0-.01,0-.02.5-.1,1.16-.17,1.99-.14h.18s-.1-.14-.1-.14c-.02-.03-1.86-2.79-2.57-5.13,2.29,1.55,4.37,2.11,6.18,2.11,4.18,0,6.9-2.95,7.31-3.43.07-.07,1.64-1.62,3.02-5.26,1.26-3.32,2.51-9.03,1.39-17.44l1.56.34,1.8-2.49c.09-.12.09-.28,0-.41M192.19,40.79l2.35-.51-1.41,1.95-1.18-.25.24-1.18ZM151.69,42.23l-1.41-1.95,2.35.51.24,1.18-1.18.25ZM150.41,46.53l-1.41-1.95,2.35.51.24,1.18-1.18.26ZM187.9,44.92l3.35-2.19c.11,1.53.17,3.02.18,4.43l-3.81,2.5c.16-1.43.25-2.98.29-4.73M184.18,47.36l1.59-1.04c-.07,1.76-.22,3.34-.45,4.83l-1.24.81c.12-1.45.15-2.98.09-4.6M184.03,52.59l1.98-1.3c-.12,2.72-.48,5.44-1.33,8.03-.43,1.33-.99,2.61-1.66,3.84-.67,1.22-1.47,2.37-2.36,3.44-.46.56-.95,1.1-1.47,1.61-.37-.35-.64-.67-.81-.88,2.63-3.28,4.99-8.13,5.64-14.76M175.36,67.24c-.05-.08-.14-.11-.21-.14h-.04s-.07-.06-.07-.07c0,0,.03-.03.05-.04.02-.02.05-.03.08-.06.1-.13.1-.29,0-.43-.14-.2-.44-.3-.64-.23-.09.02-.17.06-.25.1-.04.02-.08.04-.12.06-.06.02-.19.07-.28,0-.03-.02-.06-.05-.08-.09-.03-.04-.07-.1-.13-.13-.09-.06-.19-.06-.27-.07l-1.08-.07c-.14-.01-.23.03-.29.15-.02.02-.07.02-.14.02-.06,0-.13,0-.2.02-.11.04-.18.13-.24.21-.04.05-.07.1-.11.12-.1.08-.25.06-.4.03-.07-.01-.15-.02-.22-.02-.2,0-.49.08-.63.27-.08.11-.11.23-.07.37.01.03.03.05.04.08,0,.01.02.03.03.04.02.05,0,.13-.05.18-.06.07-.16.08-.28.09-.13.01-.27.03-.38.14-.03.04-.06.08-.07.12-.02.03-.03.06-.05.08-.02.02-.05.03-.08.04-.03.01-.06.03-.09.05-.2.13-.2.38-.2.59,0,.09,0,.17-.01.23-1.7-1.63-3.44-3.91-4.82-6.89h1.4c.03.06.06.13.09.19.2.43.4.88.79,1.18.1.11.17.24.25.38.07.13.15.27.25.39.15.17.33.3.51.42.5.34,1.08.73,1.73.87.16.03.32.05.48.07.19.02.37.04.55.09.13.03.25.08.38.13.11.04.21.08.32.11.4.12.83.14,1.24.15.69.03,1.4.06,2.09-.13l.1-.03c.34-.09.69-.19.93,0,.09.07.16.19.24.3.12.2.25.4.51.42.07,0,.08.01.08.01.01.01.01.08.01.13,0,.03,0,.07,0,.11.02.13.11.22.25.26.04,0,.07.01.11.01.12,0,.23-.05.3-.14.17-.21.08-.53-.1-.7h-.02s-.04-.05-.04-.06c0,0,0-.04.04-.1.27-.37.7-.62,1.15-.66.04,0,.07,0,.11,0,.16-.01.32-.02.47-.11l.13-.09-.14-.07c-.1-.05-.19-.11-.27-.18.34-.19.7-.25,1.1.2-1.03,1.58-2.16,2.88-3.26,3.9-.02-.04-.04-.08-.04-.15v-.03s-.05-.07-.07-.1c-.01-.02-.03-.04-.04-.06-.01-.03-.01-.07-.01-.11,0-.04,0-.07,0-.11-.03-.18-.19-.33-.44-.41-.07-.02-.09-.04-.1-.05.02-.08.07-.16.13-.25.11-.16.22-.34.13-.57M169.86,44.65c-2.93,1.03-5.26.31-6.62-.42.29-.08.58-.16.89-.24,2.67-.52,4.68-.08,5.74.28-.02.13-.02.25,0,.38M170.89,44.76c.16.22.36.41.6.54l.11.06.02-.13c.04-.24.01-.51-.07-.78.19-.1.39-.21.59-.33.04.1.09.2.14.29l.07.11.08-.11c.07-.1.14-.21.19-.34,1.92,1.15,3.67,1.55,5.17,1.55,1.84,0,3.31-.6,4.25-1.14.01,0,.09-.06.15-.09.38.11.73.2,1.06.28,0,.06,0,.13.01.15.3,3.13.25,5.96-.06,8.51h-21.59c-.33-2.59-.39-5.47-.08-8.66.33-.08.69-.17,1.08-.28,1.54.91,4.57,1.98,8.27.35M169.08,38.19h0s-.02-.06-.03-.09c.18.17.4.29.63.35l.13.03v-.13c-.03-.28-.17-.59-.4-.85h0c-.15-.17-.39-.36-.63-.46.03-.15.04-.31.04-.48l.64.49.18.25v.52s.07.08.1.12c.02.02.04.05.05.07l.02.03s.04.06.04.07c0,.2.06.38.17.56-.02.03-.04.05-.06.08-.05.06-.09.12-.14.17-.11.12-.18.25-.24.41-.18-.13-.38-.27-.46-.31.04-.25.04-.54-.03-.83M169.32,31.16c0,.12-.02.24-.05.37-.04.2-.11.4-.2.58-.15.29-.36.53-.58.66,0-.46.17-.93.48-1.28.11-.13.23-.24.35-.33M169.18,30.82c-.37-.05-.68.05-.92.3,0,0,0,0-.01,0,0-.1.02-.18.06-.25.03-.07.07-.12.1-.17.08-.11.19-.2.33-.28.08-.04.16-.06.24-.06.07,0,.14.01.21.03.07.02.12.07.14.17.01.07.01.12-.04.25h-.01s-.05,0-.08,0M168.63,34.17h0c0-.08,0-.16,0-.23.16.22.38.4.63.5l.12.05v-.13c.03-.28-.07-.6-.26-.9h0c-.12-.18-.31-.39-.53-.53.25-.15.48-.41.66-.74h0c.09-.19.16-.39.21-.59.07.22.16.43.26.59.17.29.42.52.71.68-.31.55-.34,1.22-.07,1.74l.06.12.09-.1c.16-.18.27-.46.31-.78.17.35.42.65.72.84-.11.09-.2.21-.29.32-.27.36-.39.84-.32,1.28l.02.13.11-.06c.22-.12.43-.36.58-.67.07.39.23.74.47,1.02-.23.15-.44.35-.58.59-.16.26-.25.58-.25.9v.13s.12-.04.12-.04c.21-.07.42-.25.6-.48-.02.4.06.8.24,1.13-.12.05-.23.11-.35.2-.36.25-.63.67-.7,1.11l-.02.13.13-.02c.22-.03.46-.17.68-.37-.1.47-.05.96.15,1.37-.14.16-.26.34-.36.55-.2.4-.26.86-.2,1.3-.27-.24-.62-.52-1.03-.78-.03-.11-.07-.22-.1-.29h0s-.05-.09-.07-.13c.16.06.33.1.5.1.04,0,.09,0,.13,0h.12s-.05-.13-.05-.13c-.1-.25-.33-.51-.62-.68h0s-.04-.02-.06-.03c-.01-.2-.07-.39-.3-.42-.08,0-.17,0-.25.02-.02,0-.03,0-.05,0-.01,0-.02-.02-.02-.03-.05-.16-.08-.32-.1-.49.13.1.27.17.41.21l.12.04v-.13c0-.28-.13-.59-.33-.87h0s-.06-.06-.11-.11c.02-.05.04-.1.07-.14.12-.19.24-.38.39-.55.02-.03.05-.06.09-.05-.15-.09-.24-.19-.28-.37-.03-.13-.03-.28,0-.41,0-.02.01-.05.03-.06-.1-.03-.16-.12-.19-.22-.03-.09-.03-.22-.02-.31v-.05s-.38-.58-.38-.58c0,0-.39-.01-.62-.35,0,0,0-.01-.01-.02,0-.06-.01-.13-.03-.19.15.13.33.23.51.29l.12.04v-.13c-.01-.28-.14-.59-.35-.87h0c-.17-.22-.41-.39-.65-.51.12-.23.2-.52.22-.83M168.46,33.08c.2.12.38.32.49.49.13.21.21.44.24.64-.19-.1-.35-.26-.47-.44-.07-.11-.13-.24-.18-.37-.02-.07-.03-.13-.06-.19,0-.04-.02-.08-.03-.12M169.54,31.17c.26.16.49.4.66.66.17.29.27.61.28.88-.25-.14-.47-.35-.62-.61-.18-.3-.29-.64-.32-.93M170.54,33.03c.07.2.11.46.1.72-.02.25-.09.48-.19.65-.16-.42-.13-.94.09-1.37M170.75,32.97c.25.17.48.42.63.69.13.25.21.51.24.75v.1c-.5-.26-.82-.89-.87-1.54M171.61,34.87s0,.06,0,.09c0,.04,0,.09-.01.13-.02.17-.06.35-.13.5-.1.22-.24.41-.39.53-.01-.35.1-.71.31-1,.07-.08.14-.18.22-.25M172.57,37.99c0,.32-.06.64-.17.87h-.03c-.2-.4-.27-.88-.18-1.34.04-.16.08-.34.14-.49.14.29.23.62.24.95M172.47,36.61c.19.13.35.32.46.52.12.22.19.45.2.66-.27-.18-.48-.48-.59-.82-.03-.11-.06-.24-.07-.36M171.99,43.01c-.07.14-.15.27-.24.36-.11-.45-.05-.95.15-1.37.08-.16.16-.3.26-.42.02.11.04.24.04.36,0,.11,0,.23,0,.35-.07.15-.12.31-.16.48-.02.08-.03.15-.04.23M172,43.63s-.01,0-.02.01c-.03-.04-.07-.08-.12-.12.04-.04.08-.08.11-.13,0,.08.01.16.02.24M170.63,43.44c.25.19.46.44.61.72.15.3.23.63.22.9-.36-.24-.63-.65-.74-1.1-.04-.16-.08-.35-.08-.52M170.65,44.34s-.03.01-.05.02c-.03-.01-.07-.03-.1-.04.02-.04.03-.08.04-.13h0s.01-.05.02-.08c.02.08.05.15.09.23M171.34,43.98c-.18-.3-.43-.58-.71-.77,0-.12-.02-.32-.06-.53.43.3.78.59,1.04.84,0,.01,0,.03.01.04l.04.13.07-.05s.06.06.08.08c0,0-.01,0-.02.01-.1.05-.2.11-.3.16-.05.03-.09.05-.14.08M172.17,43.06c.07-.14.12-.29.16-.45h0c.02-.09.03-.17.04-.26.05.11.08.22.12.34.05.19.08.41.08.62,0,.34-.08.66-.21.88-.17-.34-.23-.74-.19-1.13M172.37,41.49c.16.16.3.36.39.57.09.22.13.45.11.64-.32-.29-.5-.75-.5-1.22M172.22,41.16c-.16-.42-.17-.93-.02-1.38.06-.17.12-.32.2-.45.04.11.07.23.09.35.04.2.04.42.03.63-.04.33-.15.64-.3.86M171.91,39.77c-.16.18-.35.31-.53.37.09-.34.31-.65.59-.85.1-.07.2-.12.29-.17-.02.06-.05.12-.07.18l-.02.05c-.07.14-.15.28-.26.41M171.89,35.06c.04.06.09.11.14.16.09.16.16.33.21.5.05.22.07.43.06.63v.07s-.01.04-.01.06c0,.04-.01.09-.02.13h-.02c-.29-.32-.46-.77-.48-1.24,0-.09,0-.2,0-.29,0-.05.01-.1.01-.14,0,0,0-.01,0-.02.03.05.07.1.1.14M171.85,34.64c.22.05.43.16.61.29.19.16.34.35.42.54-.25-.05-.49-.17-.69-.36-.1-.17-.21-.33-.34-.47M172.14,36.9c-.03.22-.11.47-.24.69-.13.21-.29.37-.45.47.02-.23.1-.46.21-.65.12-.2.29-.37.48-.5M170.33,41.44c.21.13.38.29.48.47-.21,0-.42-.06-.61-.17-.05-.03-.1-.06-.14-.1-.12-.06-.29-.27-.28-.26-.04-.04-.07-.09-.1-.13.22.01.45.08.65.2M169.83,41.11s.01-.02.01-.03c.03-.05.07-.08.12-.11.03-.01.05-.02.08-.02.02,0,.05,0,.07.02.02.01.03.02.04.04.01.02.02.04.02.06,0,.03,0,.05.01.08,0,.01,0,.03,0,.04-.11-.03-.24-.06-.35-.09M168.91,35.62c.15.2.26.42.29.62-.21-.09-.39-.25-.54-.44-.07-.17-.15-.34-.25-.5-.01-.04-.03-.08-.04-.11.21.1.4.25.54.43M168.72,37.22c.21.09.42.26.55.41.16.19.27.41.32.6-.2-.08-.38-.21-.53-.38-.15-.18-.27-.39-.35-.63,0,0,0,0,0,0M169.7,39.69c.15.2.25.42.28.62-.29-.13-.54-.39-.69-.71-.04-.11-.1-.23-.12-.35.2.1.39.26.53.44M169.66,41.52c.08.09.17.17.26.25.12.14.23.29.32.45.15.3.22.63.22.9-.36-.24-.63-.65-.74-1.1,0-.04-.02-.09-.03-.14,0-.1-.02-.2-.05-.3,0-.03,0-.06,0-.08.01,0,.02.02.03.03M170.37,44.13c-.07.23-.18.43-.32.57-.03-.21-.01-.44.05-.64.08-.24.2-.46.33-.61.02.23,0,.47-.06.69M174.46,44.46c.83-.35,3.06-1.08,6.25-.47.28.07.55.15.82.22-1.68.88-4.1,1.46-7.06.25M183.14,53.84c-.4,2.93-1.15,5.48-2.11,7.67h-8.38v-.23l.57-1.2-.54-1.63c.28.04.58.13.86.29.06.24.33,1.23.78,1.38.16.06.36.08.56.08.39,0,.79-.09.96-.2l.11-.07-.1-.08s-.34-.24-.66-.57c-.44-.45-.42-1.29-.4-1.73,0-.04,0-.09.01-.15.06-.63.25-2.56-1.38-2.87-.35-.07-.71-.07-1.05,0-.31.06-.6.15-.88.29-.23.11-.45.25-.66.4-.12.09-.26.18-.36.29-.13.14-.15.27-.18.45-.02.16-.04.32-.04.48,0,.09,0,.2.06.28.11.16.23.12.32.09.02,0,.04-.01.06-.02.03.24-.08,1.16-.22,1.99l-.03.2.17-.1s.56-.33,1.29-.42l-.54,1.63.59,1.2v.23h-8.12c-.96-2.19-1.72-4.74-2.13-7.67h21.45ZM177.75,65.01c.07.07.15.14.24.19-.07.01-.14.02-.22.02-.04,0-.07,0-.11,0-.51.05-.99.32-1.28.74-.03.04-.11.16-.06.28.02.06.06.09.1.12h.01c.12.12.18.33.08.46-.05.07-.15.08-.22.06-.03,0-.1-.03-.11-.1,0-.03,0-.07,0-.1,0-.1,0-.2-.07-.27-.05-.05-.12-.07-.2-.06-.16-.01-.25-.16-.36-.34-.08-.13-.16-.25-.28-.35-.31-.25-.73-.13-1.09-.03l-.1.03c-.66.17-1.36.15-2.04.12-.4-.01-.81-.03-1.19-.14-.1-.03-.21-.07-.31-.11-.13-.05-.26-.1-.4-.13-.19-.05-.39-.07-.58-.09-.15-.02-.31-.03-.46-.07-.61-.13-1.17-.51-1.66-.84-.17-.11-.35-.23-.48-.39-.09-.11-.16-.23-.23-.36-.08-.14-.16-.29-.29-.43-.36-.29-.55-.69-.74-1.12-.02-.04-.04-.07-.05-.11h15.17c-.5,1.09-1.05,2.09-1.63,2.99-.54-.56-1.05-.36-1.41-.13l-.1.06.09.08ZM171.54,60.07l.54-1.64c.13,0,.26,0,.39,0l.54,1.64-.54,1.15v.29h-.36v-.27l-.57-1.17ZM173.99,56.32c-.19-.43-.56-.82-1.03-.89-.39-.06-.78.09-1.12.28-.28.16-.55.35-.8.56-.11.1-.22.2-.34.29-.05.03-.13.1-.19.1-.06,0-.09-.08-.09-.13,0-.2.01-.4.04-.59,0-.06.02-.12.04-.17.03-.07.09-.13.15-.18.64-.55,1.45-.92,2.29-.92.33,0,.68.06.96.25.4.26.62.73.7,1.2.08.47.03.95.01,1.43-.02.48-.01.97.17,1.41.16.4.46.74.83.95-.32.11-.67.15-1.01.11-.11-.01-.23-.04-.32-.1-.11-.07-.18-.18-.24-.29-.14-.26-.25-.53-.31-.82-.01-.06-.03-.11-.07-.16-.03-.03-.06-.05-.1-.07-.44-.24-.96-.34-1.46-.32-.5.03-1,.17-1.46.38.11-.6.17-1.21.19-1.82,0-.03,0-.07.01-.1,0,0,0-.02,0-.03.01-.03.04-.06.07-.08.35-.32.74-.61,1.17-.82.32-.15.68-.25,1.01-.13.19.07.34.21.47.37.36.48.44,1.1.5,1.7.06,0,.12,0,.18,0-.04-.47-.08-.95-.28-1.39M185.4,39.97c.26-.22.52-.45.89-.5.31-.04.66.03,1.08.2.8.32,1.09.23,1.34.14l.05-.02c.18-.06.45-.24.64-.37l-.27.79,1.06.09c-.18.16-.54.43-1.13.63-.81.23-1.44-.07-2-.34-.16-.08-.31-.15-.46-.2-.57-.21-1.2-.17-1.71.08.13-.19.32-.35.49-.5M184.77,40.78c.32-.23.71-.34,1.11-.34.12.57.56.96.8,1.14-.18.17-.63.47-1.59.52-.11-.15-.49-.72-.32-1.31M178.85,41.25h0c.92,0,1.88.15,2.85.46,3.15.96,4.56.45,5.02.07-.11.64-.45,2.12-1.26,2.64-.75.49-1.93.16-3.55-.29-.37-.1-.75-.21-1.16-.32-3.45-.66-5.82.23-6.52.55-.14-.06-.29-.13-.43-.2-.03-.02-.06-.04-.09-.06-.12-.07-.24-.14-.36-.21-.1-.06-.2-.11-.3-.16,0,0-.01,0-.02-.01.73-.77,2.7-2.47,5.82-2.47M175.22,41.58s.03.06.05.09c.02.04.05.09.05.13,0,.11-.13.14-.21.11-.14-.06-.29-.18-.4-.28-.14-.13-.49-.61-.19-.75.16-.08.32.1.4.22.11.15.2.32.29.48M175.25,31.99c.31-.5.14-1.21-.02-1.69l-.03-.09c-.38-1.28-.6-2.3.38-2.81.53-.27,1.23-.38,2.14-.33,2.21.11,4.46.92,6.69,2.41,2.61,1.75,4.99,3.57,7.29,5.58.34.3.7.6,1.05.89.9.75,1.83,1.54,2.61,2.4.22.25.43.48.53.76-.2-.08-.4-.22-.6-.36-.15-.1-.31-.21-.46-.29-.3-.18-.45-.28-.71-.53-.11-.09-.27-.09-.38,0-.11.1-.13.25-.04.38.06.08.08.12.1.16-.06-.03-.12-.07-.18-.11h-.01c-.17-.12-.35-.27-.52-.41-.14-.12-.28-.24-.42-.34l-.88-.62.52.94c.04.07.07.14.1.21,0,0,0,0,0,0-.29-.21-.6-.36-.91-.5l-.12-.06c-.1-.05-.23-.04-.32.03-.08.06-.12.14-.13.23-.23-.13-.43-.29-.65-.46-.06-.05-.12-.09-.18-.14l-.22-.17-.14.24s-.03.05-.04.07c0,0,0,0,0,0-.23-.07-.39-.21-.57-.37-.09-.08-.18-.15-.28-.23-.1-.07-.22-.08-.32-.03-.1.05-.17.15-.17.27v.02c0,.06,0,.17-.01.24,0,0-.01,0-.02,0-.35-.14-.66-.36-.99-.6-.18-.13-.36-.26-.55-.38l-.21-.13-.13.21s-.03.07-.04.09c-.41-.16-.79-.43-1.16-.69l-.09-.06c-.05-.04-.22-.16-.38-.06-.05.03-.13.11-.12.25-.12-.05-.33-.17-.71-.43-.06-.04-.11-.08-.13-.09-.17-.12-.3-.09-.4-.05,0,0-.01,0-.02,0-.03,0-.07-.03-.1-.04-.21-.1-.41-.22-.6-.35-.02-.01-.04-.03-.06-.05-.13-.11-.3-.26-.51-.22-.09.02-.17.07-.23.17-.12-.04-.22-.04-.3.02-.14.1-.14.27-.13.33,0,.17-.03.35-.13.56-.03.07-.05.08-.05.09,0,0-.04,0-.1-.06,0,0-.01-.01-.02-.02-.05-.04-.15-.13-.29-.11-.06,0-.15.04-.22.15-.05.06-.08.08-.08.08,0,0-.04-.02-.08-.08l-.03-.04c-.09-.12-.2-.27-.4-.35-.01-.01-.03-.04-.03-.05l-.03-.05c-.06-.09-.17-.14-.27-.13-.11,0-.2.08-.25.18v.03c-.06-.05-.14-.12-.25-.13-.09,0-.16.02-.21.05-.16-.09-.33-.11-.51-.05-.09-.02-.16,0-.21.02-.14.07-.18.2-.19.25-.01.05-.05.17-.07.18-.2.1-.27.26-.31.36v.03c-.04.06-.06.1-.08.13-.07-.06-.16-.07-.25-.06-.1.02-.18.09-.21.18-.07.16-.21.27-.38.39h0s-.01-.07-.02-.11c-.01-.07-.03-.15-.06-.23l-.23-.63-.25.69s-.03.07-.04.12c-.06.19-.29.35-.43.34-.03,0-.08,0-.13-.16,0-.01,0-.03,0-.04,0-.07-.02-.18-.11-.29l-.2.16c-.06-.29-.27-.6-.3-.68-.06-.13-.02-.37.13-.65.15-.29-.24-.97-.24-.97.54-.65.24-1.47-.03-1.96.18-.09.33-.21.43-.37M174.22,32.2s.1.09.24.11c0,0,.02.01.02.02.22.26.32.53.41.85.05.17.07.36.02.54-.03.13-.11.27-.2.36-.07.06-.12.14-.19.2-.01,0-.03.02-.05.03-.16.08-.43.18-.87.24,0,0-.31.22.95-.04.07.08.13.17.19.26.07.11.11.18.08.32,0,.11-.08.24-.11.34-.04.11-.07.23-.06.35.02.3.3.47.37.74.04.15,0,.31-.09.43-.03.04-.14.1-.16.14-.02.05.03.13.04.17.01.09,0,.22-.02.31-.03.1-.1.19-.19.22.02,0,.03.03.04.05.03.13.02.28,0,.41-.03.17-.13.28-.28.37.03,0,.06.02.09.05.14.17.27.36.39.55.13.21.15.5.16.74,0,.25-.03.51-.11.75,0,.01-.01.03-.02.04-.01.01-.03,0-.05,0-.08-.01-.17-.03-.25-.02-.27.03-.3.31-.3.53l-.39-.43h0s-.22.76-.95.86c0,0,.63.11,1.12-.55.03.06.06.11.09.16.09.14.21.28.33.4.12.11.26.25.41.33.01,0,.03.01.04.02-1.02.55-1.71,1.2-2.06,1.59-.04-.02-.07-.05-.11-.07.01-.09.02-.18.02-.27h0c0-.17-.02-.34-.05-.5.06.06.11.11.17.15l.11.08.03-.13c.06-.25.03-.58-.1-.91h0c-.12-.29-.31-.55-.55-.74.16-.24.28-.57.32-.93h0c.01-.14.01-.28,0-.41.19.25.43.44.71.53l.12.04v-.13c0-.28-.12-.6-.32-.88h0c-.17-.22-.4-.41-.64-.54.13-.26.2-.6.19-.95h0c0-.11-.01-.21-.03-.31.13.15.28.27.45.36l.12.06v-.13c.05-.27-.03-.61-.2-.92h0c-.15-.26-.37-.49-.61-.64.02-.22,0-.47-.07-.72h0c-.02-.07-.04-.14-.07-.22.21.13.43.2.66.21h.13s-.03-.11-.03-.11c-.07-.27-.26-.55-.53-.77h0c-.22-.17-.49-.29-.75-.34-.02-.28-.11-.58-.27-.87h0c-.2-.35-.5-.66-.84-.85l-.04-.03c-.01-.3-.12-.65-.31-.96h0c-.1-.16-.22-.3-.35-.43.04.02.08.03.11.04.11.03.36.29.45.38.04.03.1.06.17.08l.02.38s.22-.36.45-.39c0,0,.55.23.61.79.03.28.04.64.1.91.01.05.03.11.06.14.04.04.1.05.15.06.34.06.71.02,1.01-.15.14-.08.31-.21.32-.39.01-.23-.05-.45-.13-.66-.05-.13-.11-.26-.18-.39-.04-.06-.08-.12-.12-.18-.05-.07-.11-.11-.17-.17-.02-.02-.03-.03-.03-.04.27-.02.99-.02,1.41.49M172.54,39.12c.2.11.39.27.53.46.14.2.24.43.27.63-.29-.15-.54-.41-.68-.74-.04-.11-.09-.23-.12-.34M171.97,30.78v.06c0,.07-.01.13-.03.19-.04.18.05.3.16.4.03.03.06.04.08.06.01,0,.02.02.04.02.29.2.53.46.7.76.12.21.27.47.32.71.04.21-.14.39-.3.48-.23.13-.51.16-.77.09-.03,0-.06-.02-.07-.04-.03-.03-.03-.09-.03-.14,0-.11,0-.22,0-.33v-.15s-.02-.05-.02-.07v-.02c-.02-.5-.25-.9-.71-1.23-.08-.06-.2-.13-.35-.08-.03.01-.07.01-.11.02-.02,0-.03,0-.05,0-.08,0-.13,0-.18-.06-.31-.29-.67-.48-1.04-.56,0,0,0,0-.01-.01.03-.19.03-.35-.03-.54.05-.04.11-.05.16-.08.06-.04.11-.08.16-.13.09-.08.19-.16.31-.17.06,0,.11.01.16.03.04.01.08.01.13.02.1.01.21.02.31-.02.06-.02.13-.07.19-.05.06.01.09.06.14.08.04.03.1.04.15.06.08.03.16,0,.22-.03.02,0,.04-.02.06-.02.29.16.43.41.41.74M170.58,29.51c.21.09.42,0,.42,0l.03-.02c.14-.06.25-.09.34-.09.1,0,.19.02.25.08.04.04.08.09.09.13,0,.02.03.09,0,.15-.01.02-.03.05-.06.07-.09.08-.23.1-.34.04-.08-.04-.15-.13-.24-.15-.1-.02-.15.05-.24.09-.14.06-.29-.01-.44-.03-.29-.04-.48.14-.66.34-.07.07-.17.16-.27.13-.05-.01-.08-.05-.11-.07-.05-.04-.1-.06-.17-.07-.11-.01-.23.01-.34-.03-.18-.07-.15-.26-.05-.39.13-.17.45-.05.6.04.03.02.06.04.09.04.04,0,.07-.01.11-.04l.06-.06c.43-.64.7-.25.91-.16M167.39,36.09c-.06.02-.12.07-.17.15-.01-.02-.03-.06-.05-.1v-.03c-.06-.11-.13-.27-.32-.36-.03-.02-.06-.13-.07-.19-.01-.04-.05-.18-.19-.25-.05-.02-.12-.04-.21-.02-.18-.06-.35-.04-.5.05-.05-.03-.13-.06-.21-.05-.11,0-.19.07-.24.13v-.03c-.06-.1-.15-.17-.26-.18-.11,0-.21.04-.27.13l-.03.05s-.03.04-.04.05c-.2.08-.31.23-.4.35l-.03.04c-.05.06-.08.08-.08.08,0,0-.04-.02-.09-.09-.03-.03-.1-.14-.24-.15-.06,0-.15,0-.25.1-.07.07-.12.09-.13.09-.08-.03-.2-.35-.2-.64,0-.06.01-.23-.13-.33-.08-.06-.19-.06-.3-.02-.05-.09-.14-.15-.23-.17-.2-.04-.38.11-.51.22-.02.02-.04.04-.05.04l-.13.08c-.2.13-.39.25-.6.31,0,0,0,0-.01,0-.11-.04-.24-.07-.39.04-.03.02-.09.06-.15.1-.23.16-.42.28-.55.36-.06.03-.14,0-.16-.06-.02-.05-.05-.1-.12-.14-.17-.09-.32.03-.38.07l-.08.06c-.37.26-.75.53-1.16.69-.01-.03-.02-.06-.04-.09l-.13-.21-.21.13c-.19.12-.37.25-.55.38-.33.24-.64.46-1.01.6,0,0,0,0,0,0-.01-.07-.01-.18-.01-.24v-.02c0-.12-.07-.22-.17-.27-.11-.05-.23-.04-.32.03-.11.08-.2.15-.29.23-.18.16-.34.3-.57.37,0-.01-.01-.03-.02-.04-.02-.05-.04-.11-.06-.16-.03-.07-.12-.09-.18-.05-.05.03-.09.07-.13.1-.1.07-.2.15-.3.23-.18.14-.35.28-.54.38,0-.09-.05-.18-.13-.24-.09-.07-.22-.08-.32-.03l-.12.06c-.31.14-.62.28-.91.49,0,0,0,0,0,0,.02-.07.05-.14.09-.21,0,0,0-.01,0-.02.03-.12.08-.23.1-.35.03-.18-.15-.17-.27-.09l-.21.13s0,0,0,0c-.04.03-.1.08-.21.18-.42.36-.73.59-.91.68.02-.04.05-.09.11-.17.08-.12.06-.28-.05-.38-.11-.1-.27-.1-.39,0-.31.29-.64.49-.98.7-.17.1-.35.21-.52.33-.08.06-.18.11-.26.15.09-.28.31-.52.54-.77.78-.86,1.71-1.64,2.61-2.4.35-.29.7-.59,1.05-.89,2.3-2.01,4.69-3.84,7.3-5.58,2.23-1.49,4.47-2.3,6.69-2.41.71-.04,1.97,0,2.55.67.28.33.37.89.27,1.47-.27-.04-.5.35-.5.35-.14-.07-.3-.13-.45-.1-.27.04-.39.29-.33.55v.03s.03.07.04.1c0,.01-.02.03-.03.04-.01,0-.03.02-.04.03-.02.01-.04.03-.06.04-.03.03-.07.06-.1.08-.06.05-.13.1-.19.16-.28.29-.36.64-.24,1.03,0,.02.01.04.02.07.13.35.08-.23.41-.38.28-.13.52-.15.71-.14-.11.09-.22.19-.32.31-.33.38-.52.9-.52,1.41-.02,0-.04,0-.06.01h0c-.43.1-.81.48-.91.93l-.03.12h.12c.19-.01.36-.11.49-.2-.13.48-.11.98.06,1.42-.31.27-.52.65-.59,1.04M167.95,35.86c-.01.06-.03.11-.05.16-.08.21-.18.38-.31.51-.01,0-.03.02-.05.02-.04-.44.13-.91.44-1.25-.03.16-.04.34-.04.5,0,.02,0,.04,0,.06M167.92,33.39c-.11.11-.24.18-.36.22.11-.28.35-.53.63-.62,0,0,0,0,0,0-.04.06-.08.13-.11.21-.05.07-.1.13-.15.18M168.11,33.65c.04-.12.08-.25.14-.37.02-.03.04-.06.05-.09,0,.02.01.03.02.05.02.07.04.15.06.22.06.23.08.46.07.69-.02.29-.1.56-.21.77l-.06.08v-.03c-.17-.41-.19-.89-.06-1.33M168.13,35.87c.04-.19.06-.38.05-.54h0s.04.04.06.07c.03.08.06.15.09.22.05.1.1.19.17.28.03.09.06.18.08.27.06.29.06.58,0,.82l-.11-.02c-.21-.31-.34-.7-.35-1.09M168.32,37.29c-.04.15-.05.32-.06.48-.02.08-.04.16-.07.23-.1.23-.23.42-.37.55-.03-.45.15-.94.49-1.27,0,0,0,.01,0,.02M168.69,40.12c-.07.24-.18.45-.32.59-.08-.45.06-.95.37-1.32.04.25,0,.53-.05.73M168.89,39.15s0,0-.01-.01l-.05-.06-.02-.03c-.24-.33-.37-.75-.37-1.18,0-.02,0-.05,0-.07.03-.14.05-.28.06-.43.19.25.33.55.4.86.07.33.06.66-.01.92M169.11,40.8c-.16-.36-.2-.8-.13-1.25.2.24.36.54.44.85.06.22.08.45.06.67v.04s-.02.13-.02.13c0,0,0,0,0,0,0,.03,0,.06-.01.09-.12-.12-.24-.31-.34-.53M169.29,41.94c.05-.1.1-.21.16-.31.01.09.02.18.04.26.01.15,0,.31-.02.46-.05.25-.14.47-.27.63-.09-.33-.06-.71.08-1.04M158.22,40.39c-.15.05-.3.13-.46.2-.55.27-1.18.57-2,.34-.6-.2-.96-.47-1.13-.63l1.06-.09-.27-.79c.2.13.47.31.64.37l.05.02c.26.08.55.18,1.34-.14.42-.17.77-.24,1.08-.2.37.04.63.28.89.5.17.15.36.32.49.5-.51-.26-1.14-.29-1.71-.08M158.96,40.44c.4,0,.79.11,1.11.34.16.59-.21,1.16-.32,1.31-.96-.04-1.41-.35-1.59-.52.24-.18.69-.57.8-1.14M159.37,44.43c-.82-.53-1.15-2.01-1.26-2.64.46.38,1.87.89,5.02-.07.97-.3,1.93-.46,2.85-.46h0c1.23,0,2.27.27,3.13.63-.18.43-.19.9-.03,1.3l.05.13.1-.09c.19-.18.34-.48.42-.82.15.35.4.66.69.86-.17.18-.33.44-.42.74-.01.03-.01.06-.02.09-1.1-.37-3.12-.8-5.82-.28-.38.1-.74.2-1.08.29-.03,0-.06.02-.08.02-1.62.46-2.8.79-3.55.29M160.64,47.36c-.06,1.58-.02,3.12.1,4.61l-1.24-.81c-.23-1.49-.37-3.08-.45-4.83l1.59,1.04ZM160.8,52.59c.41,4.07,1.49,7.79,3.21,11.04.71,1.34,1.54,2.59,2.44,3.72-.17.2-.43.51-.78.85-.51-.52-1.01-1.06-1.47-1.62-.89-1.07-1.69-2.23-2.36-3.44-.68-1.23-1.23-2.52-1.66-3.84-.84-2.57-1.21-5.28-1.33-7.98l1.96,1.28ZM153.56,42.73l3.35,2.19c.03,1.75.13,3.3.29,4.73l-3.81-2.49c0-1.41.06-2.9.18-4.43M156.58,69.13s-1.64-1.61-2.98-5.16c-1.22-3.24-2.43-8.8-1.38-16.98l4.01,2.62c0,.49.02.97.04,1.45.1,2.79.47,5.58,1.34,8.24.43,1.33.99,2.61,1.66,3.84.67,1.22,1.47,2.37,2.36,3.44.81.98,1.7,1.89,2.65,2.74-1.72,1.14-4.28,1.97-7.29.23-.2-.19-.33-.34-.4-.42M157.53,70.05c1.05.5,2.03.7,2.94.7,3.14,0,5.38-2.38,6.09-3.24.88,1.08,1.83,2.04,2.82,2.85-5.67,3.83-10,1.27-11.85-.31M167.35,75.84c.4-.61,1.9-3.03,2.52-5.1.39.29.78.56,1.17.8l-.62,4.83c-.32-.17-1.28-.56-3.06-.53M169.35,76.21c.6.13.94.3,1.05.36,0,.01,0,.04-.03.07-.06.07-.21.18-.69.23-.24.02-.41.1-.54.19l.21-.85ZM170.89,78.77c-.05.04-.09.09-.13.14l-.03-.81c.08.03.15.06.19.09.13.09.14.21.14.21h0c0,.06,0,.21-.18.37M171.09,78.09c-.21-.19-.53-.23-.82-.21-.29.02-.57.09-.86.06-.11,0-.22-.04-.3-.11-.13-.13-.11-.36,0-.5.11-.14.3-.21.48-.25.18-.04.36-.05.54-.1.17-.06.35-.16.42-.33.03-.07.04-.15.05-.23l.26-2.03c.04-.34.08-.68.13-1.02l.13-1.02c.02-.17.04-.34.06-.51,0-.04.01-.08.02-.13,0-.02,0-.04,0-.06,0-.02.02,0,.04,0,.07.04.15.08.22.13.04.02.07.04.11.06-.16,2.08-.32,4.15-.49,6.23M174.06,78.92s-.08-.1-.13-.14c-.14-.12-.18-.24-.18-.32v-.06s.02-.12.15-.21c.04-.03.11-.07.19-.09l-.03.81ZM175.74,77.76s-.02.03-.04.05c-.1.1-.25.13-.4.14-.27,0-.54-.05-.81-.07-.27-.01-.56.02-.77.19-.15-1.98-.31-3.97-.47-5.95,0-.08-.01-.17.02-.25.06-.13.22-.18.35-.22.18,1.5.36,2.99.55,4.49.03.25.07.53.27.7.24.21.57.17.86.25.26.07.64.35.44.67M175.68,77.06c-.12-.1-.29-.17-.54-.19-.47-.05-.63-.16-.68-.23-.02-.03-.03-.05-.03-.07.11-.06.45-.23,1.05-.36l.21.85ZM177.47,75.84c-1.77-.03-2.74.36-3.06.53l-.62-4.83c.38-.23.77-.5,1.17-.8.61,2.07,2.12,4.49,2.52,5.11M172.41,71.46c-1.01-.49-2.19-1.3-3.4-2.42.04-.11.04-.25.04-.37,0-.18,0-.36.12-.43.02-.01.04-.02.07-.03.04-.02.09-.04.13-.08.04-.04.07-.09.09-.13.02-.03.03-.06.04-.07.06-.06.15-.07.26-.08.13-.01.28-.03.39-.14.11-.1.14-.26.09-.38-.01-.03-.03-.05-.04-.07-.01-.01-.02-.03-.02-.03-.02-.07,0-.13.04-.2.1-.13.33-.21.48-.2.06,0,.13,0,.2.02.17.03.37.05.53-.07.06-.04.1-.1.15-.16.05-.07.09-.12.15-.14.04-.01.08-.01.14,0,.1,0,.22,0,.3-.1v-.02c.04-.06.06-.07.13-.06l1.08.07c.07,0,.14,0,.18.04.03.02.06.06.09.09.03.04.07.09.12.13.12.08.29.08.46.01.05-.02.09-.04.13-.07.07-.04.14-.07.22-.09.13-.04.34.04.44.17.06.07.06.14.01.2-.01.01-.03.02-.04.03-.04.03-.1.07-.12.14-.04.13.07.24.19.28h.04s.1.05.1.06c.04.11-.02.22-.12.38-.07.11-.14.22-.16.34h0s0,.02,0,.02c.02.14.16.18.22.21.09.03.29.11.32.27,0,.02,0,.05,0,.08,0,.05,0,.11.03.17.02.04.04.07.06.1.01.02.03.03.03.05.01.1.04.17.09.24-1.16,1.05-2.29,1.8-3.26,2.28M175.44,70.35c.93-.76,1.89-1.71,2.82-2.85.7.85,2.95,3.24,6.1,3.24.91,0,1.89-.2,2.93-.69-1.88,1.59-6.21,4.12-11.86.29M191.21,63.96c-1.34,3.55-2.93,5.13-2.95,5.14-.07.08-.21.24-.42.45-3,1.72-5.54.92-7.27-.22.94-.84,1.83-1.75,2.64-2.72.89-1.07,1.69-2.23,2.36-3.44.68-1.23,1.24-2.52,1.66-3.84.87-2.66,1.23-5.45,1.34-8.24.02-.5.03-1,.04-1.5l3.98-2.6c1.06,8.18-.16,13.74-1.38,16.98M194.41,46.53l-1.18-.26.24-1.18,2.35-.51-1.41,1.95Z"/>
    <path class="cls-2" d="M179.47,42.62c.13.01.26.02.39.03.07,0,.12.02.15.04.06.03.08.08.07.16,0,.07,0,.13-.01.2,0,.04,0,.08,0,.09v.04c.08,0,.14.01.21.02v-.03s-.04-.04-.04-.08c0-.02,0-.06,0-.1,0-.05.01-.11.01-.16,0-.07,0-.12-.02-.15-.02-.03-.06-.06-.1-.08.06-.02.11-.05.14-.09.04-.04.06-.1.07-.16.02-.13-.03-.23-.14-.3-.06-.03-.14-.05-.24-.06-.21-.02-.41-.03-.61-.05-.03.39-.06.78-.08,1.17.06,0,.11,0,.17.01.01-.17.03-.34.04-.5M179.52,42.09c.14.01.29.02.43.03.06,0,.11.02.14.04.06.04.09.1.08.18-.01.08-.04.13-.09.15-.05.03-.11.03-.2.03-.13-.01-.27-.02-.4-.03.01-.13.02-.27.03-.4"/>
    <path class="cls-2" d="M181.45,43.12c.07-.09.12-.19.15-.32.04-.15.02-.29-.04-.41-.07-.13-.2-.21-.38-.24-.18-.03-.35-.06-.53-.08-.06.39-.12.77-.17,1.16.16.02.32.05.49.07.21.04.36-.02.49-.18M180.67,43.12c.04-.3.09-.59.14-.89.1.02.21.03.31.05.14.02.24.08.28.17.05.09.05.21.02.35,0,.04-.02.08-.04.12-.03.07-.07.13-.11.17-.06.05-.11.08-.18.09-.04,0-.08,0-.14-.01-.1-.01-.19-.03-.29-.04"/>
    <path class="cls-2" d="M182.59,43.53c-.24-.07-.48-.13-.72-.18.03-.13.06-.26.09-.39.22.05.45.11.67.17.01-.04.03-.09.04-.13-.22-.06-.45-.12-.67-.17.03-.11.06-.23.08-.35.25.06.5.12.75.19.01-.04.03-.09.04-.14-.31-.09-.61-.17-.92-.23-.09.38-.18.76-.27,1.14.29.06.58.14.87.22.01-.04.03-.09.04-.13"/>
    <path class="cls-2" d="M182.91,43.77c.1-.3.2-.6.29-.9.11.36.21.73.29,1.1.06.02.11.04.17.06.14-.36.28-.73.43-1.09-.05-.02-.11-.04-.16-.06-.11.29-.22.59-.34.89-.08-.36-.18-.73-.28-1.1-.07-.02-.13-.04-.2-.06-.12.37-.24.74-.35,1.12.05.02.1.03.15.05"/>
    <path class="cls-2" d="M176.69,43.18c.06,0,.11-.01.17-.02-.01-.16-.03-.31-.04-.47.14-.25.29-.49.44-.74-.07,0-.14.01-.21.01-.11.2-.22.4-.33.6-.14-.17-.29-.34-.43-.51-.07,0-.14.02-.21.03.2.21.39.42.57.63.02.16.03.31.05.47"/>
    <path class="cls-2" d="M178.45,43.12c.2,0,.36-.06.47-.2.1-.11.15-.25.16-.43,0-.16-.03-.29-.11-.4-.1-.14-.28-.21-.51-.21-.22,0-.4.08-.51.22-.09.11-.13.25-.12.41,0,.17.06.32.16.43.11.12.26.17.45.17M178.14,42.15c.09-.08.2-.13.34-.13s.25.04.32.13c.08.09.11.2.11.34,0,.13-.04.24-.11.34-.07.1-.18.15-.32.14-.16,0-.27-.04-.34-.13-.07-.09-.11-.2-.11-.33,0-.16.04-.28.12-.37"/>
    <path class="cls-2" d="M160.23,44.05c-.12-.33-.25-.67-.38-1-.06.02-.11.04-.17.06.15.38.3.75.44,1.13.25-.09.5-.17.76-.25-.01-.05-.03-.09-.04-.14-.2.06-.4.13-.6.2"/>
    <path class="cls-2" d="M160.74,42.81c.13.38.25.77.37,1.15.05-.02.11-.03.16-.05-.11-.39-.23-.77-.36-1.16-.06.02-.12.03-.18.05"/>
    <path class="cls-2" d="M162.27,43.05s-.1-.04-.17-.05c.04-.03.07-.06.08-.09.04-.06.05-.12.03-.2-.01-.06-.05-.12-.1-.16-.08-.07-.21-.08-.36-.05-.19.04-.38.09-.56.14.12.39.23.77.34,1.16.17-.05.34-.09.51-.13.16-.04.27-.11.32-.21.04-.07.05-.14.03-.22-.02-.09-.07-.16-.13-.19M161.51,43.09c-.03-.12-.07-.24-.1-.36.1-.03.21-.05.31-.07.08-.02.14-.03.18-.02.08.01.13.06.14.13.02.08,0,.14-.06.18-.04.03-.09.05-.17.07-.1.03-.21.05-.31.07M162.22,43.41c-.03.07-.1.11-.2.13-.12.03-.24.06-.36.09-.04-.14-.07-.27-.11-.41.11-.03.23-.06.34-.08.07-.02.13-.02.18-.01.09.01.14.06.16.15.01.05,0,.1-.01.14"/>
    <path class="cls-2" d="M163.58,43.19c-.26.03-.51.07-.77.12-.03-.13-.05-.27-.08-.4.24-.04.48-.08.71-.11,0-.04-.01-.09-.02-.14-.24.03-.48.07-.72.11-.03-.12-.05-.24-.07-.36.26-.05.53-.09.8-.12,0-.05-.02-.1-.02-.15-.33.04-.66.09-.98.15.09.39.17.79.25,1.18.31-.06.61-.11.93-.15,0-.05-.01-.1-.02-.14"/>
    <path class="cls-2" d="M164.09,43.24c-.02-.17-.04-.34-.06-.51.13-.01.27-.03.41-.04.07,0,.13,0,.16.01.06.02.1.07.11.15.01.07.02.13.03.2,0,.05.01.08.02.09l.02.04c.07,0,.14-.01.21-.01v-.03s-.05-.03-.07-.07c0-.02-.01-.06-.02-.1,0-.05-.01-.11-.02-.16,0-.07-.02-.12-.05-.15-.03-.03-.07-.05-.12-.07.06-.03.1-.07.13-.12.03-.05.04-.11.03-.18-.01-.14-.08-.23-.22-.27-.07-.02-.16-.03-.26-.02-.21.02-.42.04-.63.06.06.4.12.8.17,1.19.06,0,.11-.01.17-.02M164.4,42.14c.06,0,.11,0,.15.01.07.03.11.08.13.17,0,.08-.01.14-.06.17-.05.04-.11.06-.2.06-.14.01-.28.02-.42.04-.02-.14-.04-.27-.06-.41.15-.01.3-.03.45-.04"/>
    <path class="cls-2" d="M165.37,42.09c.02.35.04.71.05,1.06.06,0,.12,0,.18,0,0-.35-.02-.71-.04-1.06.15,0,.31,0,.46,0,0-.05,0-.1,0-.14-.38,0-.75,0-1.12.02,0,.05,0,.1.01.14.15,0,.31-.01.46-.01"/>
    <path class="cls-2" d="M166.11,43.14c.05-.12.1-.24.14-.36.18,0,.35.01.53.02.04.13.08.25.12.37.06,0,.13.01.2.01-.13-.42-.28-.83-.45-1.24-.07,0-.14,0-.21,0-.18.39-.34.79-.5,1.2.06,0,.12,0,.18,0M166.53,42.13c.07.18.13.36.2.54-.14,0-.28-.01-.42-.02.07-.18.15-.35.22-.53"/>
    <path class="cls-2" d="M168.31,43.06c.07-.1.11-.21.12-.34.02-.17,0-.31-.09-.43-.1-.13-.24-.21-.43-.24-.19-.02-.38-.04-.57-.06-.02.4-.04.81-.07,1.21.18.02.35.04.53.06.22.03.39-.04.51-.21M167.45,43.08c.03-.31.05-.62.07-.93.11.01.22.02.34.04.15.02.26.07.32.17.06.09.08.21.07.36,0,.04-.01.08-.03.12-.03.07-.06.13-.1.18-.05.06-.11.09-.19.1-.04,0-.09,0-.15,0-.11-.01-.21-.03-.32-.04"/>
    <path class="cls-2" d="M173.75,64.19h-.02v-.11h-.17v-.3h.33v-.78h-.33v-.23c0-.06-.03-.12-.07-.15-.05-.03-.11-.03-.17,0-.05.03-.08.08-.08.14v.24h-.56v-.23c0-.06-.03-.11-.08-.14-.05-.03-.12-.03-.17,0-.05.03-.08.08-.07.14v.24h-.56v-.23c0-.06-.03-.11-.08-.14-.05-.03-.12-.03-.17,0-.05.03-.08.08-.07.14v.24h-.33v.78h.33v.3h-.22v.11h-.02l-.22-.28h-.84l.38.56.47.3h1.47s0,.01,0,.01h1.47s.47-.31.47-.31l.38-.56h-.84l-.22.28ZM173.14,63.19h.56v.41h-.56v-.41ZM173.24,63.79v.3h-.22v.12h-.2s0-.12,0-.12h-.14v-.3h.56ZM172.24,63.19h.06c.13,0,.19-.04.22-.07.03.02.09.07.22.07h.06v.41h-.56v-.41ZM172.35,63.79v.3h-.19v.13h-.2v-.13h-.16v-.3h.56ZM171.33,63.6v-.41h.56v.41h-.56ZM174.46,64.1l-.17.25-.38.24h-1.41s-1.42,0-1.42,0l-.38-.24-.17-.25h.4l.22.28h.3s0-.11,0-.11h.34v.12h.57s0-.12,0-.12h.28v.13h.57v-.13h.34v.11h.3s.22-.28.22-.28h.4Z"/>
    <path class="cls-2" d="M173.75,69.41h-.02v-.11h-.17v-.3h.33v-.78h-.33v-.23c0-.06-.03-.12-.07-.15-.05-.03-.11-.03-.17,0-.05.03-.08.08-.08.14v.24h-.56v-.23c0-.06-.03-.11-.08-.14-.05-.03-.12-.03-.17,0-.05.03-.08.08-.07.14v.24h-.56v-.23c0-.06-.03-.11-.08-.14-.05-.03-.12-.03-.17,0-.05.03-.08.08-.07.14v.24h-.33v.78h.33v.3h-.22v.11h-.02l-.22-.28h-.84l.38.56.47.3h1.47s0,.01,0,.01h1.47s.47-.31.47-.31l.38-.56h-.84l-.22.28ZM173.14,68.41h.56v.41h-.56v-.41ZM173.24,69v.3h-.22v.12h-.2s0-.12,0-.12h-.14v-.3h.56ZM172.24,68.41h.06c.13,0,.19-.04.22-.07.03.02.09.07.22.07h.06v.41h-.56v-.41ZM172.35,69v.3h-.19v.13h-.2v-.13h-.16v-.3h.56ZM171.33,68.82v-.41h.56v.41h-.56ZM174.46,69.32l-.17.25-.38.24h-1.41s-1.42,0-1.42,0l-.38-.24-.17-.25h.4l.22.28h.3s0-.11,0-.11h.34v.12h.57s0-.12,0-.12h.28v.13h.57v-.13h.34v.11h.3s.22-.28.22-.28h.4Z"/>
    <path class="cls-2" d="M169.46,41.24h0s0,0,0,0"/>
  </g>
  <g>
    <rect class="cls-3" x="147.39" y="149.36" width="25.03" height="4.34"/>
    <rect class="cls-4" x="172.42" y="149.36" width="12.5" height="4.34"/>
    <rect class="cls-1" x="184.92" y="149.36" width="12.5" height="4.34"/>
  </g>
</svg>